RobotoAvar2-opsz144-wdth100-wght400.ufo
<glyph name="exclam" format="2">
  <advance width="392.83829787234043"/>
  <unicode hex="0021"/>
  <outline>
    <contour>
      <point x="115.6" y="61.234042553191486" type="qcurve" smooth="yes"/>
      <point x="115.6" y="93.22340425531914"/>
      <point x="156.91914893617022" y="138.79787234042553"/>
      <point x="196.41914893617022" y="138.79787234042553" type="qcurve" smooth="yes"/>
      <point x="235.91914893617022" y="138.79787234042553"/>
      <point x="277.23829787234047" y="93.22340425531914"/>
      <point x="277.23829787234047" y="61.234042553191486" type="qcurve" smooth="yes"/>
      <point x="277.23829787234047" y="29.24468085106383"/>
      <point x="235.91914893617022" y="-16.329787234042552"/>
      <point x="196.41914893617022" y="-16.329787234042552" type="qcurve" smooth="yes"/>
      <point x="156.91914893617022" y="-16.329787234042552"/>
      <point x="115.6" y="29.24468085106383"/>
    </contour>
    <contour>
      <point x="148.87659574468086" y="410.0" type="line"/>
      <point x="140.41914893617022" y="1456.0" type="line"/>
      <point x="252.85531914893616" y="1456.0" type="line"/>
      <point x="244.39787234042555" y="410.0" type="line"/>
    </contour>
  </outline>
</glyph>
<glyph name="quotedbl" format="2">
  <advance width="677.1324200913242"/>
  <unicode hex="0022"/>
  <outline>
    <contour>
      <point x="110.40425531914894" y="966.0" type="line"/>
      <point x="101.9468085106383" y="1320.0" type="line"/>
      <point x="101.9468085106383" y="1456.0" type="line"/>
      <point x="206.48936170212767" y="1456.0" type="line"/>
      <point x="206.48936170212767" y="1320.0" type="line"/>
      <point x="198.03191489361703" y="966.0" type="line"/>
    </contour>
    <contour>
      <point x="479.1005051977072" y="966.0" type="line"/>
      <point x="470.64305838919654" y="1320.0" type="line"/>
      <point x="470.64305838919654" y="1456.0" type="line"/>
      <point x="575.1856115806859" y="1456.0" type="line"/>
      <point x="575.1856115806859" y="1320.0" type="line"/>
      <point x="566.7281647721753" y="966.0" type="line"/>
    </contour>
  </outline>
</glyph>
<glyph name="numbersign" format="2">
  <advance width="1434.4803652968037"/>
  <unicode hex="0023"/>
  <outline>
    <contour>
      <point x="214.26325090434682" y="-20.0" type="line"/>
      <point x="632.085168712566" y="1501.0" type="line"/>
      <point x="722.7085453359426" y="1501.0" type="line"/>
      <point x="304.88662752772336" y="-20.0" type="line"/>
    </contour>
    <contour>
      <point x="699.0395066121093" y="-20.0" type="line"/>
      <point x="1116.8614244203286" y="1501.0" type="line"/>
      <point x="1207.4848010437051" y="1501.0" type="line"/>
      <point x="789.662883235486" y="-20.0" type="line"/>
    </contour>
    <contour>
      <point x="42.4" y="432.7872340425532" type="line"/>
      <point x="42.4" y="513.6489361702128" type="line"/>
      <point x="1328.1671232876713" y="513.6489361702128" type="line"/>
      <point x="1328.1671232876713" y="432.7872340425532" type="line"/>
    </contour>
    <contour>
      <point x="92.76073059360729" y="967.7872340425532" type="line"/>
      <point x="92.76073059360729" y="1048.6489361702127" type="line"/>
      <point x="1377.0803652968038" y="1048.6489361702127" type="line"/>
      <point x="1377.0803652968038" y="967.7872340425532" type="line"/>
    </contour>
  </outline>
</glyph>
<glyph name="dollar" format="2">
  <advance width="827.1753813271156"/>
  <unicode hex="0024"/>
  <outline>
    <contour>
      <point x="16.6" y="381.0" type="qcurve" smooth="yes"/>
      <point x="16.6" y="392.0" type="line"/>
      <point x="119.45106382978723" y="392.0" type="line"/>
      <point x="119.45106382978723" y="381.0" type="line" smooth="yes"/>
      <point x="119.45106382978723" y="237.23376623376623"/>
      <point x="275.3915844963353" y="87.67532467532467"/>
      <point x="413.40083551928495" y="87.67532467532467" type="qcurve" smooth="yes"/>
      <point x="550.4740134828739" y="87.67532467532467"/>
      <point x="699.8620227338969" y="240.06493506493507"/>
      <point x="699.8620227338969" y="365.0" type="qcurve" smooth="yes"/>
      <point x="699.8620227338969" y="487.1753618964345"/>
      <point x="555.4379966967842" y="640.0135529000291"/>
      <point x="383.9780238997377" y="700.0957446808511" type="qcurve" smooth="yes"/>
      <point x="206.39617215583405" y="765.0665500825804"/>
      <point x="43.727659574468085" y="947.5529000291459"/>
      <point x="43.727659574468085" y="1099.0" type="qcurve" smooth="yes"/>
      <point x="43.727659574468085" y="1259.6702127659576"/>
      <point x="232.6158845817546" y="1458.0"/>
      <point x="406.0744486544254" y="1458.0" type="qcurve" smooth="yes"/>
      <point x="580.9691829398621" y="1458.0"/>
      <point x="778.1651413582046" y="1241.1063829787233"/>
      <point x="778.1651413582046" y="1076.0" type="qcurve" smooth="yes"/>
      <point x="778.1651413582046" y="1065.0" type="line"/>
      <point x="675.3140775284174" y="1065.0" type="line"/>
      <point x="675.3140775284174" y="1076.0" type="line" smooth="yes"/>
      <point x="675.3140775284174" y="1206.3246753246754"/>
      <point x="538.251870329224" y="1363.7142857142858"/>
      <point x="405.70220538229864" y="1363.7142857142858" type="qcurve" smooth="yes"/>
      <point x="274.6644631769669" y="1363.7142857142858"/>
      <point x="145.45106382978722" y="1223.6385741917657"/>
      <point x="145.45106382978722" y="1099.0" type="qcurve" smooth="yes"/>
      <point x="145.45106382978722" y="986.7196152725153"/>
      <point x="283.961653550957" y="844.4345186048771"/>
      <point x="455.9977460409988" y="783.2127659574468" type="qcurve" smooth="yes"/>
      <point x="627.2595744680851" y="721.3815214223258"/>
      <point x="801.5854269892161" y="527.3422714466142"/>
      <point x="801.5854269892161" y="365.0" type="qcurve" smooth="yes"/>
      <point x="801.5854269892161" y="199.81914893617022"/>
      <point x="595.0396677353542" y="-6.0"/>
      <point x="413.02859224715826" y="-6.0" type="qcurve" smooth="yes"/>
      <point x="230.51761391236764" y="-6.0"/>
      <point x="16.6" y="199.81914893617022"/>
    </contour>
    <contour>
      <point x="374.1255027688721" y="-170.0" type="line"/>
      <point x="374.1255027688721" y="756.337899543379" type="line"/>
      <point x="453.8595453220636" y="756.337899543379" type="line"/>
      <point x="453.8595453220636" y="48.44155844155844" type="line"/>
      <point x="461.75316234334014" y="42.33766233766234" type="line"/>
      <point x="461.75316234334014" y="-170.0" type="line"/>
    </contour>
    <contour>
      <point x="382.0191197901487" y="756.337899543379" type="line"/>
      <point x="382.0191197901487" y="1412.4935064935064" type="line"/>
      <point x="374.1255027688721" y="1418.5974025974026" type="line"/>
      <point x="374.1255027688721" y="1586.0" type="line"/>
      <point x="461.75316234334014" y="1586.0" type="line"/>
      <point x="461.75316234334014" y="756.337899543379" type="line"/>
    </contour>
  </outline>
</glyph>
<glyph name="ampersand" format="2">
  <advance width="1087.6382201496162"/>
  <unicode hex="0026"/>
  <outline>
    <contour>
      <point x="50.691489361702125" y="380.0" type="qcurve" smooth="yes"/>
      <point x="50.691489361702125" y="527.2024923002773"/>
      <point x="206.91083840865247" y="748.1141047818402"/>
      <point x="326.16255152600246" y="825.8542370871138" type="qcurve" smooth="yes"/>
      <point x="461.84777953999765" y="914.1254143214212" type="line" smooth="yes"/>
      <point x="557.0905040747651" y="975.6564441096648"/>
      <point x="619.580685903041" y="1104.274753615179"/>
      <point x="619.580685903041" y="1169.229437229437" type="qcurve" smooth="yes"/>
      <point x="619.580685903041" y="1272.7482269503546"/>
      <point x="535.5387314036396" y="1380.4935064935064"/>
      <point x="453.3386767706208" y="1380.4935064935064" type="qcurve" smooth="yes"/>
      <point x="367.8820595512522" y="1380.4935064935064"/>
      <point x="279.67201010395416" y="1264.4634797826286"/>
      <point x="279.67201010395416" y="1163.125541125541" type="qcurve" smooth="yes"/>
      <point x="279.67201010395416" y="1088.8226950354608"/>
      <point x="354.539201399009" y="961.28587389488"/>
      <point x="450.512192752356" y="839.2328767123288" type="qcurve" smooth="yes"/>
      <point x="1110.2382201496162" y="0.0" type="line"/>
      <point x="983.4438453317789" y="0.0" type="line"/>
      <point x="368.191877975323" y="781.8723404255319" type="line" smooth="yes"/>
      <point x="268.0278830273001" y="909.5636354804236"/>
      <point x="174.00179733799672" y="1074.2411347517732"/>
      <point x="174.00179733799672" y="1165.4588744588746" type="qcurve" smooth="yes"/>
      <point x="174.00179733799672" y="1311.6241134751774"/>
      <point x="326.82107055482163" y="1476.0"/>
      <point x="452.9551151267852" y="1476.0" type="qcurve" smooth="yes"/>
      <point x="575.9720412687478" y="1476.0"/>
      <point x="719.612600796658" y="1319.4898222345032"/>
      <point x="719.612600796658" y="1177.6666666666667" type="qcurve" smooth="yes"/>
      <point x="719.612600796658" y="1074.8095238095239"/>
      <point x="628.3586354867322" y="906.9300091727955"/>
      <point x="528.7067014400154" y="841.8141493209987" type="qcurve" smooth="yes"/>
      <point x="393.4050350698558" y="753.5429720866912" type="line" smooth="yes"/>
      <point x="274.7310497236175" y="676.3820873093681"/>
      <point x="157.48936170212767" y="494.8150041447914"/>
      <point x="157.48936170212767" y="380.0" type="qcurve" smooth="yes"/>
      <point x="157.48936170212767" y="257.52919775260204"/>
      <point x="307.22452151947925" y="82.17316017316018"/>
      <point x="445.3934119897396" y="82.17316017316018" type="qcurve" smooth="yes"/>
      <point x="631.1788594190226" y="82.17316017316018"/>
      <point x="912.9988202800795" y="405.1948051948052"/>
      <point x="912.9988202800795" y="674.0" type="qcurve"/>
      <point x="1020.7131059943649" y="674.0" type="line"/>
      <point x="1020.7131059943649" y="380.0"/>
      <point x="680.795297775187" y="-13.333333333333334"/>
      <point x="444.7541425833469" y="-13.333333333333334" type="qcurve" smooth="yes"/>
      <point x="254.1484989798892" y="-13.333333333333334"/>
      <point x="50.691489361702125" y="210.2340425531915"/>
    </contour>
  </outline>
</glyph>
<glyph name="quotesingle" format="2">
  <advance width="328.0"/>
  <unicode hex="0027"/>
  <outline>
    <contour>
      <point x="120.40425531914894" y="966.0" type="line"/>
      <point x="106.30851063829789" y="1320.0" type="line"/>
      <point x="106.30851063829789" y="1456.0" type="line"/>
      <point x="222.1276595744681" y="1456.0" type="line"/>
      <point x="222.1276595744681" y="1320.0" type="line"/>
      <point x="208.03191489361703" y="966.0" type="line"/>
    </contour>
  </outline>
</glyph>
<glyph name="parenleft" format="2">
  <advance width="542.3744292237443"/>
  <unicode hex="0028"/>
  <outline>
    <contour>
      <point x="516.7744292237443" y="-436.0" type="line"/>
      <point x="349.48462061595257" y="-340.0"/>
      <point x="78.4" y="131.27659574468086"/>
      <point x="78.4" y="515.0" type="qcurve" smooth="yes"/>
      <point x="78.4" y="525.0" type="line" smooth="yes"/>
      <point x="78.4" y="925.7234042553191"/>
      <point x="349.48462061595257" y="1380.0"/>
      <point x="516.7744292237443" y="1476.0" type="qcurve"/>
      <point x="516.7744292237443" y="1371.4574468085107" type="line"/>
      <point x="397.29458855532886" y="1287.6063829787233"/>
      <point x="191.4" y="893.7127659574468"/>
      <point x="191.4" y="532.0" type="qcurve" smooth="yes"/>
      <point x="191.4" y="508.0" type="line" smooth="yes"/>
      <point x="191.4" y="161.59574468085106"/>
      <point x="397.7307587680948" y="-248.04255319148936"/>
      <point x="516.7744292237443" y="-331.45744680851067" type="qcurve"/>
    </contour>
  </outline>
</glyph>
<glyph name="parenright" format="2">
  <advance width="542.3744292237443"/>
  <unicode hex="0029"/>
  <outline>
    <contour>
      <point x="25.6" y="-436.0" type="qcurve"/>
      <point x="25.6" y="-331.45744680851067" type="line"/>
      <point x="145.07984066841541" y="-247.6063829787234"/>
      <point x="350.9744292237443" y="153.28587389488"/>
      <point x="350.9744292237443" y="508.0" type="qcurve" smooth="yes"/>
      <point x="350.9744292237443" y="532.0" type="line" smooth="yes"/>
      <point x="350.9744292237443" y="885.4028951714757"/>
      <point x="144.64367045564944" y="1288.0425531914893"/>
      <point x="25.6" y="1371.4574468085107" type="qcurve"/>
      <point x="25.6" y="1476.0" type="line"/>
      <point x="192.88980860779168" y="1380.0"/>
      <point x="463.9744292237443" y="917.2217526474303"/>
      <point x="463.9744292237443" y="525.0" type="qcurve" smooth="yes"/>
      <point x="463.9744292237443" y="515.0" type="line" smooth="yes"/>
      <point x="463.9744292237443" y="122.77494413679199"/>
      <point x="192.88980860779168" y="-340.0"/>
    </contour>
  </outline>
</glyph>
<glyph name="asterisk" format="2">
  <advance width="1022.4219178082193"/>
  <unicode hex="002A"/>
  <outline>
    <contour>
      <point x="51.44893617021276" y="1102.6180413873506" type="line"/>
      <point x="86.86577285533858" y="1206.7244243660741" type="line"/>
      <point x="477.7641503934713" y="1051.1083746235306" type="line"/>
      <point x="455.9024482658117" y="1476.0" type="line"/>
      <point x="566.5194695424075" y="1476.0" type="line"/>
      <point x="544.6577674147479" y="1051.1083746235306" type="line"/>
      <point x="935.5561449528806" y="1206.7244243660741" type="line"/>
      <point x="970.9729816380063" y="1102.6180413873506" type="line"/>
      <point x="565.8279801807054" y="986.0339065384242" type="line"/>
      <point x="832.0987467210725" y="664.0678130768483" type="line"/>
      <point x="742.0126688040416" y="598.534926649179" type="line"/>
      <point x="511.21095890410965" y="946.6402895171476" type="line"/>
      <point x="280.40924900417764" y="598.534926649179" type="line"/>
      <point x="190.3231710871466" y="664.0678130768483" type="line"/>
      <point x="456.59393762751387" y="986.0339065384242" type="line"/>
    </contour>
  </outline>
</glyph>
<glyph name="plus" format="2">
  <advance width="955.331506849315"/>
  <unicode hex="002B"/>
  <outline>
    <contour>
      <point x="38.2" y="625.4574468085107" type="line"/>
      <point x="38.2" y="720.9787234042553" type="line"/>
      <point x="917.1315068493151" y="720.9787234042553" type="line"/>
      <point x="917.1315068493151" y="625.4574468085107" type="line"/>
    </contour>
    <contour>
      <point x="425.17639172252984" y="204.74885844748857" type="line"/>
      <point x="425.17639172252984" y="1143.2511415525114" type="line"/>
      <point x="529.7189449140193" y="1143.2511415525114" type="line"/>
      <point x="529.7189449140193" y="204.74885844748857" type="line"/>
    </contour>
  </outline>
</glyph>
<glyph name="hyphen" format="2">
  <advance width="642.310502283105"/>
  <unicode hex="002D"/>
  <outline>
    <contour>
      <point x="49.0" y="583.2553191489362" type="line"/>
      <point x="49.0" y="683.2872340425532" type="line"/>
      <point x="593.310502283105" y="683.2872340425532" type="line"/>
      <point x="593.310502283105" y="583.2553191489362" type="line"/>
    </contour>
  </outline>
</glyph>
<glyph name="period" format="2">
  <advance width="460.0"/>
  <unicode hex="002E"/>
  <outline>
    <contour>
      <point x="145.79787234042553" y="64.61702127659575" type="qcurve" smooth="yes"/>
      <point x="145.79787234042553" y="98.29787234042553"/>
      <point x="188.8085106382979" y="146.0"/>
      <point x="230.0" y="146.0" type="qcurve" smooth="yes"/>
      <point x="271.1914893617021" y="146.0"/>
      <point x="314.20212765957444" y="98.29787234042553"/>
      <point x="314.20212765957444" y="64.61702127659575" type="qcurve" smooth="yes"/>
      <point x="314.20212765957444" y="31.372340425531913"/>
      <point x="271.1914893617021" y="-16.329787234042552"/>
      <point x="230.0" y="-16.329787234042552" type="qcurve" smooth="yes"/>
      <point x="188.8085106382979" y="-16.329787234042552"/>
      <point x="145.79787234042553" y="31.372340425531913"/>
    </contour>
  </outline>
</glyph>
<glyph name="slash" format="2">
  <advance width="669.5921500048577"/>
  <unicode hex="002F"/>
  <outline>
    <contour>
      <point x="-5.990284659477311" y="-125.0" type="line"/>
      <point x="572.8590304090159" y="1456.0" type="line"/>
      <point x="675.582434664335" y="1456.0" type="line"/>
      <point x="96.73311959584183" y="-125.0" type="line"/>
    </contour>
  </outline>
</glyph>
<glyph name="zero" format="2">
  <advance width="955.651802195667"/>
  <unicode hex="0030"/>
  <outline>
    <contour>
      <point x="70.0" y="460.0" type="qcurve" smooth="yes"/>
      <point x="70.0" y="996.0" type="line" smooth="yes"/>
      <point x="70.0" y="1222.9787234042553"/>
      <point x="282.5377440979306" y="1486.0"/>
      <point x="477.3897308850676" y="1486.0" type="qcurve" smooth="yes"/>
      <point x="671.5502283105022" y="1486.0"/>
      <point x="885.6518021956668" y="1222.9787234042553"/>
      <point x="885.6518021956668" y="996.0" type="qcurve" smooth="yes"/>
      <point x="885.6518021956668" y="460.0" type="line" smooth="yes"/>
      <point x="885.6518021956668" y="233.02127659574467"/>
      <point x="671.5502283105022" y="-30.0"/>
      <point x="477.3897308850676" y="-30.0" type="qcurve" smooth="yes"/>
      <point x="282.5377440979306" y="-30.0"/>
      <point x="70.0" y="233.02127659574467"/>
    </contour>
    <contour>
      <point x="182.43617021276594" y="450.0" type="line" smooth="yes"/>
      <point x="182.43617021276594" y="276.65031776733906"/>
      <point x="331.306616146896" y="69.16883116883116"/>
      <point x="477.3897308850676" y="69.16883116883116" type="qcurve" smooth="yes"/>
      <point x="623.9090158360051" y="69.16883116883116"/>
      <point x="773.215631982901" y="276.65031776733906"/>
      <point x="773.215631982901" y="450.0" type="qcurve" smooth="yes"/>
      <point x="773.215631982901" y="1006.0" type="line" smooth="yes"/>
      <point x="773.215631982901" y="1180.222022658193"/>
      <point x="624.2286505392015" y="1386.8311688311687"/>
      <point x="477.3897308850676" y="1386.8311688311687" type="qcurve" smooth="yes"/>
      <point x="330.9869814436996" y="1386.8311688311687"/>
      <point x="182.43617021276594" y="1180.222022658193"/>
      <point x="182.43617021276594" y="1006.0" type="qcurve" smooth="yes"/>
    </contour>
  </outline>
</glyph>
<glyph name="one" format="2">
  <advance width="805.251802195667"/>
  <unicode hex="0031"/>
  <outline>
    <contour>
      <point x="458.25936073059364" y="0.0" type="line"/>
      <point x="458.25936073059364" y="1340.951726113195" type="line"/>
      <point x="84.38332847566308" y="1191.8038485365796" type="line"/>
      <point x="84.38332847566308" y="1306.6450986107063" type="line"/>
      <point x="548.3892308604638" y="1480.6753246753246" type="line"/>
      <point x="569.5678713688916" y="1480.6753246753246" type="line"/>
      <point x="569.5678713688916" y="0.0" type="line"/>
    </contour>
  </outline>
</glyph>
<glyph name="two" format="2">
  <advance width="965.251802195667"/>
  <unicode hex="0032"/>
  <outline>
    <contour>
      <point x="52.681045370640234" y="0.0" type="line"/>
      <point x="52.681045370640234" y="81.98936170212767" type="line"/>
      <point x="533.5177304964539" y="621.9255319148936" type="line" smooth="yes"/>
      <point x="632.0539687166034" y="732.7905372583309"/>
      <point x="764.9080928786553" y="934.6382978723404"/>
      <point x="764.9080928786553" y="1071.276595744681" type="qcurve" smooth="yes"/>
      <point x="764.9080928786553" y="1201.5730864879802"/>
      <point x="615.9739143106966" y="1386.8311688311687"/>
      <point x="484.31448557271926" y="1386.8311688311687" type="qcurve" smooth="yes"/>
      <point x="355.5803944428252" y="1386.8311688311687"/>
      <point x="178.56402409404447" y="1205.0943630837248"/>
      <point x="178.56402409404447" y="1030.0" type="qcurve" smooth="yes"/>
      <point x="178.56402409404447" y="1020.0" type="line"/>
      <point x="68.3831730302147" y="1020.0" type="line"/>
      <point x="68.3831730302147" y="1031.3085106382978" type="line" smooth="yes"/>
      <point x="68.3831730302147" y="1243.0851063829787"/>
      <point x="307.2593995919557" y="1486.0"/>
      <point x="484.31448557271926" y="1486.0" type="qcurve" smooth="yes"/>
      <point x="663.614738171573" y="1486.0"/>
      <point x="875.0889439424851" y="1246.5106382978724"/>
      <point x="875.0889439424851" y="1076.9148936170213" type="qcurve" smooth="yes"/>
      <point x="875.0889439424851" y="916.5957446808511"/>
      <point x="716.5485767026133" y="680.5463421742932"/>
      <point x="610.885261828427" y="561.8510638297872" type="qcurve" smooth="yes"/>
      <point x="189.7113086563684" y="96.64893617021276" type="line"/>
      <point x="905.0570290488681" y="96.64893617021276" type="line"/>
      <point x="905.0570290488681" y="0.0" type="line"/>
    </contour>
  </outline>
</glyph>
<glyph name="three" format="2">
  <advance width="966.0518021956669"/>
  <unicode hex="0033"/>
  <outline>
    <contour>
      <point x="53.17332167492471" y="380.0" type="qcurve" smooth="yes"/>
      <point x="53.17332167492471" y="390.0" type="line"/>
      <point x="161.0988535898183" y="390.0" type="line"/>
      <point x="161.0988535898183" y="380.0" type="line" smooth="yes"/>
      <point x="161.0988535898183" y="238.39748549323016"/>
      <point x="324.2752841737103" y="69.16883116883116"/>
      <point x="476.3271640921014" y="69.16883116883116" type="qcurve" smooth="yes"/>
      <point x="627.6345574662392" y="69.16883116883116"/>
      <point x="789.8111823569416" y="240.57833655705994"/>
      <point x="789.8111823569416" y="400.0" type="qcurve" smooth="yes"/>
      <point x="789.8111823569416" y="544.7978723404256"/>
      <point x="615.1886233362479" y="712.3896103896104"/>
      <point x="444.2231127951035" y="712.0" type="qcurve" smooth="yes"/>
      <point x="321.0490624696396" y="712.0" type="line"/>
      <point x="321.0490624696396" y="808.7272727272727" type="line"/>
      <point x="437.88614567206815" y="808.7272727272727" type="line" smooth="yes"/>
      <point x="590.5580195089085" y="808.7272727272727"/>
      <point x="737.6569513261439" y="968.9585520862116"/>
      <point x="737.6569513261439" y="1094.3617021276596" type="qcurve" smooth="yes"/>
      <point x="737.6569513261439" y="1237.2727272727273"/>
      <point x="602.126542310308" y="1386.8311688311687"/>
      <point x="476.710725735937" y="1386.8311688311687" type="qcurve" smooth="yes"/>
      <point x="359.682477437068" y="1386.8311688311687"/>
      <point x="203.65928300786942" y="1234.82457817127"/>
      <point x="203.65928300786942" y="1100.0" type="qcurve" smooth="yes"/>
      <point x="203.65928300786942" y="1090.0" type="line"/>
      <point x="95.29758088020986" y="1090.0" type="line"/>
      <point x="95.29758088020986" y="1100.0" type="line" smooth="yes"/>
      <point x="95.29758088020986" y="1266.1063829787233"/>
      <point x="311.7620227338968" y="1486.0"/>
      <point x="476.710725735937" y="1486.0" type="qcurve" smooth="yes"/>
      <point x="648.744535120956" y="1486.0"/>
      <point x="848.9654619644418" y="1276.1063829787233"/>
      <point x="848.9654619644418" y="1100.0" type="qcurve" smooth="yes"/>
      <point x="848.9654619644418" y="992.6316662061342"/>
      <point x="729.4426252364171" y="799.7514506769826"/>
      <point x="601.3267269017779" y="765.563829787234" type="qcurve"/>
      <point x="601.3267269017779" y="761.563829787234" type="line"/>
      <point x="750.9398620421646" y="738.2872340425532"/>
      <point x="902.2473525697076" y="538.2553191489362"/>
      <point x="902.2473525697076" y="400.56382978723406" type="qcurve" smooth="yes"/>
      <point x="902.2473525697076" y="202.18085106382978"/>
      <point x="674.9035266686097" y="-30.0"/>
      <point x="476.3271640921014" y="-30.0" type="qcurve" smooth="yes"/>
      <point x="270.1125036432527" y="-30.0"/>
      <point x="53.17332167492471" y="199.56382978723406"/>
    </contour>
  </outline>
</glyph>
<glyph name="four" format="2">
  <advance width="1004.4518021956669"/>
  <unicode hex="0034"/>
  <outline>
    <contour>
      <point x="690.3215777713009" y="0.0" type="line"/>
      <point x="690.3215777713009" y="409.3404255319149" type="line"/>
      <point x="690.3215777713009" y="439.968085106383" type="line"/>
      <point x="690.3215777713009" y="1248.6808125809873" type="line"/>
      <point x="676.373525823249" y="1248.6808125809873" type="line"/>
      <point x="154.521475318619" y="469.031914893617" type="line"/>
      <point x="719.949237345769" y="469.031914893617" type="line"/>
      <point x="764.2364713883222" y="469.031914893617" type="line"/>
      <point x="988.6058486349947" y="469.031914893617" type="line"/>
      <point x="988.6058486349947" y="376.8936170212766" type="line"/>
      <point x="20.662536385211993" y="376.8936170212766" type="line"/>
      <point x="20.662536385211993" y="453.5501519756839" type="line"/>
      <point x="681.9478557486427" y="1456.0" type="line"/>
      <point x="794.8641309627903" y="1456.0" type="line"/>
      <point x="794.8641309627903" y="0.0" type="line"/>
    </contour>
  </outline>
</glyph>
<glyph name="five" format="2">
  <advance width="963.651802195667"/>
  <unicode hex="0035"/>
  <outline>
    <contour>
      <point x="59.73617992810648" y="365.0" type="qcurve" smooth="yes"/>
      <point x="59.73617992810648" y="375.0" type="line"/>
      <point x="166.534052268532" y="375.0" type="line"/>
      <point x="166.534052268532" y="365.0" type="line" smooth="yes"/>
      <point x="166.534052268532" y="229.06258634982038"/>
      <point x="342.1413771305931" y="69.16883116883116"/>
      <point x="475.33751092975814" y="69.16883116883116" type="qcurve" smooth="yes"/>
      <point x="609.0629345880002" y="69.16883116883116"/>
      <point x="791.7570193335276" y="272.7062724509533"/>
      <point x="791.7570193335276" y="465.0" type="qcurve" smooth="yes"/>
      <point x="791.7570193335276" y="642.4002486874828"/>
      <point x="612.669537739051" y="828.8441558441558"/>
      <point x="474.6516817002098" y="828.8441558441558" type="qcurve" smooth="yes"/>
      <point x="391.12114272592265" y="828.8441558441558"/>
      <point x="245.78793935104054" y="759.2399834208345"/>
      <point x="181.43549013892937" y="694.1702127659574" type="qcurve"/>
      <point x="105.7014475857379" y="730.0" type="line"/>
      <point x="176.9525891382493" y="1456.0" type="line"/>
      <point x="839.154813951229" y="1456.0" type="line"/>
      <point x="839.154813951229" y="1349.5064935064936" type="line"/>
      <point x="266.9912479922681" y="1349.5064935064936" type="line"/>
      <point x="213.4943266196545" y="822.6233766233767" type="line"/>
      <point x="268.7823006683397" y="867.7250621718707"/>
      <point x="416.16994780212497" y="928.6233766233767"/>
      <point x="496.0957901032224" y="928.6233766233767" type="qcurve" smooth="yes"/>
      <point x="669.6080333248797" y="928.6233766233767"/>
      <point x="901.9378703973574" y="683.2699640784747"/>
      <point x="901.9378703973574" y="465.0" type="qcurve" smooth="yes"/>
      <point x="901.9378703973574" y="231.12102790826194"/>
      <point x="659.3171572913631" y="-30.0"/>
      <point x="475.33751092975814" y="-30.0" type="qcurve" smooth="yes"/>
      <point x="283.0280773341106" y="-30.0"/>
      <point x="59.73617992810648" y="194.12765957446808"/>
    </contour>
  </outline>
</glyph>
<glyph name="six" format="2">
  <advance width="979.651802195667"/>
  <unicode hex="0036"/>
  <outline>
    <contour>
      <point x="57.4392694063927" y="614.0" type="qcurve" smooth="yes"/>
      <point x="57.4392694063927" y="644.0" type="line" smooth="yes"/>
      <point x="57.4392694063927" y="1005.2446808510638"/>
      <point x="451.04259773064786" y="1474.7478585244544"/>
      <point x="778.1358340872184" y="1474.7478585244544" type="qcurve" smooth="yes"/>
      <point x="798.2584183425629" y="1474.7478585244544" type="line"/>
      <point x="798.2584183425629" y="1375.579027355623" type="line"/>
      <point x="778.9616146895949" y="1375.579027355623" type="line" smooth="yes"/>
      <point x="507.55545920124763" y="1375.579027355623"/>
      <point x="166.4924608957544" y="992.8163857419177"/>
      <point x="166.4924608957544" y="645.7421939762365" type="qcurve" smooth="yes"/>
      <point x="166.4924608957544" y="612.2578060237635" type="line" smooth="yes"/>
      <point x="166.4924608957544" y="318.73901630284604"/>
      <point x="355.0008179812027" y="69.16883116883116"/>
      <point x="509.16728844846017" y="69.16883116883116" type="qcurve" smooth="yes"/>
      <point x="662.0078811599359" y="69.16883116883116"/>
      <point x="821.6956086660838" y="273.4412821221332"/>
      <point x="821.6956086660838" y="455.74219397623654" type="qcurve" smooth="yes"/>
      <point x="821.6956086660838" y="638.2930367504836"/>
      <point x="661.2286603807152" y="849.038961038961"/>
      <point x="508.29494802292817" y="849.038961038961" type="qcurve" smooth="yes"/>
      <point x="363.7393743825396" y="849.038961038961"/>
      <point x="165.3368930593355" y="634.9899143409782"/>
      <point x="165.77306327210144" y="461.3829787234043" type="qcurve"/>
      <point x="123.64139706596715" y="461.3829787234043" type="line"/>
      <point x="123.20522685320118" y="672.4390715667311"/>
      <point x="346.8151180792393" y="948.2077922077922"/>
      <point x="531.6237744476449" y="948.2077922077922" type="qcurve" smooth="yes"/>
      <point x="720.4045225540999" y="948.2077922077922"/>
      <point x="931.8764597299134" y="677.2369439071566"/>
      <point x="931.8764597299134" y="455.74219397623654" type="qcurve" smooth="yes"/>
      <point x="931.8764597299134" y="234.68361425808232"/>
      <point x="703.4758476634606" y="-30.0"/>
      <point x="509.4869231516564" y="-30.0" type="qcurve" smooth="yes"/>
      <point x="313.2532206353833" y="-30.0"/>
      <point x="57.4392694063927" y="276.1808510638298"/>
    </contour>
  </outline>
</glyph>
<glyph name="seven" format="2">
  <advance width="970.851802195667"/>
  <unicode hex="0037"/>
  <outline>
    <contour>
      <point x="232.00300204022153" y="0.0" type="line"/>
      <point x="801.9361604974254" y="1362.1702127659573" type="line"/>
      <point x="61.53112795103468" y="1362.1702127659573" type="line"/>
      <point x="61.53112795103468" y="1456.0" type="line"/>
      <point x="916.8829690080637" y="1456.0" type="line"/>
      <point x="916.8829690080637" y="1391.6914893617022" type="line"/>
      <point x="346.00300204022153" y="0.0" type="line"/>
    </contour>
  </outline>
</glyph>
<glyph name="eight" format="2">
  <advance width="960.4518021956669"/>
  <unicode hex="0038"/>
  <outline>
    <contour>
      <point x="64.01604974254346" y="386.0" type="qcurve" smooth="yes"/>
      <point x="64.01604974254346" y="524.2578060237635"/>
      <point x="223.12827138857452" y="719.3772990343961"/>
      <point x="357.9041088320015" y="746.680559603614" type="qcurve"/>
      <point x="357.9041088320015" y="748.9358787525503" type="line"/>
      <point x="250.2284132073115" y="777.1992111648188"/>
      <point x="107.65075293889052" y="955.2234042553191"/>
      <point x="107.65075293889052" y="1087.0" type="qcurve" smooth="yes"/>
      <point x="107.65075293889052" y="1272.2340425531916"/>
      <point x="319.5643349849412" y="1486.0"/>
      <point x="481.53421742932085" y="1486.0" type="qcurve" smooth="yes"/>
      <point x="645.0043913339163" y="1486.0"/>
      <point x="855.4180705333722" y="1273.670018459147"/>
      <point x="855.4180705333722" y="1087.0" type="qcurve" smooth="yes"/>
      <point x="855.4180705333722" y="955.2234042553191"/>
      <point x="713.3403131115459" y="777.1992111648188"/>
      <point x="604.8562040019632" y="748.9358787525503" type="qcurve"/>
      <point x="604.8562040019632" y="746.680559603614" type="line"/>
      <point x="739.6320414453903" y="719.3772990343961"/>
      <point x="897.3720198192946" y="524.2578060237635"/>
      <point x="897.3720198192946" y="386.0" type="qcurve" smooth="yes"/>
      <point x="897.3720198192946" y="201.08510638297872"/>
      <point x="670.5880404158166" y="-30.0"/>
      <point x="481.5981443699602" y="-30.0" type="qcurve" smooth="yes"/>
      <point x="292.672175264743" y="-30.0"/>
      <point x="64.01604974254346" y="201.08510638297872"/>
    </contour>
    <contour>
      <point x="173.0692412319052" y="391.63829787234044" type="qcurve" smooth="yes"/>
      <point x="173.0692412319052" y="253.16979828681957"/>
      <point x="337.4693050755714" y="69.16883116883116"/>
      <point x="481.5981443699602" y="69.16883116883116" type="qcurve" smooth="yes"/>
      <point x="626.1165940539593" y="69.16883116883116"/>
      <point x="788.3188283299329" y="253.55940867642997"/>
      <point x="788.3188283299329" y="391.63829787234044" type="qcurve" smooth="yes"/>
      <point x="788.3188283299329" y="524.0078751036198"/>
      <point x="624.5656131199996" y="696.0"/>
      <point x="481.5981443699602" y="696.0" type="qcurve" smooth="yes"/>
      <point x="338.14794558399916" y="696.0"/>
      <point x="173.0692412319052" y="524.0078751036198"/>
    </contour>
    <contour>
      <point x="214.44862527931605" y="1081.3617021276596" type="qcurve" smooth="yes"/>
      <point x="214.44862527931605" y="953.3219121304228"/>
      <point x="366.03452276859446" y="796.7272727272727"/>
      <point x="481.5981443699602" y="796.7272727272727" type="qcurve" smooth="yes"/>
      <point x="597.9875465737022" y="796.7272727272727"/>
      <point x="748.6201981929466" y="953.3219121304228"/>
      <point x="748.6201981929466" y="1081.3617021276596" type="qcurve" smooth="yes"/>
      <point x="748.6201981929466" y="1222.9961315280464"/>
      <point x="602.2144048218371" y="1386.8311688311687"/>
      <point x="481.5981443699602" y="1386.8311688311687" type="qcurve" smooth="yes"/>
      <point x="362.1041552637588" y="1386.8311688311687"/>
      <point x="214.44862527931605" y="1222.9961315280464"/>
    </contour>
  </outline>
</glyph>
<glyph name="nine" format="2">
  <advance width="979.651802195667"/>
  <unicode hex="0039"/>
  <outline>
    <contour>
      <point x="49.52002331681726" y="1001.3607305936073" type="qcurve" smooth="yes"/>
      <point x="49.52002331681726" y="1221.9781404838238"/>
      <point x="277.92063538327017" y="1486.0"/>
      <point x="471.9095598950743" y="1486.0" type="qcurve" smooth="yes"/>
      <point x="668.1432624113476" y="1486.0"/>
      <point x="923.9572136403382" y="1179.8191489361702"/>
      <point x="923.9572136403382" y="842.0" type="qcurve" smooth="yes"/>
      <point x="923.9572136403382" y="812.0" type="line" smooth="yes"/>
      <point x="923.9572136403382" y="465.12503643252694"/>
      <point x="527.5212377343827" y="-1.917808219178082"/>
      <point x="203.37094141649663" y="-1.917808219178082" type="qcurve" smooth="yes"/>
      <point x="183.13806470416785" y="-1.917808219178082" type="line"/>
      <point x="183.13806470416785" y="97.25102294965308" type="line"/>
      <point x="202.43486835713588" y="97.25102294965308" type="line" smooth="yes"/>
      <point x="471.50336150782084" y="97.25102294965308"/>
      <point x="814.9040221509765" y="477.2739726027397"/>
      <point x="814.9040221509765" y="810.2578060237635" type="qcurve" smooth="yes"/>
      <point x="814.9040221509765" y="843.7421939762365" type="line" smooth="yes"/>
      <point x="814.9040221509765" y="1136.092152528323"/>
      <point x="627.1748858447489" y="1386.8311688311687"/>
      <point x="472.2291945982707" y="1386.8311688311687" type="qcurve" smooth="yes"/>
      <point x="318.2197707179636" y="1386.8311688311687"/>
      <point x="159.70087438064704" y="1181.9413489939577"/>
      <point x="159.70087438064704" y="1001.3607305936073" type="qcurve" smooth="yes"/>
      <point x="159.70087438064704" y="819.3613501042822"/>
      <point x="319.3886018867948" y="617.8902923560457"/>
      <point x="472.2291945982707" y="617.8902923560457" type="qcurve" smooth="yes"/>
      <point x="616.8778878849704" y="617.8902923560457"/>
      <point x="813.7565491110463" y="822.6644725137876"/>
      <point x="813.3203788982803" y="999.6160497425435" type="qcurve"/>
      <point x="857.7550859807637" y="999.6160497425435" type="line"/>
      <point x="858.1912561935296" y="785.1050228310502"/>
      <point x="634.5813649674915" y="518.7214611872146"/>
      <point x="448.90036817355383" y="518.7214611872146" type="qcurve" smooth="yes"/>
      <point x="261.1022529496152" y="518.7214611872146"/>
      <point x="49.52002331681726" y="780.3071504906246"/>
    </contour>
  </outline>
</glyph>
<glyph name="colon" format="2">
  <advance width="467.2"/>
  <unicode hex="003A"/>
  <outline>
    <contour>
      <point x="152.78085106382977" y="55.56382978723404" type="qcurve" smooth="yes"/>
      <point x="152.78085106382977" y="87.5531914893617"/>
      <point x="194.53617021276594" y="133.56382978723406"/>
      <point x="233.6" y="133.56382978723406" type="qcurve" smooth="yes"/>
      <point x="272.663829787234" y="133.56382978723406"/>
      <point x="314.41914893617025" y="87.5531914893617"/>
      <point x="314.41914893617025" y="55.56382978723404" type="qcurve" smooth="yes"/>
      <point x="314.41914893617025" y="23.574468085106382"/>
      <point x="272.663829787234" y="-22.0"/>
      <point x="233.6" y="-22.0" type="qcurve" smooth="yes"/>
      <point x="194.53617021276594" y="-22.0"/>
      <point x="152.78085106382977" y="23.574468085106382"/>
    </contour>
    <contour>
      <point x="152.78085106382977" y="990.436170212766" type="qcurve" smooth="yes"/>
      <point x="152.78085106382977" y="1022.4255319148937"/>
      <point x="194.53617021276594" y="1068.0"/>
      <point x="233.6" y="1068.0" type="qcurve" smooth="yes"/>
      <point x="272.663829787234" y="1068.0"/>
      <point x="314.41914893617025" y="1022.4255319148937"/>
      <point x="314.41914893617025" y="990.436170212766" type="qcurve" smooth="yes"/>
      <point x="314.41914893617025" y="958.4468085106383"/>
      <point x="272.663829787234" y="912.436170212766"/>
      <point x="233.6" y="912.436170212766" type="qcurve" smooth="yes"/>
      <point x="194.53617021276594" y="912.436170212766"/>
      <point x="152.78085106382977" y="958.4468085106383"/>
    </contour>
  </outline>
</glyph>
<glyph name="semicolon" format="2">
  <advance width="440.0"/>
  <unicode hex="003B"/>
  <outline>
    <contour>
      <point x="64.61473817157292" y="-233.51034683765667" type="line"/>
      <point x="124.32342368600018" y="-168.70193335276403"/>
      <point x="173.51063829787233" y="-24.73394539978626"/>
      <point x="173.94680851063828" y="70.0" type="qcurve" smooth="yes"/>
      <point x="173.94680851063828" y="220.0" type="line"/>
      <point x="278.48936170212767" y="220.0" type="line"/>
      <point x="278.48936170212767" y="70.0" type="line" smooth="yes"/>
      <point x="278.48936170212767" y="-40.0"/>
      <point x="203.45215194792576" y="-210.04255319148936"/>
      <point x="127.2649373360536" y="-277.04255319148933" type="qcurve"/>
    </contour>
    <contour>
      <point x="135.18085106382978" y="990.436170212766" type="qcurve" smooth="yes"/>
      <point x="135.18085106382978" y="1022.4255319148937"/>
      <point x="176.93617021276594" y="1068.0"/>
      <point x="216.0" y="1068.0" type="qcurve" smooth="yes"/>
      <point x="255.06382978723406" y="1068.0"/>
      <point x="296.8191489361702" y="1022.4255319148937"/>
      <point x="296.8191489361702" y="990.436170212766" type="qcurve" smooth="yes"/>
      <point x="296.8191489361702" y="958.4468085106383"/>
      <point x="255.06382978723406" y="912.436170212766"/>
      <point x="216.0" y="912.436170212766" type="qcurve" smooth="yes"/>
      <point x="176.93617021276594" y="912.436170212766"/>
      <point x="135.18085106382978" y="958.4468085106383"/>
    </contour>
  </outline>
</glyph>
<glyph name="less" format="2">
  <advance width="910.4767123287671"/>
  <unicode hex="003C"/>
  <outline>
    <contour>
      <point x="842.8767123287671" y="249.35106382978722" type="line"/>
      <point x="64.0" y="631.4042553191489" type="line"/>
      <point x="64.0" y="717.8297872340426" type="line"/>
      <point x="842.8767123287671" y="1096.8297872340424" type="line"/>
      <point x="842.8767123287671" y="974.8043816185757" type="line"/>
      <point x="186.86447099970854" y="677.436170212766" type="line"/>
      <point x="842.8767123287671" y="377.01476731759453" type="line"/>
    </contour>
  </outline>
</glyph>
<glyph name="equal" format="2">
  <advance width="945.1031963470319"/>
  <unicode hex="003D"/>
  <outline>
    <contour>
      <point x="38.2" y="416.32978723404256" type="line"/>
      <point x="38.2" y="514.6702127659574" type="line"/>
      <point x="906.903196347032" y="514.6702127659574" type="line"/>
      <point x="906.903196347032" y="416.32978723404256" type="line"/>
    </contour>
    <contour>
      <point x="38.2" y="811.3297872340426" type="line"/>
      <point x="38.2" y="909.6702127659574" type="line"/>
      <point x="906.903196347032" y="909.6702127659574" type="line"/>
      <point x="906.903196347032" y="811.3297872340426" type="line"/>
    </contour>
  </outline>
</glyph>
<glyph name="greater" format="2">
  <advance width="910.4767123287671"/>
  <unicode hex="003E"/>
  <outline>
    <contour>
      <point x="67.6" y="249.35106382978722" type="line"/>
      <point x="67.6" y="372.01573885164674" type="line"/>
      <point x="723.6122413290586" y="672.4371417468183" type="line"/>
      <point x="67.6" y="969.805353152628" type="line"/>
      <point x="67.6" y="1096.8297872340424" type="line"/>
      <point x="846.4767123287671" y="717.8297872340426" type="line"/>
      <point x="846.4767123287671" y="631.4042553191489" type="line"/>
    </contour>
  </outline>
</glyph>
<glyph name="question" format="2">
  <advance width="731.4130671330031"/>
  <unicode hex="003F"/>
  <outline>
    <contour>
      <point x="248.08316331487418" y="61.234042553191486" type="qcurve" smooth="yes"/>
      <point x="248.08316331487418" y="93.22340425531914"/>
      <point x="289.83848246381035" y="138.79787234042553"/>
      <point x="328.9023122510444" y="138.79787234042553" type="qcurve" smooth="yes"/>
      <point x="367.96614203827846" y="138.79787234042553"/>
      <point x="409.72146118721463" y="93.22340425531914"/>
      <point x="409.72146118721463" y="61.234042553191486" type="qcurve" smooth="yes"/>
      <point x="409.72146118721463" y="29.24468085106383"/>
      <point x="367.96614203827846" y="-16.329787234042552"/>
      <point x="328.9023122510444" y="-16.329787234042552" type="qcurve" smooth="yes"/>
      <point x="289.83848246381035" y="-16.329787234042552"/>
      <point x="248.08316331487418" y="29.24468085106383"/>
    </contour>
    <contour>
      <point x="40.0" y="1095.0" type="line"/>
      <point x="40.0" y="1115.0" type="line" smooth="yes"/>
      <point x="40.0" y="1278.2553191489362"/>
      <point x="207.8693772466725" y="1476.0"/>
      <point x="358.0647041678811" y="1476.0" type="qcurve" smooth="yes"/>
      <point x="509.76032254930533" y="1476.0"/>
      <point x="671.0130671330031" y="1270.0"/>
      <point x="671.0130671330031" y="1100.0" type="qcurve" smooth="yes"/>
      <point x="671.0130671330031" y="966.8723404255319"/>
      <point x="565.735742737783" y="792.0212765957447"/>
      <point x="491.7280190420674" y="720.6063829787234" type="qcurve" smooth="yes"/>
      <point x="415.11313514038665" y="645.881132808705"/>
      <point x="376.3392596910522" y="527.1383950257456"/>
      <point x="376.3392596910522" y="446.17021276595744" type="qcurve" smooth="yes"/>
      <point x="376.3392596910522" y="410.0" type="line"/>
      <point x="268.41372777615857" y="410.0" type="line"/>
      <point x="268.41372777615857" y="446.17021276595744" type="line" smooth="yes"/>
      <point x="268.41372777615857" y="558.0851063829788"/>
      <point x="319.41120178762264" y="685.6684640046634"/>
      <point x="403.40887010589717" y="772.531914893617" type="qcurve" smooth="yes"/>
      <point x="483.9272320994851" y="854.4042553191489"/>
      <point x="563.0875352181095" y="986.4787234042553"/>
      <point x="563.0875352181095" y="1100.0" type="qcurve" smooth="yes"/>
      <point x="563.0875352181095" y="1225.9936446532192"/>
      <point x="461.23583989118816" y="1374.3896103896104"/>
      <point x="358.93704459341296" y="1374.3896103896104" type="qcurve" smooth="yes"/>
      <point x="255.32973865733993" y="1374.3896103896104"/>
      <point x="147.36170212765956" y="1233.3766233766235"/>
      <point x="147.36170212765956" y="1115.0" type="qcurve" smooth="yes"/>
      <point x="147.36170212765956" y="1095.0" type="line"/>
    </contour>
  </outline>
</glyph>
<glyph name="at" format="2">
  <advance width="1971.2474885844747"/>
  <unicode hex="0040"/>
  <outline>
    <contour>
      <point x="593.9400272029534" y="390.40425531914894" type="qcurve" smooth="yes"/>
      <point x="595.6660546002137" y="659.936170212766"/>
      <point x="876.1439522005246" y="1052.0"/>
      <point x="1046.687502160717" y="1052.0" type="qcurve" smooth="yes"/>
      <point x="1124.3600308367431" y="1052.0"/>
      <point x="1259.5572465715572" y="987.6170212765958"/>
      <point x="1305.2612649373361" y="946.0" type="qcurve"/>
      <point x="1358.9386184785776" y="946.0" type="line"/>
      <point x="1236.321597201982" y="350.0" type="line" smooth="yes"/>
      <point x="1211.339005325773" y="226.78516164686377"/>
      <point x="1317.0161860096575" y="85.74025974025975"/>
      <point x="1423.1054498013402" y="85.74025974025975" type="qcurve" smooth="yes"/>
      <point x="1581.387366272123" y="85.74025974025975"/>
      <point x="1754.1772758185177" y="395.8538270240398"/>
      <point x="1754.1772758185177" y="650.0" type="qcurve" smooth="yes"/>
      <point x="1754.1772758185177" y="952.2348715114673"/>
      <point x="1361.5114948880907" y="1388.051948051948"/>
      <point x="1027.7150684931507" y="1388.051948051948" type="qcurve" smooth="yes"/>
      <point x="687.7951273151216" y="1388.051948051948"/>
      <point x="219.14468085106384" y="856.3075435203095"/>
      <point x="219.14468085106384" y="460.0" type="qcurve" smooth="yes"/>
      <point x="219.14468085106384" y="78.21608179054988"/>
      <point x="620.3894134331616" y="-348.05194805194805"/>
      <point x="934.1716894977169" y="-348.05194805194805" type="qcurve" smooth="yes"/>
      <point x="1070.9114155251143" y="-348.05194805194805"/>
      <point x="1260.1445294431596" y="-297.16883116883116"/>
      <point x="1327.2036529680365" y="-258.05194805194805" type="qcurve"/>
      <point x="1327.3315068493152" y="-356.0" type="line"/>
      <point x="1258.2904109589042" y="-400.0"/>
      <point x="1070.2721461187216" y="-446.0"/>
      <point x="934.1077625570776" y="-446.0" type="qcurve" smooth="yes"/>
      <point x="584.4" y="-446.0"/>
      <point x="111.21914893617023" y="39.36073059360731"/>
      <point x="111.21914893617023" y="459.87214611872145" type="qcurve" smooth="yes"/>
      <point x="111.21914893617023" y="891.6600602351112"/>
      <point x="652.731876032255" y="1486.0"/>
      <point x="1027.2788982803847" y="1486.0" type="qcurve" smooth="yes"/>
      <point x="1397.4642184008549" y="1486.0"/>
      <point x="1858.719829010007" y="1000.0"/>
      <point x="1858.719829010007" y="650.0" type="qcurve" smooth="yes"/>
      <point x="1858.719829010007" y="360.0"/>
      <point x="1626.3488001554456" y="0.0"/>
      <point x="1433.523287671233" y="0.0" type="qcurve" smooth="yes"/>
      <point x="1309.9618867191296" y="0.0"/>
      <point x="1151.6441111788242" y="132.03150041447915"/>
      <point x="1132.1078552944193" y="227.66247582205028" type="qcurve"/>
      <point x="1092.3881794587421" y="131.61246200607903"/>
      <point x="941.9932376183032" y="0.0"/>
      <point x="847.9594578839989" y="0.0" type="qcurve" smooth="yes"/>
      <point x="724.4666472359855" y="0.0"/>
      <point x="592.7893422714466" y="205.6063829787234"/>
    </contour>
    <contour>
      <point x="704.3765860293403" y="390.659963081706" type="qcurve" smooth="yes"/>
      <point x="702.8423394539979" y="246.90626084301397"/>
      <point x="792.5010408031684" y="98.52944315958014"/>
      <point x="880.9834074601198" y="98.52944315958014" type="qcurve" smooth="yes"/>
      <point x="968.8337539949608" y="98.52944315958014"/>
      <point x="1101.8602257744199" y="232.21534998567932"/>
      <point x="1129.360322927825" y="363.9134710135876" type="qcurve" smooth="yes"/>
      <point x="1240.9318637934493" y="893.525974025974" type="line"/>
      <point x="1205.4987053362454" y="924.7732799115778"/>
      <point x="1111.8990303585467" y="963.8821087588211"/>
      <point x="1058.7776315009194" y="963.8821087588211" type="qcurve" smooth="yes"/>
      <point x="923.3883699803548" y="963.8821087588211"/>
      <point x="707.1893714174681" y="625.7512715109625"/>
    </contour>
  </outline>
</glyph>
<glyph name="A" format="2">
  <advance width="1044.7251530166134"/>
  <unicode hex="0041"/>
  <anchor x="518.6814339842612" y="0.0" name="bottom"/>
  <anchor x="1017.691392208297" y="0.0" name="ogonek"/>
  <anchor x="518.6814339842612" y="1456.0" name="top"/>
  <anchor x="120.88506752161663" y="1074.0" name="tonos"/>
  <outline>
    <contour>
      <point x="4.0" y="0.0" type="line"/>
      <point x="468.5752453123482" y="1465.127659574468" type="line"/>
      <point x="569.0433304187311" y="1465.127659574468" type="line"/>
      <point x="1040.7251530166134" y="0.0" type="line"/>
      <point x="924.906004080443" y="0.0" type="line"/>
      <point x="552.5823860876324" y="1209.0425531914893" type="line" smooth="yes"/>
      <point x="542.6580200136015" y="1241.7342368600018"/>
      <point x="527.4894588555328" y="1300.1170212765958"/>
      <point x="522.2454580783055" y="1327.8829787234042" type="qcurve"/>
      <point x="513.1177985038375" y="1327.8829787234042" type="line"/>
      <point x="507.8737977266104" y="1300.1170212765958"/>
      <point x="493.14140678130775" y="1241.2980666472358"/>
      <point x="483.2170407072768" y="1208.1702127659573" type="qcurve" smooth="yes"/>
      <point x="115.30851063829788" y="0.0" type="line"/>
    </contour>
    <contour>
      <point x="187.84385239748104" y="411.5584415584416" type="line"/>
      <point x="217.03145120691028" y="510.72727272727275" type="line"/>
      <point x="823.4781165109058" y="510.72727272727275" type="line"/>
      <point x="852.4914959227114" y="411.5584415584416" type="line"/>
    </contour>
  </outline>
</glyph>
<glyph name="B" format="2">
  <advance width="964.0285631011368"/>
  <unicode hex="0042"/>
  <anchor x="462.41931409695906" y="0.0" name="bottom"/>
  <anchor x="462.41931409695906" y="1456.0" name="top"/>
  <outline>
    <contour>
      <point x="106.0" y="0.0" type="line"/>
      <point x="106.0" y="1456.0" type="line"/>
      <point x="487.1079860099096" y="1456.0" type="line" smooth="yes"/>
      <point x="664.5431361119207" y="1456.0"/>
      <point x="864.010298260954" y="1270.0"/>
      <point x="864.010298260954" y="1070.0" type="qcurve" smooth="yes"/>
      <point x="864.010298260954" y="950.0"/>
      <point x="752.8885650442048" y="794.8590770931197"/>
      <point x="659.5723307101914" y="768.0" type="qcurve"/>
      <point x="659.5723307101914" y="764.0" type="line"/>
      <point x="772.8885650442048" y="739.3217739707101"/>
      <point x="900.0285631011367" y="553.4574468085107"/>
      <point x="900.0285631011367" y="420.0" type="qcurve" smooth="yes"/>
      <point x="900.0285631011367" y="220.0"/>
      <point x="707.6814339842612" y="0.0"/>
      <point x="517.1079860099096" y="0.0" type="qcurve" smooth="yes"/>
    </contour>
    <contour>
      <point x="215.05319148936167" y="99.16883116883116" type="line"/>
      <point x="517.1079860099096" y="99.16883116883116" type="line" smooth="yes"/>
      <point x="665.6247386636486" y="99.16883116883116"/>
      <point x="789.8477120373069" y="268.05194805194805"/>
      <point x="789.8477120373069" y="420.0" type="qcurve" smooth="yes"/>
      <point x="789.8477120373069" y="547.8510638297872"/>
      <point x="656.9136306227533" y="711.9480519480519"/>
      <point x="517.1079860099096" y="711.9480519480519" type="qcurve" smooth="yes"/>
      <point x="168.63829787234042" y="711.9480519480519" type="line"/>
      <point x="168.63829787234042" y="809.8961038961039" type="line"/>
      <point x="500.39447121420307" y="809.8961038961039" type="line" smooth="yes"/>
      <point x="628.947974351501" y="809.8961038961039"/>
      <point x="753.8294471971242" y="948.2234042553191"/>
      <point x="753.8294471971242" y="1070.0" type="qcurve" smooth="yes"/>
      <point x="753.8294471971242" y="1213.8961038961038"/>
      <point x="625.3604221000024" y="1356.8311688311687"/>
      <point x="488.7061595258914" y="1356.8311688311687" type="qcurve" smooth="yes"/>
      <point x="215.05319148936167" y="1356.8311688311687" type="line"/>
    </contour>
  </outline>
</glyph>
<glyph name="C" format="2">
  <advance width="1078.0192072282134"/>
  <unicode hex="0043"/>
  <anchor x="561.4933449917419" y="0.0" name="bottom"/>
  <anchor x="571.4933449917419" y="1456.0" name="top"/>
  <outline>
    <contour>
      <point x="73.0" y="682.0" type="qcurve" smooth="yes"/>
      <point x="73.0" y="774.3333333333334" type="line" smooth="yes"/>
      <point x="73.0" y="1101.049645390071"/>
      <point x="347.109443310988" y="1476.3333333333333"/>
      <point x="571.4933449917419" y="1476.3333333333333" type="qcurve" smooth="yes"/>
      <point x="791.5455163703489" y="1476.3333333333333"/>
      <point x="1023.5552802875741" y="1193.078014184397"/>
      <point x="1023.5552802875741" y="990.3333333333334" type="qcurve" smooth="yes"/>
      <point x="1023.5552802875741" y="980.3333333333334" type="line"/>
      <point x="912.2467696492762" y="980.3333333333334" type="line"/>
      <point x="912.2467696492762" y="990.3333333333334" type="line" smooth="yes"/>
      <point x="912.2467696492762" y="1154.0184673482545"/>
      <point x="743.2422034392305" y="1373.5021645021645"/>
      <point x="571.4933449917419" y="1373.5021645021645" type="qcurve" smooth="yes"/>
      <point x="399.52874794495307" y="1373.5021645021645"/>
      <point x="185.87234042553192" y="1065.1471861471862"/>
      <point x="185.87234042553192" y="774.3333333333334" type="qcurve" smooth="yes"/>
      <point x="185.87234042553192" y="682.0" type="line" smooth="yes"/>
      <point x="185.87234042553192" y="404.1785484019527"/>
      <point x="401.2560206722258" y="82.83116883116884"/>
      <point x="571.4933449917419" y="82.83116883116884" type="qcurve" smooth="yes"/>
      <point x="733.1779635889225" y="82.83116883116884"/>
      <point x="894.3734968034006" y="297.55185089854285"/>
      <point x="911.3746235305547" y="466.0" type="qcurve" smooth="yes"/>
      <point x="912.3106965899154" y="476.0" type="line"/>
      <point x="1023.6192072282133" y="476.0" type="line"/>
      <point x="1022.6831341688526" y="466.0" type="line" smooth="yes"/>
      <point x="1003.961672981638" y="263.755221995531"/>
      <point x="790.237005732051" y="-20.0"/>
      <point x="571.4933449917419" y="-20.0" type="qcurve" smooth="yes"/>
      <point x="348.4179539492859" y="-20.0"/>
      <point x="73.0" y="356.15602836879435"/>
    </contour>
  </outline>
</glyph>
<glyph name="D" format="2">
  <advance width="1058.1052171378608"/>
  <unicode hex="0044"/>
  <anchor x="482.56970756825024" y="0.0" name="bottom"/>
  <anchor x="192.1682696978529" y="728.0" name="center"/>
  <anchor x="481.26119692995235" y="1456.0" name="top"/>
  <outline>
    <contour>
      <point x="106.0" y="0.0" type="line"/>
      <point x="106.0" y="1456.0" type="line"/>
      <point x="442.6053142912659" y="1456.0" type="line" smooth="yes"/>
      <point x="688.5607694549693" y="1456.0"/>
      <point x="985.9775575633926" y="1078.3351754628352"/>
      <point x="985.9775575633926" y="774.0" type="qcurve" smooth="yes"/>
      <point x="985.9775575633926" y="682.0" type="line" smooth="yes"/>
      <point x="985.9775575633926" y="370.0"/>
      <point x="688.9038200214242" y="0.0"/>
      <point x="442.6053142912659" y="0.0" type="qcurve" smooth="yes"/>
    </contour>
    <contour>
      <point x="217.3085106382979" y="99.16883116883116" type="line"/>
      <point x="442.6053142912659" y="99.16883116883116" type="line" smooth="yes"/>
      <point x="644.2974212710442" y="99.16883116883116"/>
      <point x="873.5413873506267" y="411.84415584415586"/>
      <point x="873.5413873506267" y="677.3246753246754" type="qcurve" smooth="yes"/>
      <point x="873.5413873506267" y="778.6753246753246" type="line" smooth="yes"/>
      <point x="873.5413873506267" y="1037.0031776733904"/>
      <point x="644.204301624733" y="1356.8311688311687"/>
      <point x="442.6053142912659" y="1356.8311688311687" type="qcurve" smooth="yes"/>
      <point x="217.3085106382979" y="1356.8311688311687" type="line"/>
    </contour>
  </outline>
</glyph>
<glyph name="E" format="2">
  <advance width="898.5501214417563"/>
  <unicode hex="0045"/>
  <anchor x="463.5546973671427" y="0.0" name="bottom"/>
  <anchor x="869.888419314097" y="0.0" name="ogonek"/>
  <anchor x="472.01214417565336" y="1456.0" name="top"/>
  <anchor x="-172.6410667443894" y="1074.0" name="tonos"/>
  <outline>
    <contour>
      <point x="106.0" y="0.0" type="line"/>
      <point x="106.0" y="1456.0" type="line"/>
      <point x="844.1336830855921" y="1456.0" type="line"/>
      <point x="844.1336830855921" y="1356.8311688311687" type="line"/>
      <point x="217.3085106382979" y="1356.8311688311687" type="line"/>
      <point x="217.3085106382979" y="99.16883116883116" type="line"/>
      <point x="853.7501214417565" y="99.16883116883116" type="line"/>
      <point x="853.7501214417565" y="0.0" type="line"/>
    </contour>
    <contour>
      <point x="165.25531914893617" y="702.3896103896104" type="line"/>
      <point x="165.25531914893617" y="801.5584415584416" type="line"/>
      <point x="755.4578839988342" y="801.5584415584416" type="line"/>
      <point x="755.4578839988342" y="702.3896103896104" type="line"/>
    </contour>
  </outline>
</glyph>
<glyph name="F" format="2">
  <advance width="841.7215972019819"/>
  <unicode hex="0046"/>
  <anchor x="371.9709511318372" y="0.0" name="bottom"/>
  <anchor x="423.88584474885846" y="1457.0" name="top"/>
  <outline>
    <contour>
      <point x="106.0" y="0.0" type="line"/>
      <point x="106.0" y="1456.0" type="line"/>
      <point x="802.921597201982" y="1456.0" type="line"/>
      <point x="802.921597201982" y="1356.8311688311687" type="line"/>
      <point x="217.3085106382979" y="1356.8311688311687" type="line"/>
      <point x="217.3085106382979" y="0.0" type="line"/>
    </contour>
    <contour>
      <point x="165.25531914893617" y="673.3896103896104" type="line"/>
      <point x="165.25531914893617" y="772.5584415584416" type="line"/>
      <point x="724.5987078597105" y="772.5584415584416" type="line"/>
      <point x="724.5987078597105" y="673.3896103896104" type="line"/>
    </contour>
  </outline>
</glyph>
<glyph name="G" format="2">
  <advance width="1109.6247158262897"/>
  <unicode hex="0047"/>
  <anchor x="584.7794131934323" y="0.0" name="bottom"/>
  <anchor x="581.2900514913048" y="1456.0" name="top"/>
  <outline>
    <contour>
      <point x="73.0" y="692.0" type="qcurve" smooth="yes"/>
      <point x="73.0" y="764.0" type="line" smooth="yes"/>
      <point x="73.0" y="1101.5886524822695"/>
      <point x="348.1735645584378" y="1476.0"/>
      <point x="583.2261245506655" y="1476.0" type="qcurve" smooth="yes"/>
      <point x="790.237005732051" y="1476.0"/>
      <point x="1019.495870980278" y="1209.7554163023415"/>
      <point x="1028.160983192461" y="1030.563829787234" type="qcurve" smooth="yes"/>
      <point x="1028.2712756494452" y="1020.0" type="line"/>
      <point x="917.3523754007579" y="1020.0" type="line"/>
      <point x="917.3523754007579" y="1030.0" type="line" smooth="yes"/>
      <point x="917.3523754007579" y="1159.34332688588"/>
      <point x="741.1492780997298" y="1373.1688311688313"/>
      <point x="581.2261245506655" y="1373.1688311688313" type="qcurve" smooth="yes"/>
      <point x="398.4648210043138" y="1373.1688311688313"/>
      <point x="185.43617021276594" y="1048.1450676982593"/>
      <point x="185.43617021276594" y="764.0" type="qcurve" smooth="yes"/>
      <point x="185.43617021276594" y="692.0" type="line" smooth="yes"/>
      <point x="185.43617021276594" y="407.85493230174086"/>
      <point x="399.5815508206939" y="82.83116883116884"/>
      <point x="599.2032935004372" y="82.83116883116884" type="qcurve" smooth="yes"/>
      <point x="702.6188186145924" y="82.83116883116884"/>
      <point x="852.9019236374236" y="154.87113799442565"/>
      <point x="920.2991839113961" y="213.8961038961039" type="qcurve"/>
      <point x="920.2991839113961" y="638.8311688311688" type="line"/>
      <point x="580.2261245506655" y="638.8311688311688" type="line"/>
      <point x="580.2261245506655" y="737.6666666666666" type="line"/>
      <point x="1028.2247158262896" y="737.6666666666666" type="line"/>
      <point x="1028.2247158262896" y="170.0" type="line"/>
      <point x="964.3160400272029" y="100.0"/>
      <point x="747.6612746526765" y="-20.0"/>
      <point x="600.2261245506655" y="-20.0" type="qcurve" smooth="yes"/>
      <point x="349.0985135529" y="-20.0"/>
      <point x="73.0" y="352.6666666666667"/>
    </contour>
  </outline>
</glyph>
<glyph name="H" format="2">
  <advance width="1123.6124550665502"/>
  <unicode hex="0048"/>
  <anchor x="561.8062275332751" y="0.0" name="bottom"/>
  <anchor x="561.7423005926358" y="1100.0" name="center"/>
  <anchor x="561.8062275332751" y="1456.0" name="top"/>
  <anchor x="963.3039444282522" y="0.0" name="cy_descender"/>
  <anchor x="-132.51340716992132" y="1074.0" name="tonos"/>
  <outline>
    <contour>
      <point x="106.0" y="0.0" type="line"/>
      <point x="106.0" y="1456.0" type="line"/>
      <point x="217.3085106382979" y="1456.0" type="line"/>
      <point x="217.3085106382979" y="0.0" type="line"/>
    </contour>
    <contour>
      <point x="162.91765681127382" y="704.7272727272727" type="line"/>
      <point x="162.91765681127382" y="803.8961038961039" type="line"/>
      <point x="962.4369922315128" y="803.8961038961039" type="line"/>
      <point x="962.4369922315128" y="704.7272727272727" type="line"/>
    </contour>
    <contour>
      <point x="906.3039444282522" y="0.0" type="line"/>
      <point x="906.3039444282522" y="1456.0" type="line"/>
      <point x="1017.6124550665502" y="1456.0" type="line"/>
      <point x="1017.6124550665502" y="0.0" type="line"/>
    </contour>
  </outline>
</glyph>
<glyph name="I" format="2">
  <advance width="329.3085106382979"/>
  <unicode hex="0049"/>
  <anchor x="164.87234042553192" y="0.0" name="bottom"/>
  <anchor x="185.04255319148936" y="0.0" name="ogonek"/>
  <anchor x="164.87234042553192" y="1456.0" name="top"/>
  <anchor x="-134.51340716992132" y="1074.0" name="tonos"/>
  <anchor x="164.87234042553192" y="750.0" name="yu_dash"/>
  <outline>
    <contour>
      <point x="109.0" y="0.0" type="line"/>
      <point x="109.0" y="1456.0" type="line"/>
      <point x="220.3085106382979" y="1456.0" type="line"/>
      <point x="220.3085106382979" y="0.0" type="line"/>
    </contour>
  </outline>
</glyph>
<glyph name="J" format="2">
  <advance width="842.2699893131255"/>
  <unicode hex="004A"/>
  <anchor x="414.628679685223" y="0.0" name="bottom"/>
  <anchor x="691.8971631205674" y="1456.0" name="top"/>
  <outline>
    <contour>
      <point x="19.0" y="410.0" type="qcurve" smooth="yes"/>
      <point x="19.0" y="420.0" type="line"/>
      <point x="130.3085106382979" y="420.0" type="line"/>
      <point x="130.3085106382979" y="410.0" type="line" smooth="yes"/>
      <point x="130.3085106382979" y="254.67532467532467"/>
      <point x="261.9511009247238" y="82.83116883116884"/>
      <point x="382.13499465656275" y="82.83116883116884" type="qcurve" smooth="yes"/>
      <point x="502.70849877801203" y="82.83116883116884"/>
      <point x="634.0254056154669" y="269.67532467532465"/>
      <point x="633.9614786748276" y="435.0" type="qcurve" smooth="yes"/>
      <point x="633.9614786748276" y="1456.0" type="line"/>
      <point x="745.2699893131255" y="1456.0" type="line"/>
      <point x="745.2699893131255" y="435.0" type="line" smooth="yes"/>
      <point x="745.2699893131255" y="225.0"/>
      <point x="551.8724861556398" y="-20.0"/>
      <point x="382.13499465656275" y="-20.0" type="qcurve" smooth="yes"/>
      <point x="212.65321092004274" y="-20.0"/>
      <point x="19.0" y="210.43617021276594"/>
    </contour>
  </outline>
</glyph>
<glyph name="K" format="2">
  <advance width="1019.9157679976684"/>
  <unicode hex="004B"/>
  <anchor x="456.1585057806276" y="0.0" name="bottom"/>
  <anchor x="456.1585057806276" y="1456.0" name="top"/>
  <outline>
    <contour>
      <point x="106.0" y="0.0" type="line"/>
      <point x="106.0" y="1456.0" type="line"/>
      <point x="217.3085106382979" y="1456.0" type="line"/>
      <point x="217.3085106382979" y="0.0" type="line"/>
    </contour>
    <contour>
      <point x="862.5453706402409" y="0.0" type="line"/>
      <point x="379.7415486000446" y="808.8231555678364" type="line"/>
      <point x="451.88385310405135" y="888.4284465170504" type="line"/>
      <point x="998.2561935295832" y="0.0" type="line"/>
    </contour>
    <contour>
      <point x="163.43617021276594" y="440.8051948051948" type="line"/>
      <point x="163.43617021276594" y="598.2267686651248" type="line"/>
      <point x="818.7191888069183" y="1456.0" type="line"/>
      <point x="961.9182637046235" y="1456.0" type="line"/>
    </contour>
  </outline>
</glyph>
<glyph name="L" format="2">
  <advance width="829.9028660254542"/>
  <unicode hex="004C"/>
  <anchor x="458.8207519673564" y="0.0" name="bottom"/>
  <anchor x="632.9869814436996" y="728.0" name="center"/>
  <anchor x="172.77693578159915" y="1456.0" name="top"/>
  <anchor x="521.7312736811425" y="1052.0" name="topright"/>
  <outline>
    <contour>
      <point x="106.0" y="0.0" type="line"/>
      <point x="106.0" y="1456.0" type="line"/>
      <point x="217.3085106382979" y="1456.0" type="line"/>
      <point x="217.3085106382979" y="99.16883116883116" type="line"/>
      <point x="793.5028660254542" y="99.16883116883116" type="line"/>
      <point x="793.5028660254542" y="0.0" type="line"/>
    </contour>
  </outline>
</glyph>
<glyph name="M" format="2">
  <advance width="1360.4701253278927"/>
  <unicode hex="004D"/>
  <anchor x="680.2030991936267" y="0.0" name="bottom"/>
  <anchor x="680.2030991936267" y="1456.0" name="top"/>
  <outline>
    <contour>
      <point x="106.0" y="0.0" type="line"/>
      <point x="106.0" y="1456.0" type="line"/>
      <point x="250.8007869425823" y="1456.0" type="line"/>
      <point x="639.9410278830272" y="265.9148936170213" type="line" smooth="yes"/>
      <point x="649.8653939570582" y="235.41479646361606"/>
      <point x="668.7145147187408" y="170.91489361702128"/>
      <point x="676.2030991936267" y="140.91489361702128" type="qcurve"/>
      <point x="684.2030991936267" y="140.91489361702128" type="line"/>
      <point x="691.6916836685125" y="170.91489361702128"/>
      <point x="710.9769746429613" y="236.65938016127467"/>
      <point x="720.9013407169922" y="267.2234042553191" type="qcurve" smooth="yes"/>
      <point x="1109.6693383853103" y="1456.0" type="line"/>
      <point x="1254.4701253278927" y="1456.0" type="line"/>
      <point x="1254.4701253278927" y="0.0" type="line"/>
      <point x="1146.5445934129991" y="0.0" type="line"/>
      <point x="1146.5445934129991" y="1160.787234042553" type="line" smooth="yes"/>
      <point x="1146.5445934129991" y="1190.787234042553"/>
      <point x="1147.6722529874673" y="1254.4468085106382"/>
      <point x="1149.9275721364033" y="1284.0106382978724" type="qcurve"/>
      <point x="1141.9275721364033" y="1284.0106382978724" type="line"/>
      <point x="1136.3637423491693" y="1257.063829787234"/>
      <point x="1117.503886136209" y="1192.5958418342564"/>
      <point x="1107.515593121539" y="1162.095744680851" type="qcurve" smooth="yes"/>
      <point x="727.181822597882" y="0.0" type="line"/>
      <point x="630.9690566404353" y="0.0" type="line"/>
      <point x="254.62474497231125" y="1150.3191489361702" type="line" smooth="yes"/>
      <point x="244.2642086855144" y="1181.2554163023415"/>
      <point x="222.7234042553191" y="1254.8829787234042"/>
      <point x="216.28723404255322" y="1284.8829787234042" type="qcurve"/>
      <point x="208.28723404255322" y="1284.8829787234042" type="line"/>
      <point x="210.54255319148933" y="1254.4468085106382"/>
      <point x="211.67021276595744" y="1179.8829787234042"/>
      <point x="211.67021276595744" y="1149.8829787234042" type="qcurve" smooth="yes"/>
      <point x="211.67021276595744" y="0.0" type="line"/>
    </contour>
  </outline>
</glyph>
<glyph name="N" format="2">
  <advance width="1103.059457883999"/>
  <unicode hex="004E"/>
  <anchor x="556.6472359856213" y="0.0" name="bottom"/>
  <anchor x="556.6472359856213" y="1456.0" name="top"/>
  <anchor x="955.9637132031478" y="0.0" name="engtail"/>
  <outline>
    <contour>
      <point x="106.0" y="0.0" type="line"/>
      <point x="106.0" y="1456.0" type="line"/>
      <point x="225.74468085106383" y="1456.0" type="line"/>
      <point x="825.2679005149131" y="299.04255319148933" type="line" smooth="yes"/>
      <point x="841.8724375789371" y="267.78665112212184"/>
      <point x="870.7733896823083" y="209.04255319148936"/>
      <point x="882.0701933352764" y="184.04255319148936" type="qcurve"/>
      <point x="889.1339259691052" y="184.04255319148936" type="line"/>
      <point x="888.5700961818712" y="214.04255319148936"/>
      <point x="888.0062663946371" y="289.04255319148933"/>
      <point x="888.0062663946371" y="319.04255319148933" type="qcurve" smooth="yes"/>
      <point x="888.0062663946371" y="1456.0" type="line"/>
      <point x="997.0594578839989" y="1456.0" type="line"/>
      <point x="997.0594578839989" y="0.0" type="line"/>
      <point x="876.8786068201691" y="0.0" type="line"/>
      <point x="277.4193140969591" y="1156.9574468085107" type="line" smooth="yes"/>
      <point x="260.814777032935" y="1188.2133488778784"/>
      <point x="232.34980083551926" y="1246.9574468085107"/>
      <point x="220.05319148936167" y="1271.9574468085107" type="qcurve"/>
      <point x="213.05319148936167" y="1271.9574468085107" type="line"/>
      <point x="214.05319148936167" y="1241.9574468085107"/>
      <point x="215.05319148936167" y="1166.9574468085107"/>
      <point x="215.05319148936167" y="1136.9574468085107" type="qcurve" smooth="yes"/>
      <point x="215.05319148936167" y="0.0" type="line"/>
    </contour>
  </outline>
</glyph>
<glyph name="O" format="2">
  <advance width="1160.9636646264453"/>
  <unicode hex="004F"/>
  <anchor x="580.4818323132226" y="0.0" name="bottom"/>
  <anchor x="580.4818323132226" y="728.0" name="center"/>
  <anchor x="745.8549985426988" y="0.0" name="ogonek"/>
  <anchor x="580.4818323132226" y="1456.0" name="top"/>
  <anchor x="743.1110949188769" y="1456.0" name="topright"/>
  <anchor x="-29.915962304478775" y="1074.0" name="tonos"/>
  <anchor x="178.31030797629458" y="750.0" name="yu_dash"/>
  <outline>
    <contour>
      <point x="73.0" y="689.0" type="qcurve" smooth="yes"/>
      <point x="73.0" y="766.6666666666666" type="line" smooth="yes"/>
      <point x="73.0" y="1101.3333333333333"/>
      <point x="351.9712425920529" y="1476.0"/>
      <point x="580.4818323132226" y="1476.0" type="qcurve" smooth="yes"/>
      <point x="808.9924220343923" y="1476.0"/>
      <point x="1087.9636646264453" y="1101.3333333333333"/>
      <point x="1087.9636646264453" y="766.6666666666666" type="qcurve" smooth="yes"/>
      <point x="1087.9636646264453" y="689.0" type="line" smooth="yes"/>
      <point x="1087.9636646264453" y="354.3333333333333"/>
      <point x="808.9924220343923" y="-20.0"/>
      <point x="580.4818323132226" y="-20.0" type="qcurve" smooth="yes"/>
      <point x="351.9712425920529" y="-20.0"/>
      <point x="73.0" y="354.3333333333333"/>
    </contour>
    <contour>
      <point x="185.43617021276594" y="690.6666666666666" type="line" smooth="yes"/>
      <point x="185.43617021276594" y="406.6492585428756"/>
      <point x="402.4887787816963" y="82.83116883116884"/>
      <point x="580.4818323132226" y="82.83116883116884" type="qcurve" smooth="yes"/>
      <point x="758.4109589041096" y="82.83116883116884"/>
      <point x="975.5274944136793" y="406.6492585428756"/>
      <point x="975.5274944136793" y="690.6666666666666" type="qcurve" smooth="yes"/>
      <point x="975.5274944136793" y="764.6666666666666" type="line" smooth="yes"/>
      <point x="975.5274944136793" y="1050.2230818826563"/>
      <point x="758.4109589041096" y="1373.1688311688313"/>
      <point x="580.4818323132226" y="1373.1688311688313" type="qcurve" smooth="yes"/>
      <point x="402.4887787816963" y="1373.1688311688313"/>
      <point x="185.43617021276594" y="1050.2230818826563"/>
      <point x="185.43617021276594" y="764.6666666666666" type="qcurve" smooth="yes"/>
    </contour>
  </outline>
</glyph>
<glyph name="P" format="2">
  <advance width="923.0736422811619"/>
  <unicode hex="0050"/>
  <anchor x="440.6053142912659" y="0.0" name="bottom"/>
  <anchor x="440.6053142912659" y="1456.0" name="top"/>
  <outline>
    <contour>
      <point x="106.0" y="0.0" type="line"/>
      <point x="106.0" y="1456.0" type="line"/>
      <point x="489.72860196249883" y="1456.0" type="line" smooth="yes"/>
      <point x="692.6308656368406" y="1456.0"/>
      <point x="888.4343728747693" y="1215.436170212766"/>
      <point x="888.4343728747693" y="1015.0" type="qcurve" smooth="yes"/>
      <point x="888.4343728747693" y="815.0"/>
      <point x="692.1946954240746" y="570.0"/>
      <point x="489.72860196249883" y="570.0" type="qcurve" smooth="yes"/>
      <point x="164.81914893617022" y="570.0" type="line"/>
      <point x="164.81914893617022" y="669.1688311688312" type="line"/>
      <point x="489.72860196249883" y="669.1688311688312" type="line" smooth="yes"/>
      <point x="649.8899018498262" y="669.1688311688312"/>
      <point x="777.1258622364714" y="865.7326609560652"/>
      <point x="777.1258622364714" y="1015.0" type="qcurve" smooth="yes"/>
      <point x="777.1258622364714" y="1164.6103896103896"/>
      <point x="650.2329524162809" y="1356.8311688311687"/>
      <point x="489.72860196249883" y="1356.8311688311687" type="qcurve" smooth="yes"/>
      <point x="217.3085106382979" y="1356.8311688311687" type="line"/>
      <point x="217.3085106382979" y="0.0" type="line"/>
    </contour>
  </outline>
</glyph>
<glyph name="Q" format="2">
  <advance width="1160.9636646264453"/>
  <unicode hex="0051"/>
  <anchor x="580.4818323132226" y="0.0" name="bottom"/>
  <anchor x="580.4818323132226" y="1456.0" name="top"/>
  <outline>
    <contour>
      <point x="73.0" y="692.0" type="qcurve" smooth="yes"/>
      <point x="73.0" y="764.0" type="line" smooth="yes"/>
      <point x="73.0" y="1100.0"/>
      <point x="351.9712425920529" y="1476.0"/>
      <point x="580.4818323132226" y="1476.0" type="qcurve" smooth="yes"/>
      <point x="808.9924220343923" y="1476.0"/>
      <point x="1087.9636646264453" y="1100.0"/>
      <point x="1087.9636646264453" y="764.0" type="qcurve" smooth="yes"/>
      <point x="1087.9636646264453" y="692.0" type="line" smooth="yes"/>
      <point x="1087.9636646264453" y="356.0"/>
      <point x="808.9924220343923" y="-20.0"/>
      <point x="580.4818323132226" y="-20.0" type="qcurve" smooth="yes"/>
      <point x="351.9712425920529" y="-20.0"/>
      <point x="73.0" y="356.0"/>
    </contour>
    <contour>
      <point x="185.43617021276594" y="692.0" type="line" smooth="yes"/>
      <point x="185.43617021276594" y="406.9825918762089"/>
      <point x="402.4887787816963" y="82.83116883116884"/>
      <point x="580.4818323132226" y="82.83116883116884" type="qcurve" smooth="yes"/>
      <point x="758.4109589041096" y="82.83116883116884"/>
      <point x="975.5274944136793" y="406.9825918762089"/>
      <point x="975.5274944136793" y="692.0" type="qcurve" smooth="yes"/>
      <point x="975.5274944136793" y="764.0" type="line" smooth="yes"/>
      <point x="975.5274944136793" y="1049.889748549323"/>
      <point x="758.4109589041096" y="1373.1688311688313"/>
      <point x="580.4818323132226" y="1373.1688311688313" type="qcurve" smooth="yes"/>
      <point x="402.4887787816963" y="1373.1688311688313"/>
      <point x="185.43617021276594" y="1049.889748549323"/>
      <point x="185.43617021276594" y="764.0" type="qcurve" smooth="yes"/>
    </contour>
    <contour>
      <point x="976.1318857475953" y="-213.00014573010785" type="line"/>
      <point x="690.3897239455385" y="15.491295938104447" type="line"/>
      <point x="762.6131282008577" y="88.15087040618955" type="line"/>
      <point x="1051.174438939085" y="-137.5214223258525" type="line"/>
    </contour>
  </outline>
</glyph>
<glyph name="R" format="2">
  <advance width="969.1495016030312"/>
  <unicode hex="0052"/>
  <anchor x="464.2915398814729" y="0.0" name="bottom"/>
  <anchor x="464.2915398814729" y="1456.0" name="top"/>
  <outline>
    <contour>
      <point x="110.24" y="0.0" type="line"/>
      <point x="110.24" y="1456.0" type="line"/>
      <point x="486.48001748761294" y="1456.0" type="line" smooth="yes"/>
      <point x="676.5766851258137" y="1456.0"/>
      <point x="875.8250578062762" y="1222.0"/>
      <point x="875.8250578062762" y="1028.0" type="qcurve" smooth="yes"/>
      <point x="875.8250578062762" y="834.0"/>
      <point x="677.0128553385796" y="593.6103896103896"/>
      <point x="486.48001748761294" y="594.0" type="qcurve" smooth="yes"/>
      <point x="163.85702127659573" y="594.0" type="line"/>
      <point x="163.85702127659573" y="691.9480519480519" type="line"/>
      <point x="486.48001748761294" y="691.9480519480519" type="line" smooth="yes"/>
      <point x="636.023717593977" y="691.9480519480519"/>
      <point x="764.5165471679783" y="884.8498203923737"/>
      <point x="764.5165471679783" y="1028.0" type="qcurve" smooth="yes"/>
      <point x="764.5165471679783" y="1171.7897209173805"/>
      <point x="635.2910566379118" y="1357.6623376623377"/>
      <point x="486.48001748761294" y="1358.051948051948" type="qcurve" smooth="yes"/>
      <point x="221.54851063829787" y="1358.051948051948" type="line"/>
      <point x="221.54851063829787" y="0.0" type="line"/>
    </contour>
    <contour>
      <point x="817.0005654328185" y="0.0" type="line"/>
      <point x="498.0644330720285" y="643.5584415584416" type="line"/>
      <point x="604.2057893840348" y="666.0533195552141" type="line"/>
      <point x="941.1495016030312" y="0.0" type="line"/>
    </contour>
  </outline>
</glyph>
<glyph name="S" format="2">
  <advance width="958.7039735742737"/>
  <unicode hex="0053"/>
  <anchor x="481.27751870203053" y="0.0" name="bottom"/>
  <anchor x="476.915816574371" y="1456.0" name="top"/>
  <outline>
    <contour>
      <point x="58.0" y="408.0" type="qcurve" smooth="yes"/>
      <point x="58.0" y="420.0" type="line"/>
      <point x="169.3085106382979" y="420.0" type="line"/>
      <point x="169.3085106382979" y="408.0" type="line" smooth="yes"/>
      <point x="169.3085106382979" y="253.4025974025974"/>
      <point x="336.37700378898285" y="82.83116883116884"/>
      <point x="486.78796269309237" y="82.83116883116884" type="qcurve" smooth="yes"/>
      <point x="637.6350918099679" y="82.83116883116884"/>
      <point x="796.523122510444" y="249.17421939762366"/>
      <point x="796.523122510444" y="386.0744680851064" type="qcurve" smooth="yes"/>
      <point x="796.523122510444" y="512.6808510638298"/>
      <point x="629.924608957544" y="658.1065772855338"/>
      <point x="436.5349752258817" y="707.8723404255319" type="qcurve" smooth="yes"/>
      <point x="233.6569513261439" y="759.9325269600699"/>
      <point x="85.72126688040416" y="939.3026328572817"/>
      <point x="85.72126688040416" y="1080.0" type="qcurve" smooth="yes"/>
      <point x="85.72126688040416" y="1252.1808510638298"/>
      <point x="286.340911298941" y="1476.0"/>
      <point x="476.915816574371" y="1476.0" type="qcurve" smooth="yes"/>
      <point x="669.118867191295" y="1476.0"/>
      <point x="879.4937336053629" y="1238.0"/>
      <point x="879.4937336053629" y="1054.0" type="qcurve" smooth="yes"/>
      <point x="879.4937336053629" y="1042.0" type="line"/>
      <point x="768.185222967065" y="1042.0" type="line"/>
      <point x="768.185222967065" y="1054.0" type="line" smooth="yes"/>
      <point x="768.185222967065" y="1195.3246753246754"/>
      <point x="622.0999475119265" y="1373.1688311688313"/>
      <point x="476.915816574371" y="1373.1688311688313" type="qcurve" smooth="yes"/>
      <point x="332.12129602642574" y="1373.1688311688313"/>
      <point x="195.26284853784128" y="1213.3766233766235"/>
      <point x="195.26284853784128" y="1085.0" type="qcurve" smooth="yes"/>
      <point x="195.26284853784128" y="981.7127659574468"/>
      <point x="315.7761585543573" y="850.4293694744001"/>
      <point x="515.6519965024775" y="799.5744680851063" type="qcurve" smooth="yes"/>
      <point x="712.0412416205188" y="749.6808510638298"/>
      <point x="906.7039735742737" y="559.0957446808511"/>
      <point x="906.7039735742737" y="386.0744680851064" type="qcurve" smooth="yes"/>
      <point x="906.7039735742737" y="203.89361702127658"/>
      <point x="685.9791120178762" y="-20.0"/>
      <point x="486.78796269309237" y="-20.0" type="qcurve" smooth="yes"/>
      <point x="287.90512969979596" y="-20.0"/>
      <point x="58.0" y="210.43617021276594"/>
    </contour>
  </outline>
</glyph>
<glyph name="T" format="2">
  <advance width="958.1114738171573"/>
  <unicode hex="0054"/>
  <anchor x="479.0031283396483" y="0.0" name="bottom"/>
  <anchor x="479.0031283396483" y="728.0" name="center"/>
  <anchor x="479.0031283396483" y="1456.0" name="top"/>
  <anchor x="478.6195666958127" y="0.0" name="cy_descender"/>
  <outline>
    <contour>
      <point x="423.18339648304675" y="0.0" type="line"/>
      <point x="423.18339648304675" y="1407.2207792207791" type="line"/>
      <point x="534.4919071213446" y="1407.2207792207791" type="line"/>
      <point x="534.4919071213446" y="0.0" type="line"/>
    </contour>
    <contour>
      <point x="18.4" y="1356.8311688311687" type="line"/>
      <point x="18.4" y="1456.0" type="line"/>
      <point x="939.7114738171573" y="1456.0" type="line"/>
      <point x="939.7114738171573" y="1356.8311688311687" type="line"/>
    </contour>
  </outline>
</glyph>
<glyph name="U" format="2">
  <advance width="1045.7037792674635"/>
  <unicode hex="0055"/>
  <anchor x="522.8518896337317" y="0.0" name="bottom"/>
  <anchor x="683.9914019236375" y="0.0" name="ogonek"/>
  <anchor x="522.8518896337317" y="1456.0" name="top"/>
  <anchor x="894.9589041095891" y="1456.0" name="topright"/>
  <outline>
    <contour>
      <point x="97.0" y="480.0" type="qcurve" smooth="yes"/>
      <point x="97.0" y="1456.0" type="line"/>
      <point x="208.3085106382979" y="1456.0" type="line"/>
      <point x="208.3085106382979" y="480.0" type="line" smooth="yes"/>
      <point x="208.3085106382979" y="281.46532191213043"/>
      <point x="381.0863674846479" y="82.83116883116884"/>
      <point x="522.5961818711746" y="82.83116883116884" type="qcurve" smooth="yes"/>
      <point x="663.3267754784805" y="82.83116883116884"/>
      <point x="837.523122510444" y="279.9068803536889"/>
      <point x="837.3952686291655" y="480.0" type="qcurve" smooth="yes"/>
      <point x="837.3952686291655" y="1456.0" type="line"/>
      <point x="948.7037792674633" y="1456.0" type="line"/>
      <point x="948.7037792674633" y="480.0" type="line" smooth="yes"/>
      <point x="948.7037792674633" y="230.0"/>
      <point x="707.1831827455552" y="-20.0"/>
      <point x="522.5961818711746" y="-20.0" type="qcurve" smooth="yes"/>
      <point x="338.009180996794" y="-20.0"/>
      <point x="97.0" y="230.0"/>
    </contour>
  </outline>
</glyph>
<glyph name="V" format="2">
  <advance width="1023.3866705528029"/>
  <unicode hex="0056"/>
  <anchor x="511.9490430389585" y="0.0" name="bottom"/>
  <anchor x="511.9490430389585" y="1456.0" name="top"/>
  <outline>
    <contour>
      <point x="4.0" y="1456.0" type="line"/>
      <point x="121.8187603225493" y="1456.0" type="line"/>
      <point x="474.0586320800544" y="278.89147964636163" type="line" smooth="yes"/>
      <point x="483.9829981540853" y="245.32745555231708"/>
      <point x="505.07728553385795" y="178.04998542698922"/>
      <point x="513.3210920042748" y="147.85820460507142" type="qcurve"/>
      <point x="512.9488487321481" y="147.85820460507142" type="line"/>
      <point x="520.7564849897989" y="179.04998542698922"/>
      <point x="541.3506752161663" y="243.58277470125324"/>
      <point x="552.1473817157291" y="278.89147964636163" type="qcurve" smooth="yes"/>
      <point x="906.0785485281259" y="1456.0" type="line"/>
      <point x="1019.3866705528029" y="1456.0" type="line"/>
      <point x="560.6827941319343" y="-10.0" type="line"/>
      <point x="462.8317303021471" y="-10.0" type="line"/>
    </contour>
  </outline>
</glyph>
<glyph name="W" format="2">
  <advance width="1603.0443991061888"/>
  <unicode hex="0057"/>
  <anchor x="801.0860293403284" y="0.0" name="bottom"/>
  <anchor x="801.0860293403284" y="1456.0" name="top"/>
  <outline>
    <contour>
      <point x="367.8702030506169" y="-10.0" type="line"/>
      <point x="34.0" y="1456.0" type="line"/>
      <point x="145.3085106382979" y="1456.0" type="line"/>
      <point x="406.26450014573015" y="259.36170212765956" type="line" smooth="yes"/>
      <point x="413.753084620616" y="225.23384824638103"/>
      <point x="421.2418634023122" y="184.36170212765956"/>
      <point x="426.4225201593316" y="151.36170212765956" type="qcurve"/>
      <point x="436.4225201593316" y="151.36170212765956" type="line"/>
      <point x="441.91149324783834" y="184.79787234042553"/>
      <point x="450.2086855144273" y="225.29777518702028"/>
      <point x="458.63334304867385" y="259.36170212765956" type="qcurve" smooth="yes"/>
      <point x="744.3413484892645" y="1456.0" type="line"/>
      <point x="858.9583697658603" y="1456.0" type="line"/>
      <point x="1155.2716894977168" y="258.9255319148936" type="line" smooth="yes"/>
      <point x="1163.6963470319636" y="224.86160497425433"/>
      <point x="1171.9935392985524" y="183.9255319148936"/>
      <point x="1177.4825123870592" y="150.9255319148936" type="qcurve"/>
      <point x="1186.4825123870592" y="150.9255319148936" type="line"/>
      <point x="1191.5992422034392" y="183.9255319148936"/>
      <point x="1200.0240940444962" y="224.79767803361509"/>
      <point x="1207.5766054600213" y="258.9255319148936" type="qcurve" smooth="yes"/>
      <point x="1458.8635480423588" y="1456.0" type="line"/>
      <point x="1569.0443991061888" y="1456.0" type="line"/>
      <point x="1239.9720683959974" y="-10.0" type="line"/>
      <point x="1126.3763237151463" y="-10.0" type="line"/>
      <point x="832.2325366754104" y="1179.4787234042553" type="line" smooth="yes"/>
      <point x="823.8078791411639" y="1213.5426503448946"/>
      <point x="810.2664917905373" y="1274.4787234042553"/>
      <point x="805.0860293403284" y="1307.4787234042553" type="qcurve"/>
      <point x="797.0860293403284" y="1307.4787234042553" type="line"/>
      <point x="791.9055668901194" y="1274.4787234042553"/>
      <point x="778.8003497522589" y="1213.5426503448946"/>
      <point x="770.3756922180122" y="1179.4787234042553" type="qcurve" smooth="yes"/>
      <point x="481.46594773146796" y="-10.0" type="line"/>
    </contour>
  </outline>
</glyph>
<glyph name="X" format="2">
  <advance width="946.9629359759059"/>
  <unicode hex="0058"/>
  <anchor x="473.4551637034878" y="0.0" name="bottom"/>
  <anchor x="473.4551637034878" y="1456.0" name="top"/>
  <anchor x="874.0799572525017" y="0.0" name="cy_descender"/>
  <outline>
    <contour>
      <point x="19.0" y="0.0" type="line"/>
      <point x="446.15699990284656" y="806.0" type="line"/>
      <point x="454.0506169241232" y="806.0" type="line"/>
      <point x="783.7206839599728" y="1456.0" type="line"/>
      <point x="906.7419605557175" y="1456.0" type="line"/>
      <point x="492.5187020305061" y="670.0" type="line"/>
      <point x="484.62508500922957" y="670.0" type="line"/>
      <point x="142.02127659574467" y="0.0" type="line"/>
    </contour>
    <contour>
      <point x="39.78480520742252" y="1456.0" type="line"/>
      <point x="165.06140095210338" y="1456.0" type="line"/>
      <point x="494.7314679879529" y="806.0" type="line"/>
      <point x="500.36976586029334" y="806.0" type="line"/>
      <point x="927.9629359759059" y="0.0" type="line"/>
      <point x="802.686340231225" y="0.0" type="line"/>
      <point x="459.64636160497423" y="670.0" type="line"/>
      <point x="454.0080637326338" y="670.0" type="line"/>
    </contour>
  </outline>
</glyph>
<glyph name="Y" format="2">
  <advance width="983.2149519090644"/>
  <unicode hex="0059"/>
  <anchor x="491.2089283979403" y="0.0" name="bottom"/>
  <anchor x="491.2089283979403" y="1456.0" name="top"/>
  <anchor x="-236.6461187214612" y="1074.0" name="tonos"/>
  <outline>
    <contour>
      <point x="435.1448071504906" y="0.0" type="line"/>
      <point x="435.1448071504906" y="544.0" type="line"/>
      <point x="13.0" y="1456.0" type="line"/>
      <point x="137.8404255319149" y="1456.0" type="line"/>
      <point x="442.3945399786263" y="764.9787234042553" type="line" smooth="yes"/>
      <point x="456.0631982901001" y="734.2868454289322"/>
      <point x="477.97566307199065" y="684.9787234042553"/>
      <point x="489.1448071504906" y="653.6170212765958" type="qcurve"/>
      <point x="495.1448071504906" y="653.6170212765958" type="line"/>
      <point x="505.8777810162246" y="684.9787234042553"/>
      <point x="527.7902457981153" y="733.4145050034003"/>
      <point x="541.9590012629943" y="764.9787234042553" type="qcurve" smooth="yes"/>
      <point x="849.8851646750219" y="1456.0" type="line"/>
      <point x="970.2149519090644" y="1456.0" type="line"/>
      <point x="546.4533177887885" y="544.0" type="line"/>
      <point x="546.4533177887885" y="0.0" type="line"/>
    </contour>
  </outline>
</glyph>
<glyph name="Z" format="2">
  <advance width="899.7240648984747"/>
  <unicode hex="005A"/>
  <anchor x="445.3280870494511" y="0.0" name="bottom"/>
  <anchor x="445.3280870494511" y="1456.0" name="top"/>
  <outline>
    <contour>
      <point x="5.987012987012989" y="0.0" type="line"/>
      <point x="5.987012987012989" y="87.30947775628627" type="line"/>
      <point x="732.9708571327633" y="1356.8311688311687" type="line"/>
      <point x="96.2987012987013" y="1356.8311688311687" type="line"/>
      <point x="96.2987012987013" y="1456.0" type="line"/>
      <point x="860.799270970941" y="1456.0" type="line"/>
      <point x="860.799270970941" y="1367.8181818181818" type="line"/>
      <point x="134.9842579940219" y="99.16883116883116" type="line"/>
      <point x="856.1240648984747" y="99.16883116883116" type="line"/>
      <point x="856.1240648984747" y="0.0" type="line"/>
    </contour>
  </outline>
</glyph>
<glyph name="bracketleft" format="2">
  <advance width="524.0467987952977"/>
  <unicode hex="005B"/>
  <outline>
    <contour>
      <point x="90.4" y="-310.0" type="line"/>
      <point x="90.4" y="1456.0" type="line"/>
      <point x="472.0467987952977" y="1456.0" type="line"/>
      <point x="472.0467987952977" y="1355.6103896103896" type="line"/>
      <point x="197.76170212765956" y="1355.6103896103896" type="line"/>
      <point x="197.76170212765956" y="-209.6103896103896" type="line"/>
      <point x="472.0467987952977" y="-209.6103896103896" type="line"/>
      <point x="472.0467987952977" y="-310.0" type="line"/>
    </contour>
  </outline>
</glyph>
<glyph name="backslash" format="2">
  <advance width="531.582434664335"/>
  <unicode hex="005C"/>
  <outline>
    <contour>
      <point x="-49.99028465947731" y="1456.0" type="line"/>
      <point x="52.73311959584183" y="1456.0" type="line"/>
      <point x="631.582434664335" y="-125.0" type="line"/>
      <point x="528.8590304090159" y="-125.0" type="line"/>
    </contour>
  </outline>
</glyph>
<glyph name="bracketright" format="2">
  <advance width="524.0467987952977"/>
  <unicode hex="005D"/>
  <outline>
    <contour>
      <point x="433.64679879529774" y="-310.0" type="line"/>
      <point x="52.0" y="-310.0" type="line"/>
      <point x="52.0" y="-209.6103896103896" type="line"/>
      <point x="326.2850966676382" y="-209.6103896103896" type="line"/>
      <point x="326.2850966676382" y="1355.6103896103896" type="line"/>
      <point x="52.0" y="1355.6103896103896" type="line"/>
      <point x="52.0" y="1456.0" type="line"/>
      <point x="433.64679879529774" y="1456.0" type="line"/>
    </contour>
  </outline>
</glyph>
<glyph name="asciicircum" format="2">
  <advance width="1038.1619547265132"/>
  <unicode hex="005E"/>
  <outline>
    <contour>
      <point x="19.0" y="720.0" type="line"/>
      <point x="470.283105022831" y="1456.0" type="line"/>
      <point x="569.6235305547459" y="1456.0" type="line"/>
      <point x="1019.1619547265132" y="720.0" type="line"/>
      <point x="903.6963956086661" y="720.0" type="line"/>
      <point x="519.9533177887885" y="1358.4787234042553" type="line"/>
      <point x="134.0293889050811" y="720.0" type="line"/>
    </contour>
  </outline>
</glyph>
<glyph name="underscore" format="2">
  <advance width="992.7488584474886"/>
  <unicode hex="005F"/>
  <outline>
    <contour>
      <point x="4.0" y="-344.031914893617" type="line"/>
      <point x="4.0" y="-244.0" type="line"/>
      <point x="988.7488584474886" y="-244.0" type="line"/>
      <point x="988.7488584474886" y="-344.031914893617" type="line"/>
    </contour>
  </outline>
</glyph>
<glyph name="a" format="2">
  <advance width="849.821840085495"/>
  <unicode hex="0061"/>
  <anchor x="401.5593607305936" y="0.0" name="bottom"/>
  <anchor x="764.8154571067715" y="0.0" name="ogonek"/>
  <anchor x="429.03808413484893" y="916.0" name="top"/>
  <outline>
    <contour>
      <point x="341.82958220250555" y="-20.0" type="qcurve" smooth="yes"/>
      <point x="199.90974254347617" y="-20.0"/>
      <point x="58.0" y="133.0"/>
      <point x="58.0" y="276.0" type="qcurve" smooth="yes"/>
      <point x="58.0" y="413.56"/>
      <point x="227.50329932964146" y="573.2"/>
      <point x="417.0122899057612" y="573.2" type="qcurve" smooth="yes"/>
      <point x="689.5494996599631" y="573.2" type="line"/>
      <point x="689.5494996599631" y="489.9012987012987" type="line"/>
      <point x="429.22008211355336" y="489.9012987012987" type="line" smooth="yes"/>
      <point x="289.89081211414646" y="489.9012987012987"/>
      <point x="165.9255319148936" y="380.718961038961"/>
      <point x="165.9255319148936" y="281.63829787234044" type="qcurve" smooth="yes"/>
      <point x="165.9255319148936" y="182.12883116883117"/>
      <point x="268.94420474890893" y="73.06493506493507"/>
      <point x="367.0122899057612" y="73.06493506493507" type="qcurve" smooth="yes"/>
      <point x="469.15310233534075" y="73.06493506493507"/>
      <point x="637.4963081706013" y="203.2831168831169"/>
      <point x="637.4963081706013" y="289.8415584415584" type="qcurve"/>
      <point x="637.4963081706013" y="584.0" type="line" smooth="yes"/>
      <point x="638.0660157136169" y="721.2176015473888"/>
      <point x="545.6972214126105" y="852.9350649350649"/>
      <point x="432.47347712037305" y="852.9350649350649" type="qcurve" smooth="yes"/>
      <point x="332.24154448679656" y="852.9350649350649"/>
      <point x="222.7702807733411" y="766.7194805194806"/>
      <point x="222.7702807733411" y="668.0" type="qcurve" smooth="yes"/>
      <point x="222.7702807733411" y="663.0" type="line"/>
      <point x="116.23962887399205" y="663.0" type="line"/>
      <point x="116.23962887399205" y="668.0" type="line" smooth="yes"/>
      <point x="116.23962887399205" y="805.1476595744681"/>
      <point x="290.93105994365106" y="946.0"/>
      <point x="436.0894492663656" y="946.0" type="qcurve" smooth="yes"/>
      <point x="588.4958709802778" y="946.0"/>
      <point x="745.421840085495" y="778.3936170212766"/>
      <point x="745.421840085495" y="584.0" type="qcurve" smooth="yes"/>
      <point x="745.421840085495" y="240.0" type="line" smooth="yes"/>
      <point x="745.421840085495" y="164.96808510638297"/>
      <point x="764.1133294471971" y="60.87234042553192"/>
      <point x="783.421840085495" y="13.819148936170212" type="qcurve"/>
      <point x="783.421840085495" y="0.0" type="line"/>
      <point x="681.4963081706013" y="0.0" type="line"/>
      <point x="667.7520159331584" y="25.0"/>
      <point x="645.838773924026" y="101.29223744292237"/>
      <point x="641.8038453822481" y="150.64288679357173" type="qcurve"/>
      <point x="616.1017309708653" y="83.7242628643095"/>
      <point x="453.24266586420475" y="-20.0"/>
    </contour>
  </outline>
</glyph>
<glyph name="b" format="2">
  <advance width="892.9611774992712"/>
  <unicode hex="0062"/>
  <anchor x="425.73850189449143" y="0.0" name="bottom"/>
  <anchor x="415.7065870008744" y="1536.0" name="top"/>
  <outline>
    <contour>
      <point x="92.8" y="0.0" type="line"/>
      <point x="92.8" y="1536.0" type="line"/>
      <point x="200.72553191489362" y="1536.0" type="line"/>
      <point x="200.72553191489362" y="135.11243550969579" type="line"/>
      <point x="195.08723404255318" y="135.11243550969579" type="line"/>
      <point x="190.57659574468084" y="0.0" type="line"/>
    </contour>
    <contour>
      <point x="461.8620419122314" y="75.50649350649351" type="qcurve" smooth="yes"/>
      <point x="573.6814885668106" y="75.50649350649351"/>
      <point x="727.7803264354415" y="272.8888311688312"/>
      <point x="727.7803264354415" y="440.4415584415584" type="qcurve" smooth="yes"/>
      <point x="727.7803264354415" y="477.1168831168832" type="line" smooth="yes"/>
      <point x="727.7803264354415" y="651.3395468361426"/>
      <point x="577.1660146789964" y="840.4935064935065"/>
      <point x="461.827307677264" y="840.4935064935065" type="qcurve" smooth="yes"/>
      <point x="329.60874017268077" y="840.4935064935065"/>
      <point x="176.4808510638298" y="636.9280685272174"/>
      <point x="176.4808510638298" y="484.8961038961039" type="qcurve" smooth="yes"/>
      <point x="176.4808510638298" y="453.0" type="line" smooth="yes"/>
      <point x="176.4808510638298" y="282.05043934788614"/>
      <point x="330.15016045452654" y="75.50649350649351"/>
    </contour>
    <contour>
      <point x="485.4166042739928" y="-20.0" type="qcurve" smooth="yes"/>
      <point x="326.0736752376158" y="-20.0"/>
      <point x="135.65106382978723" y="240.8322077922078"/>
      <point x="135.65106382978723" y="452.0" type="qcurve" smooth="yes"/>
      <point x="135.65106382978723" y="486.0" type="line" smooth="yes"/>
      <point x="135.65106382978723" y="677.2250830661615"/>
      <point x="327.0832021762363" y="936.0"/>
      <point x="485.80621466360316" y="936.0" type="qcurve" smooth="yes"/>
      <point x="640.7828601962498" y="936.0"/>
      <point x="837.9611774992712" y="694.0165957446809"/>
      <point x="837.9611774992712" y="474.0" type="qcurve" smooth="yes"/>
      <point x="837.9611774992712" y="442.0" type="line" smooth="yes"/>
      <point x="837.9611774992712" y="230.70680851063827"/>
      <point x="638.9279278945089" y="-20.0"/>
    </contour>
  </outline>
</glyph>
<glyph name="c" format="2">
  <advance width="826.0731759448169"/>
  <unicode hex="0063"/>
  <anchor x="437.98333819100355" y="0.0" name="bottom"/>
  <anchor x="444.9620615952589" y="916.0" name="top"/>
  <outline>
    <contour>
      <point x="55.0" y="442.0" type="qcurve" smooth="yes"/>
      <point x="55.0" y="474.0" type="line" smooth="yes"/>
      <point x="55.0" y="687.52"/>
      <point x="256.47806276109975" y="946.0"/>
      <point x="445.3343048673856" y="946.0" type="qcurve" smooth="yes"/>
      <point x="600.5888448460119" y="946.0"/>
      <point x="780.6731759448169" y="754.603829787234"/>
      <point x="780.6731759448169" y="606.2" type="qcurve" smooth="yes"/>
      <point x="780.6731759448169" y="601.2" type="line"/>
      <point x="676.1306227533275" y="601.2" type="line"/>
      <point x="676.1306227533275" y="606.2" type="line" smooth="yes"/>
      <point x="676.1306227533275" y="711.7501298701299"/>
      <point x="553.0577128321984" y="850.4935064935065"/>
      <point x="445.3343048673856" y="850.4935064935065" type="qcurve" smooth="yes"/>
      <point x="308.0940290274187" y="850.4935064935065"/>
      <point x="165.18085106382978" y="645.9127272727272"/>
      <point x="165.18085106382978" y="474.0" type="qcurve" smooth="yes"/>
      <point x="165.18085106382978" y="442.0" type="line" smooth="yes"/>
      <point x="165.18085106382978" y="270.08727272727276"/>
      <point x="308.48363941702905" y="65.50649350649351"/>
      <point x="445.3343048673856" y="65.50649350649351" type="qcurve" smooth="yes"/>
      <point x="553.0577128321984" y="65.50649350649351"/>
      <point x="676.1306227533275" y="203.86025974025975"/>
      <point x="676.1306227533275" y="309.8" type="qcurve" smooth="yes"/>
      <point x="676.1306227533275" y="314.8" type="line"/>
      <point x="780.6731759448169" y="314.8" type="line"/>
      <point x="780.6731759448169" y="309.8" type="line" smooth="yes"/>
      <point x="780.6731759448169" y="160.96"/>
      <point x="600.5888448460119" y="-30.0"/>
      <point x="444.89813465461964" y="-30.0" type="qcurve" smooth="yes"/>
      <point x="256.47806276109975" y="-30.0"/>
      <point x="55.0" y="228.48"/>
    </contour>
  </outline>
</glyph>
<glyph name="d" format="2">
  <advance width="893.3973477120372"/>
  <unicode hex="0064"/>
  <anchor x="455.97279704653647" y="0.0" name="bottom"/>
  <anchor x="685.2772758185174" y="1313.0" name="center"/>
  <anchor x="438.5259885358982" y="1536.0" name="top"/>
  <anchor x="883.4735256970756" y="1052.0" name="topright"/>
  <outline>
    <contour>
      <point x="692.6718157971437" y="1536.0" type="line"/>
      <point x="800.5973477120373" y="1536.0" type="line"/>
      <point x="800.5973477120373" y="0.0" type="line"/>
      <point x="702.8207519673564" y="0.0" type="line"/>
      <point x="698.3101136694842" y="233.48353249781405" type="line"/>
      <point x="692.6718157971437" y="233.48353249781405" type="line"/>
    </contour>
    <contour>
      <point x="435.54213177282253" y="840.4935064935065" type="qcurve" smooth="yes"/>
      <point x="319.25026091367096" y="840.4935064935065"/>
      <point x="164.79124067421938" y="644.5395468361427"/>
      <point x="164.79124067421938" y="477.1168831168832" type="qcurve" smooth="yes"/>
      <point x="164.79124067421938" y="440.4415584415584" type="line" smooth="yes"/>
      <point x="164.79124067421938" y="279.68883116883114"/>
      <point x="314.4571688993024" y="75.50649350649351"/>
      <point x="434.6350571123232" y="75.50649350649351" type="qcurve" smooth="yes"/>
      <point x="561.4572292605869" y="75.50649350649351"/>
      <point x="716.0907160458311" y="272.2758801909253"/>
      <point x="716.0907160458311" y="436.92990571072767" type="qcurve" smooth="yes"/>
      <point x="716.0907160458311" y="464.54029532111724" type="line" smooth="yes"/>
      <point x="716.0907160458311" y="617.6824123821384"/>
      <point x="565.6888169869574" y="840.4935064935065"/>
    </contour>
    <contour>
      <point x="410.5512048914847" y="936.0" type="qcurve" smooth="yes"/>
      <point x="568.4655805168309" y="936.0"/>
      <point x="756.9205032798737" y="656.9391744736367"/>
      <point x="756.9205032798737" y="464.8599300243136" type="qcurve" smooth="yes"/>
      <point x="756.9205032798737" y="437.0865636840571" type="line" smooth="yes"/>
      <point x="756.9205032798737" y="232.50717956094232"/>
      <point x="565.1269603475315" y="-20.0"/>
      <point x="409.7719841122639" y="-20.0" type="qcurve" smooth="yes"/>
      <point x="249.46066049174763" y="-20.0"/>
      <point x="54.61038961038961" y="237.50680851063828"/>
      <point x="54.61038961038961" y="442.0" type="qcurve" smooth="yes"/>
      <point x="54.61038961038961" y="474.0" type="line" smooth="yes"/>
      <point x="54.61038961038961" y="687.216595744681"/>
      <point x="255.57455935883797" y="936.0"/>
    </contour>
  </outline>
</glyph>
<glyph name="e" format="2">
  <advance width="844.3541241620519"/>
  <unicode hex="0065"/>
  <anchor x="456.57713980375013" y="0.0" name="bottom"/>
  <anchor x="602.4729276358539" y="0.0" name="ogonek"/>
  <anchor x="436.34601185271543" y="916.0" name="top"/>
  <outline>
    <contour>
      <point x="54.56382978723404" y="442.0" type="qcurve" smooth="yes"/>
      <point x="54.56382978723404" y="474.0" type="line" smooth="yes"/>
      <point x="54.56382978723404" y="680.72"/>
      <point x="252.53796560769453" y="946.0"/>
      <point x="433.4204799378218" y="946.0" type="qcurve" smooth="yes"/>
      <point x="605.7091227047508" y="946.0"/>
      <point x="784.9392305450306" y="724.2731914893617"/>
      <point x="786.2477411833285" y="533.8723404255319" type="qcurve" smooth="yes"/>
      <point x="786.2477411833285" y="442.8831168831169" type="line"/>
      <point x="113.18250898038131" y="442.8831168831169" type="line"/>
      <point x="113.18250898038131" y="535.9480519480519" type="line"/>
      <point x="677.5665986592829" y="535.9480519480519" type="line"/>
      <point x="677.5665986592829" y="574.4" type="line" smooth="yes"/>
      <point x="677.5665986592829" y="692.4535064935066"/>
      <point x="563.2645408996908" y="850.4935064935065"/>
      <point x="437.7282543551853" y="850.4935064935065" type="qcurve" smooth="yes"/>
      <point x="307.17037023017787" y="850.4935064935065"/>
      <point x="164.74468085106383" y="638.7231168831169"/>
      <point x="164.74468085106383" y="474.0" type="qcurve" smooth="yes"/>
      <point x="164.74468085106383" y="442.0" type="line" smooth="yes"/>
      <point x="164.74468085106383" y="275.32883116883113"/>
      <point x="312.52700665311573" y="65.50649350649351"/>
      <point x="453.6465369857967" y="65.50649350649351" type="qcurve" smooth="yes"/>
      <point x="553.2198039015293" y="65.50649350649351"/>
      <point x="678.4465593184626" y="184.28571428571428"/>
      <point x="713.6034197998639" y="270.0" type="qcurve"/>
      <point x="786.5649470513941" y="215.56382978723406" type="line"/>
      <point x="748.7177693578159" y="116.13829787234043"/>
      <point x="583.9696206348785" y="-30.0"/>
      <point x="453.7104639264359" y="-30.0" type="qcurve" smooth="yes"/>
      <point x="262.968178373652" y="-30.0"/>
      <point x="54.56382978723404" y="232.22680851063828"/>
    </contour>
  </outline>
</glyph>
<glyph name="f" format="2">
  <advance width="502.9914505003401"/>
  <unicode hex="0066"/>
  <anchor x="243.82114058097736" y="0.0" name="bottom"/>
  <anchor x="248.1828427086369" y="1536.0" name="top"/>
  <outline>
    <contour>
      <point x="181.6255707762557" y="0.0" type="line"/>
      <point x="181.6255707762557" y="1211.776595744681" type="line" smooth="yes"/>
      <point x="181.6255707762557" y="1391.4468085106382"/>
      <point x="327.08296900806374" y="1556.0"/>
      <point x="450.5977363256583" y="1556.0" type="qcurve" smooth="yes"/>
      <point x="478.5856407267075" y="1556.0"/>
      <point x="542.0398814728457" y="1547.563829787234"/>
      <point x="568.5165646555912" y="1540.0" type="qcurve"/>
      <point x="562.2787659246418" y="1446.1970157502074" type="line"/>
      <point x="539.0917885184863" y="1451.3658469190384"/>
      <point x="488.6598369084525" y="1458.1450676982593"/>
      <point x="462.0542507138251" y="1458.1450676982593" type="qcurve" smooth="yes"/>
      <point x="382.61791710669587" y="1458.1450676982593"/>
      <point x="289.5511026911493" y="1345.126277977342"/>
      <point x="289.5511026911493" y="1211.776595744681" type="qcurve" smooth="yes"/>
      <point x="289.5511026911493" y="878.987012987013" type="line"/>
      <point x="289.5511026911493" y="864.7792207792207" type="line"/>
      <point x="289.5511026911493" y="0.0" type="line"/>
    </contour>
    <contour>
      <point x="19.0" y="826.5974025974026" type="line"/>
      <point x="19.0" y="916.0" type="line"/>
      <point x="221.27411833284756" y="916.0" type="line"/>
      <point x="248.0826289711454" y="916.0" type="line"/>
      <point x="504.22432721266887" y="916.0" type="line"/>
      <point x="504.22432721266887" y="826.5974025974026" type="line"/>
    </contour>
  </outline>
</glyph>
<glyph name="g" format="2">
  <advance width="892.9611774992712"/>
  <unicode hex="0067"/>
  <anchor x="449.98294957738267" y="-416.0" name="bottom"/>
  <anchor x="444.3127368114252" y="916.0" name="top"/>
  <outline>
    <contour>
      <point x="431.7416646794379" y="-436.0" type="qcurve" smooth="yes"/>
      <point x="318.7265131642864" y="-436.0"/>
      <point x="145.69833867677062" y="-332.61711843000097"/>
      <point x="89.75881667152434" y="-223.80851063829786" type="qcurve"/>
      <point x="158.21606917322453" y="-144.0" type="line"/>
      <point x="197.9601645803919" y="-241.01575020723956"/>
      <point x="333.9883907989417" y="-334.38961038961037"/>
      <point x="429.00935133068623" y="-334.38961038961037" type="qcurve" smooth="yes"/>
      <point x="553.8086752943938" y="-334.38961038961037"/>
      <point x="692.2356455843777" y="-158.96103896103898"/>
      <point x="692.2356455843777" y="20.0" type="qcurve" smooth="yes"/>
      <point x="692.2356455843777" y="779.0" type="line"/>
      <point x="697.3625279316041" y="779.0" type="line"/>
      <point x="701.4896045856408" y="916.0" type="line"/>
      <point x="800.1611774992713" y="916.0" type="line"/>
      <point x="800.1611774992713" y="20.0" type="line" smooth="yes"/>
      <point x="800.1611774992713" y="-214.3936170212766"/>
      <point x="601.0608666083746" y="-436.0"/>
    </contour>
    <contour>
      <point x="430.3199148078192" y="75.50649350649351" type="qcurve" smooth="yes"/>
      <point x="559.1538305316562" y="75.50649350649351"/>
      <point x="706.7400666951818" y="279.9235729237245"/>
      <point x="706.7400666951818" y="444.00174876129404" type="qcurve" smooth="yes"/>
      <point x="706.7400666951818" y="472.00174876129404" type="line" smooth="yes"/>
      <point x="706.7400666951818" y="631.2454132110967"/>
      <point x="553.3021079513122" y="840.4935064935065"/>
      <point x="429.5754282635658" y="840.4935064935065" type="qcurve" smooth="yes"/>
      <point x="307.27507439805896" y="840.4935064935065"/>
      <point x="165.18085106382978" y="648.1540812379111"/>
      <point x="165.18085106382978" y="474.0" type="qcurve" smooth="yes"/>
      <point x="165.18085106382978" y="442.0" type="line" smooth="yes"/>
      <point x="165.18085106382978" y="281.7471345675601"/>
      <point x="306.1062432292278" y="75.50649350649351"/>
    </contour>
    <contour>
      <point x="406.7653524460578" y="-20.0" type="qcurve" smooth="yes"/>
      <point x="242.947535319048" y="-20.0"/>
      <point x="55.0" y="237.50680851063828"/>
      <point x="55.0" y="442.0" type="qcurve" smooth="yes"/>
      <point x="55.0" y="474.0" type="line" smooth="yes"/>
      <point x="55.0" y="687.216595744681"/>
      <point x="243.8198757445799" y="936.0"/>
      <point x="405.986131666837" y="936.0" type="qcurve" smooth="yes"/>
      <point x="562.1141380158751" y="936.0"/>
      <point x="749.3782264078096" y="667.7196113863791"/>
      <point x="749.3782264078096" y="474.5022345283202" type="qcurve" smooth="yes"/>
      <point x="749.3782264078096" y="444.5014573010784" type="line" smooth="yes"/>
      <point x="749.3782264078096" y="241.80643349849416"/>
      <point x="567.7905414472829" y="-20.0"/>
    </contour>
  </outline>
</glyph>
<glyph name="h" format="2">
  <advance width="846.683940542116"/>
  <unicode hex="0068"/>
  <anchor x="421.6616049742544" y="0.0" name="bottom"/>
  <anchor x="187.251617604197" y="1327.0" name="center"/>
  <anchor x="149.10851063829784" y="1536.0" name="top"/>
  <anchor x="705.7030894782862" y="0.0" name="engtail"/>
  <outline>
    <contour>
      <point x="200.72553191489362" y="0.0" type="line"/>
      <point x="92.8" y="0.0" type="line"/>
      <point x="92.8" y="1536.0" type="line"/>
      <point x="199.94631113567283" y="1536.0" type="line"/>
    </contour>
    <contour>
      <point x="146.9808510638298" y="699.0202123243512" type="line"/>
      <point x="213.9266899330146" y="822.993776504269"/>
      <point x="398.24962406679106" y="935.9360730593608"/>
      <point x="506.51389710066485" y="936.0" type="qcurve" smooth="yes"/>
      <point x="622.8093986456562" y="936.0639269406392"/>
      <point x="759.883940542116" y="771.5744680851063"/>
      <point x="759.883940542116" y="554.7765957446809" type="qcurve" smooth="yes"/>
      <point x="759.883940542116" y="0.0" type="line"/>
      <point x="651.9584086272223" y="0.0" type="line"/>
      <point x="651.9584086272223" y="556.3404255319149" type="line" smooth="yes"/>
      <point x="651.9584086272223" y="722.0584813030164"/>
      <point x="554.352652729569" y="838.0519480519481"/>
      <point x="464.497043508323" y="838.0519480519481" type="qcurve" smooth="yes"/>
      <point x="370.79321566415706" y="838.0519480519481"/>
      <point x="215.76285396329115" y="719.8772756923441"/>
      <point x="146.9808510638298" y="570.1009796091405" type="qcurve"/>
    </contour>
  </outline>
</glyph>
<glyph name="k" format="2">
  <advance width="852.0380938501895"/>
  <unicode hex="006B"/>
  <anchor x="419.09257747984066" y="0.0" name="bottom"/>
  <anchor x="419.09257747984066" y="1536.0" name="top"/>
  <outline>
    <contour>
      <point x="92.8" y="0.0" type="line"/>
      <point x="92.8" y="1536.0" type="line"/>
      <point x="200.72553191489362" y="1536.0" type="line"/>
      <point x="200.72553191489362" y="0.0" type="line"/>
    </contour>
    <contour>
      <point x="718.5576683182745" y="0.0" type="line"/>
      <point x="283.8162421315205" y="525.3815252832275" type="line"/>
      <point x="360.6309589041096" y="584.9171981210279" type="line"/>
      <point x="857.6380938501894" y="0.0" type="line"/>
    </contour>
    <contour>
      <point x="147.41702127659573" y="325.7596905222437" type="line"/>
      <point x="147.41702127659573" y="446.6911190936723" type="line"/>
      <point x="625.6375044949222" y="916.0" type="line"/>
      <point x="771.5362057936234" y="916.0" type="line"/>
    </contour>
  </outline>
</glyph>
<glyph name="l" format="2">
  <advance width="303.1255319148936"/>
  <unicode hex="006C"/>
  <anchor x="151.34468085106383" y="0.0" name="bottom"/>
  <anchor x="151.34468085106383" y="791.0" name="center"/>
  <anchor x="151.34468085106383" y="1536.0" name="top"/>
  <anchor x="339.8697950063149" y="1052.0" name="topright"/>
  <anchor x="151.34468085106383" y="471.96" name="yu_dash"/>
  <outline>
    <contour>
      <point x="97.6" y="0.0" type="line"/>
      <point x="97.6" y="1536.0" type="line"/>
      <point x="205.5255319148936" y="1536.0" type="line"/>
      <point x="205.5255319148936" y="0.0" type="line"/>
    </contour>
  </outline>
</glyph>
<glyph name="m" format="2">
  <advance width="1360.9845331778877"/>
  <unicode hex="006D"/>
  <anchor x="683.2375303604391" y="0.0" name="bottom"/>
  <anchor x="683.2375303604391" y="916.0" name="top"/>
  <outline>
    <contour>
      <point x="92.8" y="0.0" type="line"/>
      <point x="92.8" y="916.0" type="line"/>
      <point x="190.57659574468084" y="916.0" type="line"/>
      <point x="200.72553191489362" y="687.2428349363646" type="line"/>
      <point x="200.72553191489362" y="0.0" type="line"/>
    </contour>
    <contour>
      <point x="737.6731176527736" y="581.1673934246071" type="qcurve" smooth="yes"/>
      <point x="737.6731176527736" y="0.0" type="line"/>
      <point x="629.7475857378801" y="0.0" type="line"/>
      <point x="629.7475857378801" y="582.5106382978723" type="line" smooth="yes"/>
      <point x="629.7475857378801" y="753.9454666580868"/>
      <point x="538.2875170491609" y="838.0519480519481"/>
      <point x="448.64031954638193" y="838.0519480519481" type="qcurve" smooth="yes"/>
      <point x="359.02170154726264" y="838.0519480519481"/>
      <point x="217.41006723772682" y="725.3967126820521"/>
      <point x="148.98046245020885" y="574.0653495440729" type="qcurve"/>
      <point x="148.98046245020885" y="687.2848853274386" type="line"/>
      <point x="207.2739262971557" y="819.6030412801034"/>
      <point x="382.2803516700922" y="935.9360730593608"/>
      <point x="483.97707343661875" y="936.0" type="qcurve" smooth="yes"/>
      <point x="599.5865968676228" y="936.0639269406392"/>
      <point x="737.6731176527736" y="789.5333526378411"/>
    </contour>
    <contour>
      <point x="681.1596038664532" y="708.2419883138332" type="line"/>
      <point x="722.0932398894217" y="810.6756142429415"/>
      <point x="903.9780544336649" y="935.9360730593608"/>
      <point x="1015.3863416191308" y="936.0" type="qcurve" smooth="yes"/>
      <point x="1143.285106509152" y="936.0639269406392"/>
      <point x="1274.1845331778877" y="776.6688311688312"/>
      <point x="1274.1845331778877" y="554.7765957446809" type="qcurve" smooth="yes"/>
      <point x="1274.1845331778877" y="0.0" type="line"/>
      <point x="1166.2590012629942" y="0.0" type="line"/>
      <point x="1166.2590012629942" y="556.3404255319149" type="line" smooth="yes"/>
      <point x="1166.2590012629942" y="727.7752538921294"/>
      <point x="1074.0197117950543" y="838.0519480519481"/>
      <point x="983.938518044668" y="838.0519480519481" type="qcurve" smooth="yes"/>
      <point x="888.2179470097568" y="838.0519480519481"/>
      <point x="731.1680574744404" y="711.7440878367721"/>
      <point x="681.5957740792192" y="580.6079027355622" type="qcurve"/>
    </contour>
  </outline>
</glyph>
<glyph name="n" format="2">
  <advance width="846.683940542116"/>
  <unicode hex="006E"/>
  <anchor x="430.70464393276984" y="0.0" name="bottom"/>
  <anchor x="434.1940056348975" y="916.0" name="top"/>
  <anchor x="705.7030894782862" y="0.0" name="engtail"/>
  <outline>
    <contour>
      <point x="92.8" y="0.0" type="line"/>
      <point x="92.8" y="916.0" type="line"/>
      <point x="190.57659574468084" y="916.0" type="line"/>
      <point x="200.72553191489362" y="685.8090329955676" type="line"/>
      <point x="200.72553191489362" y="0.0" type="line"/>
    </contour>
    <contour>
      <point x="146.9808510638298" y="570.9294003868472" type="qcurve"/>
      <point x="146.9808510638298" y="684.1489361702128" type="line"/>
      <point x="209.14824638103562" y="821.7566792966094"/>
      <point x="395.4757505100554" y="935.9360730593608"/>
      <point x="499.13056446128434" y="936.0" type="qcurve" smooth="yes"/>
      <point x="624.0713494607985" y="936.0639269406392"/>
      <point x="759.883940542116" y="771.5744680851063"/>
      <point x="759.883940542116" y="554.7765957446809" type="qcurve" smooth="yes"/>
      <point x="759.883940542116" y="0.0" type="line"/>
      <point x="651.9584086272223" y="0.0" type="line"/>
      <point x="651.9584086272223" y="556.3404255319149" type="line" smooth="yes"/>
      <point x="651.9584086272223" y="721.668870913406"/>
      <point x="555.9110942880105" y="838.0519480519481"/>
      <point x="463.3282123394918" y="838.0519480519481" type="qcurve" smooth="yes"/>
      <point x="372.5578949759072" y="838.0519480519481"/>
      <point x="217.8584106459944" y="729.5134014921249"/>
    </contour>
  </outline>
</glyph>
<glyph name="o" format="2">
  <advance width="905.0283687943262"/>
  <unicode hex="006F"/>
  <anchor x="452.5141843971631" y="0.0" name="bottom"/>
  <anchor x="452.5141843971631" y="458.0" name="center"/>
  <anchor x="599.1013795783542" y="0.0" name="ogonek"/>
  <anchor x="452.5141843971631" y="916.0" name="top"/>
  <anchor x="598.6016710385699" y="916.0" name="topright"/>
  <anchor x="111.90085106382978" y="470.03999999999996" name="yu_dash"/>
  <outline>
    <contour>
      <point x="55.0" y="442.0" type="qcurve" smooth="yes"/>
      <point x="55.0" y="474.0" type="line" smooth="yes"/>
      <point x="55.0" y="697.1157446808511"/>
      <point x="265.6196444185369" y="946.0"/>
      <point x="452.5141843971631" y="946.0" type="qcurve" smooth="yes"/>
      <point x="639.4087243757893" y="946.0"/>
      <point x="850.0283687943262" y="697.1157446808511"/>
      <point x="850.0283687943262" y="474.0" type="qcurve" smooth="yes"/>
      <point x="850.0283687943262" y="442.0" type="line" smooth="yes"/>
      <point x="850.0283687943262" y="218.88425531914893"/>
      <point x="639.4087243757893" y="-30.0"/>
      <point x="452.5141843971631" y="-30.0" type="qcurve" smooth="yes"/>
      <point x="265.6196444185369" y="-30.0"/>
      <point x="55.0" y="218.88425531914893"/>
    </contour>
    <contour>
      <point x="165.1169241231905" y="474.0" type="qcurve" smooth="yes"/>
      <point x="165.1169241231905" y="442.0" type="line" smooth="yes"/>
      <point x="165.1169241231905" y="260.7366233766234"/>
      <point x="316.85200803471275" y="65.50649350649351"/>
      <point x="452.5141843971631" y="65.50649350649351" type="qcurve" smooth="yes"/>
      <point x="588.1763607596134" y="65.50649350649351"/>
      <point x="739.9114446711358" y="260.7366233766234"/>
      <point x="739.9114446711358" y="442.0" type="qcurve" smooth="yes"/>
      <point x="739.9114446711358" y="474.0" type="line" smooth="yes"/>
      <point x="739.9114446711358" y="655.2633766233766"/>
      <point x="588.1763607596134" y="850.4935064935065"/>
      <point x="452.5141843971631" y="850.4935064935065" type="qcurve" smooth="yes"/>
      <point x="316.85200803471275" y="850.4935064935065"/>
      <point x="165.1169241231905" y="655.2633766233766"/>
    </contour>
  </outline>
</glyph>
<glyph name="p" format="2">
  <advance width="892.9611774992712"/>
  <unicode hex="0070"/>
  <anchor x="444.93023413970667" y="0.0" name="bottom"/>
  <anchor x="444.93023413970667" y="916.0" name="top"/>
  <outline>
    <contour>
      <point x="92.8" y="-416.0" type="line"/>
      <point x="92.8" y="916.0" type="line"/>
      <point x="190.57659574468084" y="916.0" type="line"/>
      <point x="195.08723404255318" y="782.8356164383562" type="line"/>
      <point x="200.72553191489362" y="782.8356164383562" type="line"/>
      <point x="200.72553191489362" y="-416.0" type="line"/>
    </contour>
    <contour>
      <point x="461.8620419122314" y="75.50649350649351" type="qcurve" smooth="yes"/>
      <point x="573.6814885668106" y="75.50649350649351"/>
      <point x="727.7803264354415" y="272.8888311688312"/>
      <point x="727.7803264354415" y="440.4415584415584" type="qcurve" smooth="yes"/>
      <point x="727.7803264354415" y="477.1168831168832" type="line" smooth="yes"/>
      <point x="727.7803264354415" y="644.5395468361427"/>
      <point x="577.1660146789964" y="840.4935064935065"/>
      <point x="461.827307677264" y="840.4935064935065" type="qcurve" smooth="yes"/>
      <point x="329.60874017268077" y="840.4935064935065"/>
      <point x="176.4808510638298" y="630.1280685272174"/>
      <point x="176.4808510638298" y="482.9480519480519" type="qcurve" smooth="yes"/>
      <point x="176.4808510638298" y="453.0" type="line" smooth="yes"/>
      <point x="176.4808510638298" y="282.05043934788614"/>
      <point x="330.15016045452654" y="75.50649350649351"/>
    </contour>
    <contour>
      <point x="485.4166042739928" y="-20.0" type="qcurve" smooth="yes"/>
      <point x="326.0736752376158" y="-20.0"/>
      <point x="135.65106382978723" y="240.8322077922078"/>
      <point x="135.65106382978723" y="452.0" type="qcurve" smooth="yes"/>
      <point x="135.65106382978723" y="486.0" type="line" smooth="yes"/>
      <point x="135.65106382978723" y="672.0459574468085"/>
      <point x="326.1827164092102" y="936.0"/>
      <point x="485.80621466360316" y="936.0" type="qcurve" smooth="yes"/>
      <point x="640.7828601962498" y="936.0"/>
      <point x="837.9611774992712" y="687.216595744681"/>
      <point x="837.9611774992712" y="474.0" type="qcurve" smooth="yes"/>
      <point x="837.9611774992712" y="442.0" type="line" smooth="yes"/>
      <point x="837.9611774992712" y="230.70680851063827"/>
      <point x="638.9279278945089" y="-20.0"/>
    </contour>
  </outline>
</glyph>
<glyph name="q" format="2">
  <advance width="891.6526668609735"/>
  <unicode hex="0071"/>
  <anchor x="445.18507723695717" y="0.0" name="bottom"/>
  <anchor x="445.18507723695717" y="916.0" name="top"/>
  <outline>
    <contour>
      <point x="692.2356455843777" y="-416.0" type="line"/>
      <point x="692.2356455843777" y="657.6547653745264" type="line"/>
      <point x="697.8739434567182" y="657.6547653745264" type="line"/>
      <point x="702.3845817545905" y="916.0" type="line"/>
      <point x="800.1611774992713" y="916.0" type="line"/>
      <point x="800.1611774992713" y="-416.0" type="line"/>
    </contour>
    <contour>
      <point x="431.4887459766504" y="75.50649350649351" type="qcurve" smooth="yes"/>
      <point x="558.7005285145244" y="75.50649350649351"/>
      <point x="716.0907160458311" y="273.8343217493669"/>
      <point x="716.0907160458311" y="436.92990571072767" type="qcurve" smooth="yes"/>
      <point x="716.0907160458311" y="464.54029532111724" type="line" smooth="yes"/>
      <point x="716.0907160458311" y="620.3459934818896"/>
      <point x="564.9390242265264" y="840.4935064935065"/>
      <point x="430.74425943239703" y="840.4935064935065" type="qcurve" smooth="yes"/>
      <point x="308.60555243066466" y="840.4935064935065"/>
      <point x="164.79124067421938" y="644.5395468361427"/>
      <point x="164.79124067421938" y="477.1168831168832" type="qcurve" smooth="yes"/>
      <point x="164.79124067421938" y="440.4415584415584" type="line" smooth="yes"/>
      <point x="164.79124067421938" y="279.68883116883114"/>
      <point x="312.0900785428503" y="75.50649350649351"/>
    </contour>
    <contour>
      <point x="407.1549628356682" y="-20.0" type="qcurve" smooth="yes"/>
      <point x="246.8436392151519" y="-20.0"/>
      <point x="54.61038961038961" y="237.50680851063828"/>
      <point x="54.61038961038961" y="442.0" type="qcurve" smooth="yes"/>
      <point x="54.61038961038961" y="474.0" type="line" smooth="yes"/>
      <point x="54.61038961038961" y="687.216595744681"/>
      <point x="244.98870691341105" y="936.0"/>
      <point x="406.7653524460578" y="936.0" type="qcurve" smooth="yes"/>
      <point x="568.0979733294977" y="936.0"/>
      <point x="756.9205032798737" y="660.927127274746"/>
      <point x="756.9205032798737" y="464.8599300243136" type="qcurve" smooth="yes"/>
      <point x="756.9205032798737" y="437.0865636840571" type="line" smooth="yes"/>
      <point x="756.9205032798737" y="232.50717956094232"/>
      <point x="562.5099390709358" y="-20.0"/>
    </contour>
  </outline>
</glyph>
<glyph name="r" format="2">
  <advance width="541"/>
  <unicode hex="0072"/>
  <anchor x="239.74802292820368" y="0.0" name="bottom"/>
  <anchor x="305.9808996405324" y="916.0" name="top"/>
  <outline>
    <contour>
      <point x="93" y="0" type="line"/>
      <point x="93" y="916" type="line"/>
      <point x="191" y="916" type="line"/>
      <point x="201" y="726" type="line"/>
      <point x="201" y="0" type="line"/>
    </contour>
    <contour>
      <point x="147" y="557" type="qcurve"/>
      <point x="147" y="676" type="line"/>
      <point x="212" y="839"/>
      <point x="358" y="946"/>
      <point x="443" y="946" type="qcurve" smooth="yes"/>
      <point x="465" y="946"/>
      <point x="508" y="938"/>
      <point x="520" y="932" type="qcurve"/>
      <point x="520" y="825" type="line"/>
      <point x="502" y="830"/>
      <point x="461" y="835"/>
      <point x="438" y="835" type="qcurve" smooth="yes"/>
      <point x="349" y="835"/>
      <point x="214" y="727"/>
    </contour>
  </outline>
</glyph>
<glyph name="s" format="2">
  <advance width="770.3924511804139"/>
  <unicode hex="0073"/>
  <anchor x="387.1589915476537" y="0.0" name="bottom"/>
  <anchor x="382.3611192072282" y="916.0" name="top"/>
  <outline>
    <contour>
      <point x="52.0" y="296.4" type="line"/>
      <point x="159.86160497425433" y="296.4" type="line"/>
      <point x="159.86160497425433" y="291.4" type="line" smooth="yes"/>
      <point x="159.86160497425433" y="177.39116883116884"/>
      <point x="280.1750296317886" y="65.50649350649351"/>
      <point x="389.22233556786165" y="65.50649350649351" type="qcurve" smooth="yes"/>
      <point x="495.5496415039347" y="65.50649350649351"/>
      <point x="612.0305547459437" y="160.47116883116882"/>
      <point x="612.0305547459437" y="252.8" type="qcurve" smooth="yes"/>
      <point x="612.0305547459437" y="317.6795744680851"/>
      <point x="506.19999222772753" y="412.39485669872727"/>
      <point x="377.2115029631788" y="434.51063829787233" type="qcurve" smooth="yes"/>
      <point x="204.38399883415914" y="462.07829787234044"/>
      <point x="74.59341299912562" y="581.5987234042553"/>
      <point x="74.59341299912562" y="675.5617021276596" type="qcurve" smooth="yes"/>
      <point x="74.59341299912562" y="804.1502127659575"/>
      <point x="229.11387350626637" y="946.0"/>
      <point x="379.86160497425436" y="946.0" type="qcurve" smooth="yes"/>
      <point x="533.9578470805402" y="946.0"/>
      <point x="689.43791897406" y="784.4045836976586"/>
      <point x="689.43791897406" y="637.5446808510637" type="qcurve" smooth="yes"/>
      <point x="689.43791897406" y="630.8" type="line"/>
      <point x="582.0762168464004" y="630.8" type="line"/>
      <point x="582.0762168464004" y="639.8" type="line" smooth="yes"/>
      <point x="582.0762168464004" y="739.543896103896"/>
      <point x="480.2612513358594" y="850.4935064935065"/>
      <point x="379.86160497425436" y="850.4935064935065" type="qcurve" smooth="yes"/>
      <point x="281.74085886133685" y="850.4935064935065"/>
      <point x="181.39128533955113" y="760.3127272727272"/>
      <point x="181.39128533955113" y="681.2" type="qcurve" smooth="yes"/>
      <point x="181.39128533955113" y="627.5774468085107"/>
      <point x="292.63475760225396" y="548.4451063829787"/>
      <point x="434.66992130574175" y="524.9574468085107" type="qcurve" smooth="yes"/>
      <point x="595.0787020305061" y="498.06978723404256"/>
      <point x="718.3924511804139" y="364.7744680851064"/>
      <point x="718.3924511804139" y="258.43829787234046" type="qcurve" smooth="yes"/>
      <point x="718.3924511804139" y="116.60425531914895"/>
      <point x="545.0811308656369" y="-30.0"/>
      <point x="389.22233556786165" y="-30.0" type="qcurve" smooth="yes"/>
      <point x="230.39971048285244" y="-30.0"/>
      <point x="52.0" y="129.36808510638298"/>
      <point x="52.0" y="291.4" type="qcurve" smooth="yes"/>
    </contour>
  </outline>
</glyph>
<glyph name="t" format="2">
  <advance width="539.1193043816186"/>
  <unicode hex="0074"/>
  <anchor x="331.09875643641305" y="0.0" name="bottom"/>
  <anchor x="258.53492664917906" y="551.0" name="center"/>
  <anchor x="258.53492664917906" y="1176.0" name="top"/>
  <anchor x="600.6444185368698" y="916.0" name="topright"/>
  <outline>
    <contour>
      <point x="4.0" y="826.5974025974026" type="line"/>
      <point x="4.0" y="916.0" type="line"/>
      <point x="505.11930438161863" y="916.0" type="line"/>
      <point x="505.11930438161863" y="826.5974025974026" type="line"/>
    </contour>
    <contour>
      <point x="182.53881278538813" y="260.0" type="qcurve" smooth="yes"/>
      <point x="182.53881278538813" y="862.3376623376623" type="line"/>
      <point x="182.53881278538813" y="881.4285714285714" type="line"/>
      <point x="182.53881278538813" y="1176.0" type="line"/>
      <point x="290.46434470028174" y="1176.0" type="line"/>
      <point x="290.46434470028174" y="260.0" type="line" smooth="yes"/>
      <point x="290.46434470028174" y="162.72727272727272"/>
      <point x="341.4183715827551" y="70.3896103896104"/>
      <point x="396.4018264840183" y="70.3896103896104" type="qcurve" smooth="yes"/>
      <point x="423.3150684931507" y="70.3896103896104"/>
      <point x="477.6307199067327" y="84.33766233766234"/>
      <point x="504.54396191586517" y="95.50649350649351" type="qcurve"/>
      <point x="504.54396191586517" y="0.0" type="line"/>
      <point x="480.01428155056834" y="-12.0"/>
      <point x="409.66739531720583" y="-29.56382978723404"/>
      <point x="369.361022053823" y="-30.0" type="qcurve" smooth="yes"/>
      <point x="279.74545807830566" y="-30.0"/>
      <point x="182.53881278538813" y="110.0"/>
    </contour>
  </outline>
</glyph>
<glyph name="u" format="2">
  <advance width="846.683940542116"/>
  <unicode hex="0075"/>
  <anchor x="420.22446322743616" y="0.0" name="bottom"/>
  <anchor x="746.9371320314776" y="0.0" name="ogonek"/>
  <anchor x="423.2776547167978" y="916.0" name="top"/>
  <anchor x="702.6385796172156" y="916.0" name="topright"/>
  <anchor x="701.0977751870203" y="0.0" name="cy_descender"/>
  <outline>
    <contour>
      <point x="348.32049936850285" y="-20.0" type="qcurve" smooth="yes"/>
      <point x="223.3797143689887" y="-20.06392694063927"/>
      <point x="86.8" y="144.4255319148936"/>
      <point x="86.8" y="361.22340425531917" type="qcurve" smooth="yes"/>
      <point x="86.8" y="916.0" type="line"/>
      <point x="194.72553191489362" y="916.0" type="line"/>
      <point x="194.72553191489362" y="359.6595744680851" type="line" smooth="yes"/>
      <point x="194.72553191489362" y="194.33112908659396"/>
      <point x="290.7728462541054" y="77.94805194805195"/>
      <point x="383.35572820262416" y="77.94805194805195" type="qcurve" smooth="yes"/>
      <point x="474.12604556620886" y="77.94805194805195"/>
      <point x="628.8255298961216" y="186.4865985078751"/>
      <point x="699.7030894782862" y="345.0705996131528" type="qcurve"/>
      <point x="699.7030894782862" y="231.85106382978722" type="line"/>
      <point x="637.5356941610803" y="94.24332070339065"/>
      <point x="451.97531331973187" y="-19.93607305936073"/>
    </contour>
    <contour>
      <point x="656.1073447974351" y="0.0" type="line"/>
      <point x="645.9584086272223" y="219.1617213059941" type="line"/>
      <point x="645.9584086272223" y="916.0" type="line"/>
      <point x="753.883940542116" y="916.0" type="line"/>
      <point x="753.883940542116" y="0.0" type="line"/>
    </contour>
  </outline>
</glyph>
<glyph name="v" format="2">
  <advance width="850.8663169144079"/>
  <unicode hex="0076"/>
  <anchor x="424.996988244438" y="0.0" name="bottom"/>
  <anchor x="424.996988244438" y="916.0" name="top"/>
  <outline>
    <contour>
      <point x="4.0" y="916.0" type="line"/>
      <point x="110.20465364811037" y="916.0" type="line"/>
      <point x="384.56421840085494" y="223.09574468085106" type="line" smooth="yes"/>
      <point x="400.20933838531045" y="184.32789079957251"/>
      <point x="420.6356747303993" y="113.09574468085106"/>
      <point x="426.6884776061401" y="93.09574468085106" type="qcurve"/>
      <point x="426.6884776061401" y="93.09574468085106" type="line"/>
      <point x="432.7412804818809" y="113.09574468085106"/>
      <point x="453.10368988633047" y="184.32789079957251"/>
      <point x="468.748809870786" y="223.09574468085106" type="qcurve" smooth="yes"/>
      <point x="742.7252015933158" y="916.0" type="line"/>
      <point x="846.8663169144079" y="916.0" type="line"/>
      <point x="468.0820946274167" y="0.0" type="line"/>
      <point x="381.9118818614593" y="0.0" type="line"/>
    </contour>
  </outline>
</glyph>
<glyph name="w" format="2">
  <advance width="1400.1659380161275"/>
  <unicode hex="0077"/>
  <anchor x="698.2743612163606" y="0.0" name="bottom"/>
  <anchor x="698.4661420382783" y="916.0" name="top"/>
  <outline>
    <contour>
      <point x="19.0" y="916.0" type="line"/>
      <point x="123.54255319148936" y="916.0" type="line"/>
      <point x="343.03492664917906" y="237.27872340425535" type="line" smooth="yes"/>
      <point x="355.80790051491306" y="198.57479646361605"/>
      <point x="367.37321480617896" y="145.5340425531915"/>
      <point x="376.6064801321286" y="105.5340425531915" type="qcurve"/>
      <point x="382.6064801321286" y="105.5340425531915" type="line"/>
      <point x="391.83974545807826" y="145.5340425531915"/>
      <point x="403.3411328087049" y="198.94703973574275"/>
      <point x="417.1778393082678" y="237.27872340425535" type="qcurve" smooth="yes"/>
      <point x="654.2420577091227" y="916.0" type="line"/>
      <point x="747.4335470708248" y="916.0" type="line"/>
      <point x="999.4653648110367" y="237.27872340425535" type="line" smooth="yes"/>
      <point x="1014.2381443699602" y="198.44694258233753"/>
      <point x="1026.1757019333527" y="145.5340425531915"/>
      <point x="1035.9090644127077" y="105.5340425531915" type="qcurve"/>
      <point x="1041.9090644127077" y="105.5340425531915" type="line"/>
      <point x="1050.7061595258915" y="145.5340425531915"/>
      <point x="1060.207546876518" y="197.89479646361605"/>
      <point x="1073.0444476828914" y="237.27872340425535" type="qcurve" smooth="yes"/>
      <point x="1281.6224132905859" y="916.0" type="line"/>
      <point x="1381.1659380161275" y="916.0" type="line"/>
      <point x="1078.2913630622754" y="0.0" type="line"/>
      <point x="991.3020013601476" y="0.0" type="line"/>
      <point x="747.7065481395123" y="658.8702127659574" type="line" smooth="yes"/>
      <point x="732.8175983678228" y="697.638066647236"/>
      <point x="712.1353832701836" y="778.8702127659574"/>
      <point x="701.4661420382783" y="818.8702127659574" type="qcurve"/>
      <point x="695.4661420382783" y="818.8702127659574" type="line"/>
      <point x="685.2330710191392" y="778.8702127659574"/>
      <point x="665.859366559798" y="697.638066647236"/>
      <point x="651.3426600602351" y="658.8702127659574" type="qcurve" smooth="yes"/>
      <point x="418.26790051491304" y="0.0" type="line"/>
      <point x="330.4061983872535" y="0.0" type="line"/>
    </contour>
  </outline>
</glyph>
<glyph name="x" format="2">
  <advance width="851.0169046925095"/>
  <unicode hex="0078"/>
  <anchor x="423.9235888467891" y="0.0" name="bottom"/>
  <anchor x="423.9235888467891" y="916.0" name="top"/>
  <anchor x="723.5168075391043" y="0.0" name="cy_descender"/>
  <outline>
    <contour>
      <point x="16.43617021276596" y="0.0" type="line"/>
      <point x="386.19999028465946" y="496.55319148936167" type="line"/>
      <point x="392.40211794423396" y="496.55319148936167" type="line"/>
      <point x="695.7103371223161" y="916.0" type="line"/>
      <point x="817.1677839308267" y="916.0" type="line"/>
      <point x="465.3170115612552" y="439.1170212765957" type="line"/>
      <point x="459.11488390168074" y="439.1170212765957" type="line"/>
      <point x="137.8936170212766" y="0.0" type="line"/>
    </contour>
    <contour>
      <point x="36.02997182551249" y="916.0" type="line"/>
      <point x="159.17890799572524" y="916.0" type="line"/>
      <point x="460.3702030506169" y="496.55319148936167" type="line"/>
      <point x="464.8808413484893" y="496.55319148936167" type="line"/>
      <point x="834.5168075391043" y="0.0" type="line"/>
      <point x="711.3678713688915" y="0.0" type="line"/>
      <point x="390.27445836976585" y="439.1170212765957" type="line"/>
      <point x="385.7638200718935" y="439.1170212765957" type="line"/>
    </contour>
  </outline>
</glyph>
<glyph name="y" format="2">
  <advance width="824.6289711454385"/>
  <unicode hex="0079"/>
  <anchor x="709.2596910521713" y="0.0" name="bottom"/>
  <anchor x="422.7608083163315" y="916.0" name="top"/>
  <outline>
    <contour>
      <point x="3.8259010978334738" y="-416.0" type="qcurve"/>
      <point x="3.8259010978334738" y="-316.4415584415584" type="line"/>
      <point x="34.97290934073213" y="-326.38961038961037"/>
      <point x="89.66483652362405" y="-335.2207792207792"/>
      <point x="116.59505703661927" y="-335.2207792207792" type="qcurve" smooth="yes"/>
      <point x="188.87156382915637" y="-335.2207792207792"/>
      <point x="291.92823454598454" y="-215.6923183199779"/>
      <point x="372.218643738463" y="20.574468085106382" type="qcurve"/>
      <point x="371.78247352569707" y="21.074370931701157" type="line"/>
      <point x="10.703196347031964" y="916.0" type="line"/>
      <point x="115.24574953852132" y="916.0" type="line"/>
      <point x="372.8926454872243" y="264.3212765957447" type="line" smooth="yes"/>
      <point x="388.78159525891385" y="225.68127659574466"/>
      <point x="409.3361507820849" y="152.57659574468084"/>
      <point x="417.69707568250266" y="118.21489361702127" type="qcurve"/>
      <point x="423.7610026231419" y="118.21489361702127" type="line"/>
      <point x="432.6218303701545" y="152.57659574468084"/>
      <point x="454.35628873992033" y="225.68127659574466"/>
      <point x="469.0653356650151" y="264.3212765957447" type="qcurve" smooth="yes"/>
      <point x="718.3417371028854" y="916.0" type="line"/>
      <point x="820.6289711454385" y="916.0" type="line"/>
      <point x="440.45492081997475" y="-60.617021276595736" type="line" smooth="yes"/>
      <point x="358.15737297192265" y="-277.28"/>
      <point x="226.3578645681531" y="-436.0"/>
      <point x="122.9772976464903" y="-436.0" type="qcurve" smooth="yes"/>
      <point x="90.04211410856703" y="-436.0"/>
      <point x="35.216638214597985" y="-426.7792207792208"/>
    </contour>
  </outline>
</glyph>
<glyph name="z" format="2">
  <advance width="825.9873680385484"/>
  <unicode hex="007A"/>
  <anchor x="408.9879062936481" y="0.0" name="bottom"/>
  <anchor x="408.9879062936481" y="916.0" name="top"/>
  <outline>
    <contour>
      <point x="6.259740259740255" y="0.0" type="line"/>
      <point x="6.259740259740255" y="85.74025974025975" type="line"/>
      <point x="643.7841902389848" y="820.4935064935065" type="line"/>
      <point x="25.948051948051948" y="820.4935064935065" type="line"/>
      <point x="25.948051948051948" y="916.0" type="line"/>
      <point x="792.7346462922096" y="916.0" type="line"/>
      <point x="792.7346462922096" y="832.0909090909091" type="line"/>
      <point x="154.37902748179633" y="95.50649350649351" type="line"/>
      <point x="817.8730823242628" y="95.50649350649351" type="line"/>
      <point x="817.8730823242628" y="0.0" type="line"/>
    </contour>
  </outline>
</glyph>
<glyph name="braceleft" format="2">
  <advance width="569.462323909453"/>
  <unicode hex="007B"/>
  <outline>
    <contour>
      <point x="547.462323909453" y="-312.0" type="line"/>
      <point x="349.5696298455261" y="-312.0"/>
      <point x="153.62238414456425" y="-62.389390848149226"/>
      <point x="195.96164383561646" y="123.0" type="qcurve" smooth="yes"/>
      <point x="244.29954337899542" y="334.0" type="line" smooth="yes"/>
      <point x="268.032322937919" y="439.25531914893617"/>
      <point x="157.4039347129117" y="532.5454545454545"/>
      <point x="42.4" y="532.5454545454545" type="qcurve"/>
      <point x="42.4" y="615.8441558441558" type="line"/>
      <point x="157.4039347129117" y="615.8441558441558"/>
      <point x="268.032322937919" y="708.7446808510638"/>
      <point x="244.29954337899542" y="814.0" type="qcurve" smooth="yes"/>
      <point x="195.96164383561646" y="1025.0" type="line" smooth="yes"/>
      <point x="152.50565432818422" y="1214.1417953949285"/>
      <point x="350.00580005829204" y="1460.0"/>
      <point x="547.462323909453" y="1460.0" type="qcurve"/>
      <point x="547.462323909453" y="1368.155844155844" type="line"/>
      <point x="394.3867385601865" y="1368.155844155844"/>
      <point x="265.36234800854436" y="1186.7160969313402"/>
      <point x="302.9921985815603" y="1025.0" type="qcurve" smooth="yes"/>
      <point x="351.52187894685704" y="814.0" type="line" smooth="yes"/>
      <point x="371.3827066938696" y="728.5636354804236"/>
      <point x="297.13792868940055" y="596.9468085106383"/>
      <point x="198.9727679005149" y="574.0" type="qcurve"/>
      <point x="297.13792868940055" y="551.0531914893617"/>
      <point x="371.3827066938696" y="419.43636451957644"/>
      <point x="351.52187894685704" y="334.0" type="qcurve" smooth="yes"/>
      <point x="302.9921985815603" y="123.0" type="line" smooth="yes"/>
      <point x="266.2518202384422" y="-35.20476783490482"/>
      <point x="394.3867385601865" y="-220.15584415584416"/>
      <point x="547.462323909453" y="-220.15584415584416" type="qcurve"/>
    </contour>
  </outline>
</glyph>
<glyph name="braceright" format="2">
  <advance width="569.462323909453"/>
  <unicode hex="007D"/>
  <outline>
    <contour>
      <point x="22.0" y="-312.0" type="qcurve"/>
      <point x="22.0" y="-220.15584415584416" type="line"/>
      <point x="175.07558534926648" y="-220.15584415584416"/>
      <point x="304.0999759009086" y="-38.7160969313403"/>
      <point x="266.4701253278928" y="123.0" type="qcurve" smooth="yes"/>
      <point x="217.94044496259593" y="334.0" type="line" smooth="yes"/>
      <point x="198.07961721558343" y="419.43636451957644"/>
      <point x="272.32439522005245" y="551.0531914893617"/>
      <point x="370.4895560089381" y="574.0" type="qcurve"/>
      <point x="272.32439522005245" y="596.9468085106383"/>
      <point x="198.07961721558343" y="728.5636354804236"/>
      <point x="217.94044496259593" y="814.0" type="qcurve" smooth="yes"/>
      <point x="266.4701253278928" y="1025.0" type="line" smooth="yes"/>
      <point x="303.2105036710108" y="1183.2047678349047"/>
      <point x="175.07558534926648" y="1368.155844155844"/>
      <point x="22.0" y="1368.155844155844" type="qcurve"/>
      <point x="22.0" y="1460.0" type="line"/>
      <point x="219.89269406392694" y="1460.0"/>
      <point x="415.64815894297095" y="1208.4715826289712"/>
      <point x="373.5006800738366" y="1025.0" type="qcurve" smooth="yes"/>
      <point x="325.16278053045755" y="814.0" type="line" smooth="yes"/>
      <point x="301.43000097153407" y="708.7446808510638"/>
      <point x="412.0583891965414" y="615.4545454545455"/>
      <point x="527.062323909453" y="615.4545454545455" type="qcurve"/>
      <point x="527.062323909453" y="532.1558441558442" type="line"/>
      <point x="412.0583891965414" y="532.1558441558442"/>
      <point x="301.43000097153407" y="439.25531914893617"/>
      <point x="325.16278053045755" y="334.0" type="qcurve" smooth="yes"/>
      <point x="373.5006800738366" y="123.0" type="line" smooth="yes"/>
      <point x="417.14845040318664" y="-68.05960361410668"/>
      <point x="219.456523851161" y="-312.0"/>
    </contour>
  </outline>
</glyph>
<glyph name="asciitilde" format="2">
  <advance width="969.3899543378996"/>
  <unicode hex="007E"/>
  <outline>
    <contour>
      <point x="31.0" y="575.6170212765958" type="qcurve"/>
      <point x="31.0" y="693.0" type="line"/>
      <point x="74.9128533955115" y="746.6170212765958"/>
      <point x="204.9497716894977" y="809.2872340425532"/>
      <point x="268.1598173515982" y="809.8510638297872" type="qcurve" smooth="yes"/>
      <point x="339.68833187603224" y="810.4148936170213"/>
      <point x="436.027397260274" y="768.2985524142621"/>
      <point x="497.29005149130484" y="736.4148936170213" type="qcurve" smooth="yes"/>
      <point x="553.5525114155251" y="706.8510638297872"/>
      <point x="640.2818906052657" y="667.4148936170213"/>
      <point x="707.8745263771496" y="667.4148936170213" type="qcurve" smooth="yes"/>
      <point x="770.5844748858448" y="667.4148936170213"/>
      <point x="889.4514718740892" y="738.031914893617"/>
      <point x="937.7899543378995" y="795.8510638297872" type="qcurve"/>
      <point x="937.7899543378995" y="678.3404255319149" type="line"/>
      <point x="892.068493150685" y="626.9042553191489"/>
      <point x="771.5844748858448" y="560.6170212765958"/>
      <point x="708.3744292237443" y="560.6170212765958" type="qcurve" smooth="yes"/>
      <point x="642.1542310307976" y="560.6170212765958"/>
      <point x="552.5707762557078" y="598.9777518702031"/>
      <point x="493.9243660740309" y="630.0531914893617" type="qcurve" smooth="yes"/>
      <point x="434.3424657534247" y="660.9366559797921"/>
      <point x="340.5606723015642" y="703.0531914893617"/>
      <point x="268.1598173515982" y="703.0531914893617" type="qcurve" smooth="yes"/>
      <point x="204.9497716894977" y="703.0531914893617"/>
      <point x="76.65753424657534" y="635.6170212765958"/>
    </contour>
  </outline>
</glyph>
<glyph name="exclamdown" format="2">
  <advance width="392.83829787234043"/>
  <unicode hex="00A1"/>
  <outline>
    <contour>
      <point x="277.23829787234047" y="1088.7659574468084" type="qcurve" smooth="yes"/>
      <point x="277.23829787234047" y="1056.776595744681"/>
      <point x="235.91914893617022" y="1011.2021276595744"/>
      <point x="196.41914893617022" y="1011.2021276595744" type="qcurve" smooth="yes"/>
      <point x="156.91914893617022" y="1011.2021276595744"/>
      <point x="115.6" y="1056.776595744681"/>
      <point x="115.6" y="1088.7659574468084" type="qcurve" smooth="yes"/>
      <point x="115.6" y="1120.7553191489362"/>
      <point x="156.91914893617022" y="1166.3297872340424"/>
      <point x="196.41914893617022" y="1166.3297872340424" type="qcurve" smooth="yes"/>
      <point x="235.91914893617022" y="1166.3297872340424"/>
      <point x="277.23829787234047" y="1120.7553191489362"/>
    </contour>
    <contour>
      <point x="243.96170212765955" y="740.0" type="line"/>
      <point x="252.41914893617022" y="-306.0" type="line"/>
      <point x="139.98297872340424" y="-306.0" type="line"/>
      <point x="148.44042553191488" y="740.0" type="line"/>
    </contour>
  </outline>
</glyph>
<glyph name="cent" format="2">
  <advance width="802.5068298843875"/>
  <unicode hex="00A2"/>
  <outline>
    <contour>
      <point x="428.9620615952589" y="225.5064935064935" type="qcurve" smooth="yes"/>
      <point x="534.9120704904733" y="225.5064935064935"/>
      <point x="661.4103703058818" y="363.72727272727275"/>
      <point x="668.6195958418342" y="492.0" type="qcurve"/>
      <point x="770.9068298843874" y="492.0" type="line"/>
      <point x="763.290780141844" y="320.1808510638298"/>
      <point x="583.9310696589915" y="130.0"/>
      <point x="427.21738074419505" y="130.0" type="qcurve" smooth="yes"/>
      <point x="240.8653939570582" y="130.0"/>
      <point x="43.0" y="410.0"/>
      <point x="43.0" y="670.0" type="qcurve" smooth="yes"/>
      <point x="43.0" y="712.0" type="line" smooth="yes"/>
      <point x="43.0" y="972.0"/>
      <point x="240.8653939570582" y="1252.0"/>
      <point x="428.9620615952589" y="1252.0" type="qcurve" smooth="yes"/>
      <point x="584.1863888079276" y="1252.0"/>
      <point x="764.7267560477994" y="1049.0"/>
      <point x="770.9068298843874" y="860.0" type="qcurve"/>
      <point x="668.6195958418342" y="860.0" type="line"/>
      <point x="662.2361509082582" y="1003.2727272727273"/>
      <point x="535.3016808800837" y="1156.4935064935064"/>
      <point x="428.9620615952589" y="1156.4935064935064" type="qcurve" smooth="yes"/>
      <point x="294.46434470028174" y="1156.4935064935064"/>
      <point x="150.9255319148936" y="926.2727272727273"/>
      <point x="150.9255319148936" y="712.0" type="qcurve" smooth="yes"/>
      <point x="150.9255319148936" y="670.0" type="line" smooth="yes"/>
      <point x="150.9255319148936" y="455.72727272727275"/>
      <point x="294.46434470028174" y="225.5064935064935"/>
    </contour>
    <contour>
      <point x="383.6748275527057" y="0.0" type="line"/>
      <point x="383.6748275527057" y="172.84415584415584" type="line"/>
      <point x="386.49397648887594" y="181.3896103896104" type="line"/>
      <point x="386.49397648887594" y="708.0" type="line"/>
      <point x="468.48333819100355" y="708.0" type="line"/>
      <point x="468.48333819100355" y="180.7792207792208" type="line"/>
      <point x="471.3024871271738" y="174.67532467532467" type="line"/>
      <point x="471.3024871271738" y="0.0" type="line"/>
    </contour>
    <contour>
      <point x="386.49397648887594" y="708.0" type="line"/>
      <point x="386.49397648887594" y="1203.0389610389611" type="line"/>
      <point x="383.6748275527057" y="1213.0389610389611" type="line"/>
      <point x="383.6748275527057" y="1402.0" type="line"/>
      <point x="471.3024871271738" y="1402.0" type="line"/>
      <point x="471.3024871271738" y="1213.0389610389611" type="line"/>
      <point x="468.48333819100355" y="1200.0389610389611" type="line"/>
      <point x="468.48333819100355" y="708.0" type="line"/>
    </contour>
  </outline>
</glyph>
<glyph name="sterling" format="2">
  <advance width="820.6568153113767"/>
  <unicode hex="00A3"/>
  <outline>
    <contour>
      <point x="818.2257650830661" y="0.0" type="line"/>
      <point x="25.6" y="0.0" type="line"/>
      <point x="25.6" y="100.0" type="line"/>
      <point x="78.97899543378995" y="100.0" type="line" smooth="yes"/>
      <point x="158.75826289711452" y="100.0"/>
      <point x="243.3898357350412" y="308.57239568941696"/>
      <point x="227.92400660643156" y="476.59574468085106" type="qcurve" smooth="yes"/>
      <point x="176.09771689497717" y="1039.0" type="line" smooth="yes"/>
      <point x="158.8648401826484" y="1228.0"/>
      <point x="309.92599825123875" y="1476.0"/>
      <point x="470.0159137277762" y="1476.0" type="qcurve" smooth="yes"/>
      <point x="622.798290100068" y="1476.0"/>
      <point x="778.6140872437578" y="1282.5850092295734"/>
      <point x="778.6140872437578" y="1103.0" type="qcurve" smooth="yes"/>
      <point x="778.6140872437578" y="1087.0" type="line"/>
      <point x="667.30557660546" y="1087.0" type="line"/>
      <point x="667.30557660546" y="1103.0" type="line" smooth="yes"/>
      <point x="667.30557660546" y="1248.3896103896104"/>
      <point x="565.1994516510401" y="1371.3376623376623"/>
      <point x="471.10883906727685" y="1371.3376623376623" type="qcurve" smooth="yes"/>
      <point x="372.1460803647921" y="1371.3376623376623"/>
      <point x="270.6213466219004" y="1198.6363636363637"/>
      <point x="285.15090838433883" y="1039.0" type="qcurve" smooth="yes"/>
      <point x="334.7218789468571" y="500.1489361702128" type="line" smooth="yes"/>
      <point x="348.61185839323406" y="349.012987012987"/>
      <point x="285.46551697598045" y="142.32467532467533"/>
      <point x="216.15134620552865" y="104.05194805194805" type="qcurve"/>
      <point x="818.2257650830661" y="104.05194805194805" type="line"/>
    </contour>
    <contour>
      <point x="626.3079568638881" y="655.0" type="line"/>
      <point x="41.6" y="655.0" type="line"/>
      <point x="41.6" y="752.3376623376623" type="line"/>
      <point x="626.3079568638881" y="752.3376623376623" type="line"/>
    </contour>
  </outline>
</glyph>
<glyph name="currency" format="2">
  <advance width="1063.2142426892062"/>
  <unicode hex="00A4"/>
  <guideline y="901.0" identifier="bRYxxRaQQf"/>
  <guideline y="555.0" identifier="917FhrihjR"/>
  <outline>
    <contour>
      <point x="232.72127659574465" y="712.436170212766" type="qcurve"/>
      <point x="232.72127659574465" y="562.9952394831439"/>
      <point x="402.725259885359" y="373.0"/>
      <point x="528.4792674633246" y="373.0" type="qcurve" smooth="yes"/>
      <point x="653.7972991353347" y="373.0"/>
      <point x="822.4929660934616" y="562.5590692703779"/>
      <point x="822.4929660934616" y="712.0" type="qcurve" smooth="yes"/>
      <point x="822.4929660934616" y="859.9410278830272"/>
      <point x="653.7972991353347" y="1049.0"/>
      <point x="528.4792674633246" y="1049.0" type="qcurve" smooth="yes"/>
      <point x="402.725259885359" y="1049.0"/>
      <point x="232.72127659574465" y="860.3771980957932"/>
    </contour>
    <contour>
      <point x="126.4872340425532" y="716.2553191489362" type="qcurve"/>
      <point x="126.4872340425532" y="907.2626056543282"/>
      <point x="358.775148158943" y="1151.287234042553"/>
      <point x="527.9154376760906" y="1151.287234042553" type="qcurve" smooth="yes"/>
      <point x="696.81133780239" y="1151.287234042553"/>
      <point x="928.7270086466532" y="907.2626056543282"/>
      <point x="928.7270086466532" y="715.8191489361702" type="qcurve" smooth="yes"/>
      <point x="928.7270086466532" y="524.3115709705626"/>
      <point x="696.81133780239" y="277.47872340425533"/>
      <point x="527.9154376760906" y="277.47872340425533" type="qcurve" smooth="yes"/>
      <point x="358.775148158943" y="277.47872340425533"/>
      <point x="126.4872340425532" y="524.3115709705626"/>
    </contour>
    <contour>
      <point x="1001.0617696303502" y="1168.4085382702406" type="line"/>
      <point x="805.6591211275852" y="968.6336464953486" type="line"/>
      <point x="729.2435367120007" y="1048.1011789628812" type="line"/>
      <point x="924.6461852147659" y="1247.876070737773" type="line"/>
    </contour>
    <contour>
      <point x="309.45327640396135" y="398.93223423812174" type="line"/>
      <point x="120.5116883116883" y="204.49613152804642" type="line"/>
      <point x="44.7064935064935" y="283.3532743851893" type="line"/>
      <point x="233.64808159876654" y="477.178987484875" type="line"/>
    </contour>
    <contour>
      <point x="951.2220348969985" y="207.55346780878696" type="line"/>
      <point x="754.9357275969926" y="408.16545855776405" type="line"/>
      <point x="831.9617016229666" y="487.0226014149069" type="line"/>
      <point x="1028.6376193125827" y="287.02100027631946" type="line"/>
    </contour>
    <contour>
      <point x="248.00862230162724" y="973.7949564765362" type="line"/>
      <point x="51.40268029842498" y="1173.5577507598784" type="line"/>
      <point x="127.20787510361977" y="1252.4148936170213" type="line"/>
      <point x="323.81381710682206" y="1052.6520993336792" type="line"/>
    </contour>
  </outline>
</glyph>
<glyph name="yen" format="2">
  <advance width="929.2130574176625"/>
  <unicode hex="00A5"/>
  <outline>
    <contour>
      <point x="62.308510638297875" y="322.4805194805195" type="line"/>
      <point x="62.308510638297875" y="422.2597402597403" type="line"/>
      <point x="876.6492276304285" y="422.2597402597403" type="line"/>
      <point x="876.6492276304285" y="322.4805194805195" type="line"/>
    </contour>
    <contour>
      <point x="62.308510638297875" y="643.5844155844156" type="line"/>
      <point x="62.308510638297875" y="743.974025974026" type="line"/>
      <point x="351.6385407558535" y="743.974025974026" type="line"/>
      <point x="405.5108811813854" y="669.0" type="line"/>
      <point x="519.308753521811" y="669.0" type="line"/>
      <point x="572.1066258622365" y="743.974025974026" type="line"/>
      <point x="876.6492276304285" y="743.974025974026" type="line"/>
      <point x="876.6492276304285" y="643.5844155844156" type="line"/>
    </contour>
    <contour>
      <point x="405.8193918196833" y="0.0" type="line"/>
      <point x="405.8193918196833" y="548.0" type="line"/>
      <point x="-17.0" y="1456.0" type="line"/>
      <point x="103.8936170212766" y="1456.0" type="line"/>
      <point x="368.05916642378315" y="849.0" type="line" smooth="yes"/>
      <point x="381.1641892548334" y="818.8082191780821"/>
      <point x="439.5972505586321" y="671.0744680851063"/>
      <point x="454.06475274458376" y="626.6595744680851" type="qcurve"/>
      <point x="466.62722238414455" y="626.6595744680851" type="line"/>
      <point x="482.0945302632857" y="681.3510638297872"/>
      <point x="541.7086369377247" y="816.6273681142524"/>
      <point x="556.622267560478" y="849.0" type="qcurve" smooth="yes"/>
      <point x="829.8300786942583" y="1456.0" type="line"/>
      <point x="946.2130574176625" y="1456.0" type="line"/>
      <point x="512.6172641601088" y="548.0" type="line"/>
      <point x="512.6172641601088" y="0.0" type="line"/>
    </contour>
  </outline>
</glyph>
<glyph name="brokenbar" format="2">
  <advance width="359.67021276595744"/>
  <unicode hex="00A6"/>
  <guideline y="901.0" identifier="jmguX8NWKI"/>
  <guideline y="555.0" identifier="Z0RZpP7MTi"/>
  <outline>
    <contour>
      <point x="232.67021276595744" y="-416.0" type="line"/>
      <point x="127.0" y="-416.0" type="line"/>
      <point x="127.0" y="359.0" type="line"/>
      <point x="232.67021276595744" y="359.0" type="line"/>
    </contour>
    <contour>
      <point x="232.67021276595744" y="1536.0" type="line"/>
      <point x="232.67021276595744" y="761.0" type="line"/>
      <point x="127.0" y="761.0" type="line"/>
      <point x="127.0" y="1536.0" type="line"/>
    </contour>
  </outline>
</glyph>
<glyph name="section" format="2">
  <advance width="976.0140386670553"/>
  <unicode hex="00A7"/>
  <guideline y="1658.0" identifier="QzZ5gIiCyn"/>
  <guideline y="578.0" identifier="9Hxjf2sdFw"/>
  <outline>
    <contour>
      <point x="546.3183892470107" y="193.3896103896104" type="qcurve"/>
      <point x="546.3183892470107" y="268.3636363636364" type="line"/>
      <point x="650.7688429029437" y="268.3636363636364"/>
      <point x="794.3076556883318" y="376.0"/>
      <point x="794.3076556883318" y="463.0" type="qcurve"/>
      <point x="794.3076556883318" y="556.0"/>
      <point x="638.1873330885571" y="675.3544446421158"/>
      <point x="465.4218109394734" y="734.0" type="qcurve" smooth="yes"/>
      <point x="292.35713200624303" y="791.2438064704168"/>
      <point x="141.21341688526184" y="954.280602376347"/>
      <point x="141.21341688526184" y="1133.7978723404256" type="qcurve" smooth="yes"/>
      <point x="141.21341688526184" y="1305.0"/>
      <point x="314.0714757602254" y="1490.0639269406392"/>
      <point x="483.50856893034097" y="1491.0" type="qcurve" smooth="yes"/>
      <point x="645.224200913242" y="1491.9360730593608"/>
      <point x="816.5069173224522" y="1294.0"/>
      <point x="815.5069173224522" y="1100.0" type="qcurve"/>
      <point x="719.4218109394734" y="1100.0" type="line"/>
      <point x="720.4218109394734" y="1233.5064935064936"/>
      <point x="602.0880031947067" y="1394.2727272727273"/>
      <point x="483.50856893034097" y="1394.2727272727273" type="qcurve" smooth="yes"/>
      <point x="353.767123161498" y="1394.2727272727273"/>
      <point x="237.29852326824053" y="1265.8831168831168"/>
      <point x="237.29852326824053" y="1139.6103896103896" type="qcurve" smooth="yes"/>
      <point x="237.29852326824053" y="1020.1688311688312"/>
      <point x="334.50133415598293" y="895.6275277234181"/>
      <point x="513.032200549863" y="836.2207792207793" type="qcurve" smooth="yes"/>
      <point x="690.1401884523715" y="778.2207792207793"/>
      <point x="899.4140386670553" y="615.4574468085107"/>
      <point x="899.4140386670553" y="471.4574468085106" type="qcurve" smooth="yes"/>
      <point x="899.4140386670553" y="336.50939486045866"/>
      <point x="694.75775353569" y="193.3896103896104"/>
    </contour>
    <contour>
      <point x="386.6640359290957" y="842.1818181818181" type="qcurve"/>
      <point x="389.2517107200581" y="756.0" type="line"/>
      <point x="297.4629068298844" y="756.0"/>
      <point x="181.07021276595745" y="649.0"/>
      <point x="181.07021276595745" y="567.0" type="qcurve" smooth="yes"/>
      <point x="181.07021276595745" y="487.0"/>
      <point x="318.6957835422131" y="384.76255707762556"/>
      <point x="498.170669386962" y="317.0" type="qcurve" smooth="yes"/>
      <point x="667.522267560478" y="252.12785388127853"/>
      <point x="823.8563295443505" y="54.22340425531915"/>
      <point x="823.8563295443505" y="-123.03191489361703" type="qcurve" smooth="yes"/>
      <point x="823.8563295443505" y="-298.0"/>
      <point x="623.0324200913242" y="-509.0"/>
      <point x="460.59532692120854" y="-509.0" type="qcurve" smooth="yes"/>
      <point x="298.15823375109295" y="-509.0"/>
      <point x="79.54893617021276" y="-302.1276595744681"/>
      <point x="79.54893617021276" y="-75.60588744588745" type="qcurve"/>
      <point x="175.07021276595745" y="-70.0" type="line"/>
      <point x="175.07021276595745" y="-255.32467532467533"/>
      <point x="349.43361192387715" y="-412.27272727272725"/>
      <point x="460.59532692120854" y="-412.27272727272725" type="qcurve" smooth="yes"/>
      <point x="576.5993001169626" y="-412.27272727272725"/>
      <point x="728.3350529486058" y="-263.87012987012986"/>
      <point x="728.3350529486058" y="-136.0" type="qcurve" smooth="yes"/>
      <point x="728.3350529486058" y="-5.0"/>
      <point x="617.842495277966" y="156.56312637134556"/>
      <point x="438.7940460103386" y="219.05194805194805" type="qcurve" smooth="yes"/>
      <point x="261.14564418385464" y="283.16883116883116"/>
      <point x="75.4" y="443.3006355346781"/>
      <point x="75.4" y="572.6382978723404" type="qcurve" smooth="yes"/>
      <point x="75.4" y="697.3136225476651"/>
      <point x="265.00747185390145" y="842.1818181818181"/>
    </contour>
  </outline>
</glyph>
<glyph name="copyright" format="2">
  <advance width="1509.036170212766"/>
  <unicode hex="00A9"/>
  <guideline y="901.0" identifier="0Pjz0qKr8z"/>
  <guideline y="555.0" identifier="sJo8BlDiJ7"/>
  <outline>
    <contour>
      <point x="961.3275915670844" y="546.0" type="qcurve"/>
      <point x="1066.9978043330418" y="546.0" type="line"/>
      <point x="1066.9978043330418" y="381.5425531914894"/>
      <point x="879.9585057806275" y="205.0"/>
      <point x="691.7962557077625" y="205.0" type="qcurve" smooth="yes"/>
      <point x="568.7680365296803" y="205.0"/>
      <point x="375.1951714757602" y="437.0"/>
      <point x="375.1951714757602" y="664.0" type="qcurve" smooth="yes"/>
      <point x="375.1951714757602" y="703.0" type="line" smooth="yes"/>
      <point x="375.1951714757602" y="931.0"/>
      <point x="568.2451083260468" y="1170.0"/>
      <point x="733.2590925871953" y="1170.0" type="qcurve" smooth="yes"/>
      <point x="900.9887690663558" y="1170.0"/>
      <point x="1067.9978043330418" y="983.0"/>
      <point x="1067.9978043330418" y="829.0" type="qcurve"/>
      <point x="962.3275915670844" y="829.0" type="line"/>
      <point x="962.3275915670844" y="941.7953854655982"/>
      <point x="847.2438547947729" y="1067.5584415584415"/>
      <point x="730.7818323132226" y="1067.5584415584415" type="qcurve" smooth="yes"/>
      <point x="615.6701872789602" y="1067.5584415584415"/>
      <point x="487.06751190129216" y="890.1023763470572"/>
      <point x="487.06751190129216" y="812.3890624444049" type="qcurve" smooth="yes"/>
      <point x="487.06751190129216" y="557.477808219178" type="line" smooth="yes"/>
      <point x="487.06751190129216" y="476.5080132633324"/>
      <point x="620.512363464768" y="303.5584415584416"/>
      <point x="752.1295890410959" y="303.5584415584416" type="qcurve" smooth="yes"/>
      <point x="852.8013248191622" y="303.5584415584416"/>
      <point x="961.3275915670844" y="432.06493506493507"/>
    </contour>
    <contour>
      <point x="113.3" y="687.0" type="qcurve" smooth="yes"/>
      <point x="113.3" y="372.34632034632034"/>
      <point x="449.9827373539702" y="-52.103896103896105"/>
      <point x="729.4095890410958" y="-52.103896103896105" type="qcurve" smooth="yes"/>
      <point x="1006.8015121864437" y="-52.103896103896105"/>
      <point x="1344.0077625570775" y="372.34632034632034"/>
      <point x="1344.0077625570775" y="687.0" type="qcurve" smooth="yes"/>
      <point x="1344.0077625570775" y="1003.3050465516219"/>
      <point x="1006.8015121864437" y="1423.4935064935064"/>
      <point x="729.4095890410958" y="1423.4935064935064" type="qcurve" smooth="yes"/>
      <point x="449.9827373539702" y="1423.4935064935064"/>
      <point x="113.3" y="1002.9154361620115"/>
    </contour>
    <contour>
      <point x="26.799999999999997" y="687.0" type="qcurve" smooth="yes"/>
      <point x="26.799999999999997" y="1044.5616438356165"/>
      <point x="410.3365296803653" y="1519.0"/>
      <point x="728.4095890410958" y="1519.0" type="qcurve" smooth="yes"/>
      <point x="1045.2908675799085" y="1519.0"/>
      <point x="1429.9439327698435" y="1044.5616438356165"/>
      <point x="1429.9439327698435" y="687.0" type="qcurve" smooth="yes"/>
      <point x="1429.9439327698435" y="331.24657534246575"/>
      <point x="1045.2908675799085" y="-147.0"/>
      <point x="728.4095890410958" y="-147.0" type="qcurve" smooth="yes"/>
      <point x="410.3365296803653" y="-147.0"/>
      <point x="26.799999999999997" y="331.24657534246575"/>
    </contour>
  </outline>
</glyph>
<glyph name="ordfeminine" format="2">
  <advance width="668.3580977363256"/>
  <unicode hex="00AA"/>
  <guideline y="1681.0" identifier="3CJlALCfkl"/>
  <guideline y="909.0" identifier="Zdl6NZVQAy"/>
  <outline>
    <contour>
      <point x="470.40277858738943" y="865.4893617021277" type="line"/>
      <point x="470.40277858738943" y="821.0"/>
      <point x="486.4772466724959" y="741.2340425531914"/>
      <point x="505.9878849703682" y="706.0" type="qcurve"/>
      <point x="585.1580977363257" y="706.0" type="line"/>
      <point x="571.1580977363257" y="749.0"/>
      <point x="559.1580977363257" y="832.7659574468086"/>
      <point x="559.1580977363257" y="879.5851063829788" type="qcurve" smooth="yes"/>
      <point x="559.1580977363257" y="1201.0" type="line" smooth="yes"/>
      <point x="559.1580977363257" y="1342.3617021276596"/>
      <point x="441.02689206256673" y="1477.0"/>
      <point x="336.90506169241235" y="1477.0" type="qcurve" smooth="yes"/>
      <point x="237.2938696201302" y="1477.0"/>
      <point x="109.79119790148644" y="1360.3617021276596"/>
      <point x="111.2801709899932" y="1261.0" type="qcurve" smooth="yes"/>
      <point x="111.2801709899932" y="1234.0" type="line"/>
      <point x="201.7269795006315" y="1234.0" type="line"/>
      <point x="201.7269795006315" y="1258.5609284332688" type="line" smooth="yes"/>
      <point x="201.7269795006315" y="1323.418762088975"/>
      <point x="272.5136148510966" y="1394.3116883116884"/>
      <point x="338.12584091319155" y="1394.3116883116884" type="qcurve" smooth="yes"/>
      <point x="403.1161993840222" y="1394.3116883116884"/>
      <point x="470.40277858738943" y="1302.4935064935064"/>
      <point x="470.40277858738943" y="1202.0" type="qcurve" smooth="yes"/>
    </contour>
    <contour>
      <point x="514.6900126299427" y="1149.0" type="line"/>
      <point x="348.3521616632663" y="1149.0" type="line" smooth="yes"/>
      <point x="216.3666860973477" y="1149.0"/>
      <point x="88.6" y="1028.0"/>
      <point x="88.6" y="918.8723404255319" type="qcurve" smooth="yes"/>
      <point x="88.6" y="816.0"/>
      <point x="186.44387447780045" y="692.0"/>
      <point x="278.33341105605757" y="692.0" type="qcurve" smooth="yes"/>
      <point x="356.08529513816603" y="692.0"/>
      <point x="475.9501894491401" y="779.6063829787234"/>
      <point x="517.3070339065384" y="825.8297872340426" type="qcurve"/>
      <point x="515.5623530554745" y="902.0005526388505" type="line"/>
      <point x="470.5352958321189" y="849.3409781707654"/>
      <point x="354.61884208281754" y="774.077922077922"/>
      <point x="300.950723792869" y="774.077922077922" type="qcurve" smooth="yes"/>
      <point x="241.57160975622062" y="774.077922077922"/>
      <point x="180.17446808510638" y="856.4025974025974"/>
      <point x="180.17446808510638" y="921.1276595744681" type="qcurve" smooth="yes"/>
      <point x="180.17446808510638" y="991.987012987013"/>
      <point x="264.99033714755086" y="1080.9610389610389"/>
      <point x="350.7072321247197" y="1080.9610389610389" type="qcurve" smooth="yes"/>
      <point x="514.6900126299427" y="1080.9610389610389" type="line"/>
    </contour>
  </outline>
</glyph>
<glyph name="guillemotleft" format="2">
  <advance width="918.8628193918197"/>
  <unicode hex="00AB"/>
  <guideline y="901.0" identifier="ZftBQarVKw"/>
  <guideline y="555.0" identifier="MVJpdoVRVd"/>
  <outline>
    <contour>
      <point x="68.8" y="532.9042553191489" type="line"/>
      <point x="68.8" y="569.6595744680851" type="line"/>
      <point x="332.68713297777714" y="949.0" type="line"/>
      <point x="434.29752258816677" y="949.0" type="line"/>
      <point x="184.92765957446807" y="551.0" type="line"/>
      <point x="434.29752258816677" y="153.0" type="line"/>
      <point x="332.68713297777714" y="153.0" type="line"/>
    </contour>
    <contour>
      <point x="497.165296803653" y="533.3404255319149" type="line"/>
      <point x="497.165296803653" y="569.2234042553191" type="line"/>
      <point x="761.0524297814301" y="949.0" type="line"/>
      <point x="862.6628193918197" y="949.0" type="line"/>
      <point x="613.2929563781211" y="551.0" type="line"/>
      <point x="862.6628193918197" y="153.0" type="line"/>
      <point x="761.0524297814301" y="153.0" type="line"/>
    </contour>
  </outline>
</glyph>
<glyph name="logicalnot" format="2">
  <advance width="868.9356067230157"/>
  <unicode hex="00AC"/>
  <outline>
    <contour>
      <point x="807.3356067230156" y="771.3896103896104" type="line"/>
      <point x="807.3356067230156" y="376.0" type="line"/>
      <point x="703.9207131059943" y="376.0" type="line"/>
      <point x="703.9207131059943" y="668.5584415584416" type="line"/>
      <point x="38.8" y="668.5584415584416" type="line"/>
      <point x="38.8" y="771.3896103896104" type="line"/>
    </contour>
  </outline>
</glyph>
<glyph name="registered" format="2">
  <advance width="1631.6"/>
  <unicode hex="00AE"/>
  <outline>
    <contour>
      <point x="88.3" y="687.0" type="qcurve" smooth="yes"/>
      <point x="88.3" y="1044.5616438356165"/>
      <point x="471.8365296803653" y="1519.0"/>
      <point x="789.9095890410958" y="1519.0" type="qcurve" smooth="yes"/>
      <point x="1106.7908675799085" y="1519.0"/>
      <point x="1491.4439327698435" y="1044.5616438356165"/>
      <point x="1491.4439327698435" y="687.0" type="qcurve" smooth="yes"/>
      <point x="1491.4439327698435" y="331.24657534246575"/>
      <point x="1106.7908675799085" y="-147.0"/>
      <point x="789.9095890410958" y="-147.0" type="qcurve" smooth="yes"/>
      <point x="471.8365296803653" y="-147.0"/>
      <point x="88.3" y="331.24657534246575"/>
    </contour>
    <contour>
      <point x="174.8" y="687.0" type="qcurve" smooth="yes"/>
      <point x="174.8" y="372.34632034632034"/>
      <point x="511.4827373539702" y="-52.103896103896105"/>
      <point x="790.9095890410958" y="-52.103896103896105" type="qcurve" smooth="yes"/>
      <point x="1068.3015121864437" y="-52.103896103896105"/>
      <point x="1405.5077625570775" y="372.34632034632034"/>
      <point x="1405.5077625570775" y="687.0" type="qcurve" smooth="yes"/>
      <point x="1405.5077625570775" y="1003.3050465516219"/>
      <point x="1068.3015121864437" y="1423.4935064935064"/>
      <point x="790.9095890410958" y="1423.4935064935064" type="qcurve" smooth="yes"/>
      <point x="511.4827373539702" y="1423.4935064935064"/>
      <point x="174.8" y="1002.9154361620115"/>
    </contour>
    <contour>
      <point x="539.5937918974059" y="225.0" type="line"/>
      <point x="539.5937918974059" y="1158.0" type="line"/>
      <point x="783.6012727096083" y="1158.0" type="line" smooth="yes"/>
      <point x="918.1805498882735" y="1158.0"/>
      <point x="1072.2008063732633" y="1014.5106382978723"/>
      <point x="1072.2008063732633" y="869.1489361702128" type="qcurve" smooth="yes"/>
      <point x="1072.2008063732633" y="745.8547941420281"/>
      <point x="941.2838239580298" y="597.0"/>
      <point x="830.2916088477732" y="597.0" type="qcurve" smooth="yes"/>
      <point x="594.9023025357038" y="597.0" type="line"/>
      <point x="594.9023025357038" y="685.7922077922078" type="line"/>
      <point x="808.0030991936267" y="685.7922077922078" type="line" smooth="yes"/>
      <point x="880.3080170485299" y="685.7922077922078"/>
      <point x="967.09442339454" y="768.5236253108593"/>
      <point x="967.09442339454" y="859.0" type="qcurve" smooth="yes"/>
      <point x="967.09442339454" y="964.5454545454545"/>
      <point x="885.5033660500578" y="1062.5574334341457"/>
      <point x="784.6012727096083" y="1063.1038961038962" type="qcurve" smooth="yes"/>
      <point x="635.6788982803846" y="1063.1038961038962" type="line"/>
      <point x="635.6788982803846" y="225.0" type="line"/>
    </contour>
    <contour>
      <point x="991.4323229379189" y="225.0" type="line"/>
      <point x="798.7901477614971" y="643.9480519480519" type="line"/>
      <point x="845.722311342597" y="645.1168831168832" type="line"/>
      <point x="884.1240797869185" y="619.2987012987013"/>
      <point x="929.2877100942387" y="559.2557077625571"/>
      <point x="944.0202953463519" y="530.0" type="qcurve" smooth="yes"/>
      <point x="1093.5271932381231" y="238.63829787234042" type="line"/>
      <point x="1093.5271932381231" y="225.0" type="line"/>
    </contour>
  </outline>
</glyph>
<glyph name="degree" format="2">
  <advance width="566.0276595744681"/>
  <unicode hex="00B0"/>
  <outline>
    <contour>
      <point x="81.37148936170215" y="1217.0" type="qcurve"/>
      <point x="81.37148936170215" y="1331.287234042553"/>
      <point x="197.9140425531915" y="1477.0"/>
      <point x="285.3395744680851" y="1477.0" type="qcurve" smooth="yes"/>
      <point x="371.76510638297873" y="1477.0"/>
      <point x="485.3076595744681" y="1331.266935535069"/>
      <point x="485.3076595744681" y="1217.0" type="qcurve" smooth="yes"/>
      <point x="485.3076595744681" y="1102.7779422039066"/>
      <point x="371.7549571292707" y="960.0"/>
      <point x="285.3395744680851" y="960.0" type="qcurve" smooth="yes"/>
      <point x="198.09672912034353" y="960.0"/>
      <point x="81.37148936170215" y="1102.5851063829787"/>
    </contour>
    <contour>
      <point x="154.33957446808512" y="1217.0" type="qcurve"/>
      <point x="154.33957446808512" y="1136.5230858693646"/>
      <point x="228.01576752874362" y="1040.857142857143"/>
      <point x="285.3395744680851" y="1040.857142857143" type="qcurve" smooth="yes"/>
      <point x="341.88416062820585" y="1040.857142857143"/>
      <point x="412.3395744680851" y="1136.5230858693646"/>
      <point x="412.3395744680851" y="1217.0" type="qcurve" smooth="yes"/>
      <point x="412.3395744680851" y="1298.6939872068017"/>
      <point x="341.88416062820585" y="1396.142857142857"/>
      <point x="285.3395744680851" y="1396.142857142857" type="qcurve" smooth="yes"/>
      <point x="228.01576752874362" y="1396.142857142857"/>
      <point x="154.33957446808512" y="1298.6939872068017"/>
    </contour>
  </outline>
</glyph>
<glyph name="plusminus" format="2">
  <advance width="878.5655494025065"/>
  <unicode hex="00B1"/>
  <outline>
    <contour>
      <point x="38.2" y="645.0212765957447" type="line"/>
      <point x="38.2" y="740.5425531914893" type="line"/>
      <point x="840.3655494025065" y="740.5425531914893" type="line"/>
      <point x="840.3655494025065" y="645.0212765957447" type="line"/>
    </contour>
    <contour>
      <point x="387.6657534246575" y="259.634703196347" type="line"/>
      <point x="387.6657534246575" y="1144.593607305936" type="line"/>
      <point x="492.20830661614684" y="1144.593607305936" type="line"/>
      <point x="492.20830661614684" y="259.634703196347" type="line"/>
    </contour>
    <contour>
      <point x="38.2" y="1.0" type="line"/>
      <point x="38.2" y="96.52127659574468" type="line"/>
      <point x="840.3655494025065" y="96.52127659574468" type="line"/>
      <point x="840.3655494025065" y="1.0" type="line"/>
    </contour>
  </outline>
</glyph>
<glyph name="twosuperior" format="2">
  <advance width="543.4587098027786"/>
  <unicode hex="00B2"/>
  <outline>
    <contour>
      <point x="59.38596297319701" y="697.0" type="line"/>
      <point x="59.38596297319701" y="765.6493506493506" type="line"/>
      <point x="282.9620227338968" y="1040.5212765957447" type="line" smooth="yes"/>
      <point x="331.9758557385488" y="1101.106806289989"/>
      <point x="366.1161566112892" y="1198.5531914893618"/>
      <point x="366.1161566112892" y="1249.0" type="qcurve" smooth="yes"/>
      <point x="366.1161566112892" y="1321.935064935065"/>
      <point x="314.78306048367256" y="1399.2077922077922"/>
      <point x="261.2531429126591" y="1399.2077922077922" type="qcurve" smooth="yes"/>
      <point x="201.71717659587085" y="1399.2077922077922"/>
      <point x="143.2851063829787" y="1305.2077922077922"/>
      <point x="143.2851063829787" y="1208.0" type="qcurve" smooth="yes"/>
      <point x="143.2851063829787" y="1198.0" type="line"/>
      <point x="48.89148936170213" y="1198.0" type="line"/>
      <point x="48.89148936170213" y="1208.0" type="line" smooth="yes"/>
      <point x="48.89148936170213" y="1340.3085106382978"/>
      <point x="158.237695521228" y="1487.0"/>
      <point x="262.81697269989314" y="1487.0" type="qcurve" smooth="yes"/>
      <point x="358.9600796657923" y="1487.0"/>
      <point x="468.96722044107645" y="1361.1808510638298"/>
      <point x="468.96722044107645" y="1250.127659574468" type="qcurve" smooth="yes"/>
      <point x="468.96722044107645" y="1171.872340425532"/>
      <point x="401.07179283361154" y="1050.273735397023"/>
      <point x="342.5310016516079" y="984.5212765957447" type="qcurve" smooth="yes"/>
      <point x="197.43523615216995" y="790.0649350649351" type="line"/>
      <point x="498.65870980277856" y="790.0649350649351" type="line"/>
      <point x="498.65870980277856" y="697.0" type="line"/>
    </contour>
  </outline>
</glyph>
<glyph name="threesuperior" format="2">
  <advance width="549.4643058389197"/>
  <unicode hex="00B3"/>
  <outline>
    <contour>
      <point x="41.8" y="920.0" type="qcurve" smooth="yes"/>
      <point x="41.8" y="923.0" type="line"/>
      <point x="133.3744680851064" y="923.0" type="line"/>
      <point x="133.3744680851064" y="920.0" type="line" smooth="yes"/>
      <point x="133.3744680851064" y="850.0649350649351"/>
      <point x="205.27682512765577" y="772.961038961039"/>
      <point x="267.3073060622463" y="772.961038961039" type="qcurve" smooth="yes"/>
      <point x="332.53561656452945" y="772.961038961039"/>
      <point x="396.4566598659283" y="851.4545454545455"/>
      <point x="396.4566598659283" y="923.2553191489362" type="qcurve" smooth="yes"/>
      <point x="396.4566598659283" y="994.7532467532468"/>
      <point x="316.81365446949826" y="1054.1678230445355"/>
      <point x="255.89501603031187" y="1054.3246753246754" type="qcurve" smooth="yes"/>
      <point x="175.60277858738948" y="1054.3246753246754" type="line"/>
      <point x="175.60277858738948" y="1131.5194805194806" type="line"/>
      <point x="255.89501603031187" y="1131.5194805194806" type="line" smooth="yes"/>
      <point x="317.74960892600063" y="1131.5194805194806"/>
      <point x="384.9909064412708" y="1193.7532467532467"/>
      <point x="384.9909064412708" y="1256.3085106382978" type="qcurve" smooth="yes"/>
      <point x="384.9909064412708" y="1324.3246753246754"/>
      <point x="329.3083223878036" y="1400.0389610389611"/>
      <point x="267.586505392014" y="1400.0389610389611" type="qcurve" smooth="yes"/>
      <point x="210.8637988747869" y="1400.0389610389611"/>
      <point x="144.3744680851064" y="1324.3246753246754"/>
      <point x="144.3744680851064" y="1256.0" type="qcurve" smooth="yes"/>
      <point x="144.3744680851064" y="1252.0" type="line"/>
      <point x="52.8" y="1252.0" type="line"/>
      <point x="52.8" y="1256.0" type="line" smooth="yes"/>
      <point x="52.8" y="1361.3617021276596"/>
      <point x="172.13294471971244" y="1487.0"/>
      <point x="265.94711738276294" y="1487.0" type="qcurve" smooth="yes"/>
      <point x="363.6031186243078" y="1487.0"/>
      <point x="483.89516176041974" y="1370.2553191489362"/>
      <point x="483.89516176041974" y="1260.8191489361702" type="qcurve" smooth="yes"/>
      <point x="483.89516176041974" y="1204.1489361702127"/>
      <point x="426.2796949383076" y="1116.9468085106382"/>
      <point x="367.56623818229764" y="1098.0" type="qcurve"/>
      <point x="367.56623818229764" y="1097.0" type="line"/>
      <point x="431.9711843000097" y="1077.3617021276596"/>
      <point x="494.2332556106092" y="989.2872340425532"/>
      <point x="494.2332556106092" y="918.7446808510638" type="qcurve" smooth="yes"/>
      <point x="494.2332556106092" y="807.436170212766"/>
      <point x="366.656115806859" y="686.0"/>
      <point x="265.01116292626057" y="686.0" type="qcurve" smooth="yes"/>
      <point x="162.6223064218401" y="686.0"/>
      <point x="41.8" y="804.1808510638298"/>
    </contour>
  </outline>
</glyph>
<glyph name="micro" format="2">
  <advance width="996.2839405421159"/>
  <unicode hex="00B5"/>
  <outline>
    <contour>
      <point x="262.8" y="1052.0" type="line"/>
      <point x="370.7255319148936" y="1052.0" type="line"/>
      <point x="214.56968775904946" y="246.71428571428572" type="line" smooth="yes"/>
      <point x="198.53072672008844" y="166.68831168831167"/>
      <point x="283.6905440716866" y="77.94805194805195"/>
      <point x="363.5675529075995" y="77.94805194805195" type="qcurve" smooth="yes"/>
      <point x="452.2565762130612" y="77.94805194805195"/>
      <point x="607.1278921117743" y="168.1038961038961"/>
      <point x="665.1012657700794" y="243.32467532467533" type="qcurve"/>
      <point x="821.9584086272223" y="1052.0" type="line"/>
      <point x="929.883940542116" y="1052.0" type="line"/>
      <point x="726.320110754882" y="0.0" type="line"/>
      <point x="628.5435150102011" y="0.0" type="line"/>
      <point x="650.0328767123287" y="135.0" type="line"/>
      <point x="646.6498979889245" y="135.0" type="line"/>
      <point x="580.0382201496162" y="62.56382978723404"/>
      <point x="409.19128533955114" y="-20.0"/>
      <point x="315.328271640921" y="-20.0" type="qcurve" smooth="yes"/>
      <point x="272.0771300884096" y="-20.0"/>
      <point x="201.61594287379774" y="15.0"/>
      <point x="174.72553191489362" y="42.0" type="qcurve"/>
      <point x="86.72553191489361" y="-416.0" type="line"/>
      <point x="-21.2" y="-416.0" type="line"/>
    </contour>
  </outline>
</glyph>
<glyph name="paragraph" format="2">
  <advance width="872.4401826484019"/>
  <unicode hex="00B6"/>
  <guideline y="901.0" identifier="27539Lsr1A"/>
  <guideline y="555.0" identifier="e34wUdCmXR"/>
  <outline>
    <contour>
      <point x="505.67446808510635" y="-146.0" type="line"/>
      <point x="397.7489361702128" y="-146.0" type="line"/>
      <point x="397.7489361702128" y="898.3829787234042" type="line"/>
      <point x="333.8659574468085" y="898.3829787234042" type="line" smooth="yes"/>
      <point x="190.77021276595744" y="898.3829787234042"/>
      <point x="37.599999999999994" y="1056.8085106382978"/>
      <point x="37.599999999999994" y="1177.1914893617022" type="qcurve" smooth="yes"/>
      <point x="37.599999999999994" y="1296.0106382978724"/>
      <point x="190.77021276595744" y="1456.0"/>
      <point x="333.8659574468085" y="1456.0" type="qcurve" smooth="yes"/>
      <point x="505.67446808510635" y="1456.0" type="line"/>
    </contour>
    <contour>
      <point x="640.5146507335082" y="1459.0" type="line"/>
      <point x="748.4401826484019" y="1459.0" type="line"/>
      <point x="748.4401826484019" y="-146.0" type="line"/>
      <point x="640.5146507335082" y="-146.0" type="line"/>
    </contour>
  </outline>
</glyph>
<glyph name="periodcentered" format="2">
  <advance width="467.2"/>
  <unicode hex="00B7"/>
  <outline>
    <contour>
      <point x="152.78085106382977" y="749.0" type="qcurve" smooth="yes"/>
      <point x="152.78085106382977" y="780.9893617021277"/>
      <point x="194.53617021276594" y="826.563829787234"/>
      <point x="233.6" y="826.563829787234" type="qcurve" smooth="yes"/>
      <point x="272.663829787234" y="826.563829787234"/>
      <point x="314.41914893617025" y="780.9893617021277"/>
      <point x="314.41914893617025" y="749.0" type="qcurve" smooth="yes"/>
      <point x="314.41914893617025" y="717.0106382978723"/>
      <point x="272.663829787234" y="671.436170212766"/>
      <point x="233.6" y="671.436170212766" type="qcurve" smooth="yes"/>
      <point x="194.53617021276594" y="671.436170212766"/>
      <point x="152.78085106382977" y="717.0106382978723"/>
    </contour>
  </outline>
</glyph>
<glyph name="onesuperior" format="2">
  <advance width="534.1088506752161"/>
  <unicode hex="00B9"/>
  <outline>
    <contour>
      <point x="77.8" y="1288.6330478032608" type="line"/>
      <point x="77.8" y="1387.8829787234042" type="line"/>
      <point x="349.6301272709608" y="1486.0" type="line"/>
      <point x="380.10885067521616" y="1486.0" type="line"/>
      <point x="380.10885067521616" y="697.0" type="line"/>
      <point x="285.71523365393955" y="697.0" type="line"/>
      <point x="285.71523365393955" y="1363.9709473466398" type="line"/>
    </contour>
  </outline>
</glyph>
<glyph name="ordmasculine" format="2">
  <advance width="684.1191003594676"/>
  <unicode hex="00BA"/>
  <guideline y="1975.0" identifier="Jnt0R9CyOf"/>
  <outline>
    <contour>
      <point x="78.4" y="1043.0" type="qcurve"/>
      <point x="78.4" y="1124.0" type="line"/>
      <point x="78.4" y="1284.9787234042553"/>
      <point x="217.8045953560672" y="1477.0"/>
      <point x="341.7455746623919" y="1477.0" type="qcurve" smooth="yes"/>
      <point x="466.2503837559506" y="1477.0"/>
      <point x="605.7191003594676" y="1284.9787234042553"/>
      <point x="605.7191003594676" y="1124.0" type="qcurve"/>
      <point x="605.7191003594676" y="1043.0" type="line"/>
      <point x="605.7191003594676" y="882.0212765957447"/>
      <point x="467.2503837559507" y="691.0"/>
      <point x="343.7455746623919" y="691.0" type="qcurve" smooth="yes"/>
      <point x="218.8045953560672" y="691.0"/>
      <point x="78.4" y="882.0212765957447"/>
    </contour>
    <contour>
      <point x="173.35744680851064" y="1124.0" type="qcurve"/>
      <point x="173.35744680851064" y="1043.0" type="line"/>
      <point x="173.35744680851064" y="922.7792207792207"/>
      <point x="258.93563574286395" y="778.5714285714286"/>
      <point x="343.7455746623919" y="778.5714285714286" type="qcurve" smooth="yes"/>
      <point x="426.5265151830585" y="778.5714285714286"/>
      <point x="511.325483338191" y="922.7792207792207"/>
      <point x="511.325483338191" y="1043.0" type="qcurve"/>
      <point x="511.325483338191" y="1124.0" type="line"/>
      <point x="511.325483338191" y="1243.3896103896104"/>
      <point x="425.5265151830585" y="1388.2077922077922"/>
      <point x="341.7455746623919" y="1388.2077922077922" type="qcurve" smooth="yes"/>
      <point x="258.5460253532536" y="1388.2077922077922"/>
      <point x="173.35744680851064" y="1243.3896103896104"/>
    </contour>
  </outline>
</glyph>
<glyph name="guillemotright" format="2">
  <advance width="918.8628193918197"/>
  <unicode hex="00BB"/>
  <guideline y="98.0" identifier="MTEldNnfdj"/>
  <guideline y="443.0" identifier="G9bQni2n1K"/>
  <outline>
    <contour>
      <point x="56.2" y="153.0" type="line"/>
      <point x="305.56986301369864" y="551.0" type="line"/>
      <point x="56.2" y="949.0" type="line"/>
      <point x="157.8103896103896" y="949.0" type="line"/>
      <point x="421.69752258816675" y="569.2234042553191" type="line"/>
      <point x="421.69752258816675" y="533.3404255319149" type="line"/>
      <point x="157.8103896103896" y="153.0" type="line"/>
    </contour>
    <contour>
      <point x="484.565296803653" y="153.0" type="line"/>
      <point x="733.9351598173516" y="551.0" type="line"/>
      <point x="484.565296803653" y="949.0" type="line"/>
      <point x="586.1756864140426" y="949.0" type="line"/>
      <point x="850.0628193918197" y="569.2234042553191" type="line"/>
      <point x="850.0628193918197" y="533.3404255319149" type="line"/>
      <point x="586.1756864140426" y="153.0" type="line"/>
    </contour>
  </outline>
</glyph>
<glyph name="questiondown" format="2">
  <advance width="731.4130671330031"/>
  <unicode hex="00BF"/>
  <guideline y="-181.0" identifier="apukwP5ffL"/>
  <guideline y="921.0" identifier="5ZPZZL8Rim"/>
  <outline>
    <contour>
      <point x="483.32990381812874" y="1086.7659574468084" type="qcurve" smooth="yes"/>
      <point x="483.32990381812874" y="1054.776595744681"/>
      <point x="441.57458466919263" y="1009.2021276595744"/>
      <point x="402.5107548819586" y="1009.2021276595744" type="qcurve" smooth="yes"/>
      <point x="363.4469250947245" y="1009.2021276595744"/>
      <point x="321.69160594578835" y="1054.776595744681"/>
      <point x="321.69160594578835" y="1086.7659574468084" type="qcurve" smooth="yes"/>
      <point x="321.69160594578835" y="1118.7553191489362"/>
      <point x="363.4469250947245" y="1164.3297872340424"/>
      <point x="402.5107548819586" y="1164.3297872340424" type="qcurve" smooth="yes"/>
      <point x="441.57458466919263" y="1164.3297872340424"/>
      <point x="483.32990381812874" y="1118.7553191489362"/>
    </contour>
    <contour>
      <point x="691.4130671330031" y="53.0" type="line"/>
      <point x="691.4130671330031" y="33.0" type="line" smooth="yes"/>
      <point x="691.4130671330031" y="-130.25531914893617"/>
      <point x="523.5436898863305" y="-328.0"/>
      <point x="373.3483629651219" y="-328.0" type="qcurve" smooth="yes"/>
      <point x="221.65274458369765" y="-328.0"/>
      <point x="60.4" y="-122.0"/>
      <point x="60.4" y="48.0" type="qcurve" smooth="yes"/>
      <point x="60.4" y="181.12765957446808"/>
      <point x="165.67732439522004" y="355.97872340425533"/>
      <point x="239.68504809093562" y="427.3936170212766" type="qcurve" smooth="yes"/>
      <point x="316.29993199261634" y="502.11886719129507"/>
      <point x="355.07380744195086" y="620.8616049742544"/>
      <point x="355.07380744195086" y="701.8297872340426" type="qcurve" smooth="yes"/>
      <point x="355.07380744195086" y="738.0" type="line"/>
      <point x="462.9993393568445" y="738.0" type="line"/>
      <point x="462.9993393568445" y="701.8297872340426" type="line" smooth="yes"/>
      <point x="462.9993393568445" y="589.9148936170212"/>
      <point x="412.00186534538034" y="462.33153599533665"/>
      <point x="328.00419702710576" y="375.468085106383" type="qcurve" smooth="yes"/>
      <point x="247.48583503351793" y="293.59574468085106"/>
      <point x="168.32553191489362" y="161.52127659574467"/>
      <point x="168.32553191489362" y="48.0" type="qcurve" smooth="yes"/>
      <point x="168.32553191489362" y="-77.99364465321912"/>
      <point x="270.17722724181476" y="-226.3896103896104"/>
      <point x="372.47602253958996" y="-226.3896103896104" type="qcurve" smooth="yes"/>
      <point x="476.083328475663" y="-226.3896103896104"/>
      <point x="584.0513650053434" y="-85.37662337662337"/>
      <point x="584.0513650053434" y="33.0" type="qcurve" smooth="yes"/>
      <point x="584.0513650053434" y="53.0" type="line"/>
    </contour>
  </outline>
</glyph>
<glyph name="AE" format="2">
  <advance width="1711.1755464879043"/>
  <unicode hex="00C6"/>
  <anchor x="933.2842222869912" y="1456.0" name="top"/>
  <outline>
    <contour>
      <point x="-5.0" y="0.0" type="line"/>
      <point x="832.0182648401826" y="1456.0" type="line"/>
      <point x="1656.75910813174" y="1456.0" type="line"/>
      <point x="1656.75910813174" y="1356.8311688311687" type="line"/>
      <point x="981.5927329252889" y="1356.8311688311687" type="line"/>
      <point x="981.5927329252889" y="99.16883116883116" type="line"/>
      <point x="1666.3755464879043" y="99.16883116883116" type="line"/>
      <point x="1666.3755464879043" y="0.0" type="line"/>
      <point x="870.2842222869912" y="0.0" type="line"/>
      <point x="870.2842222869912" y="1331.340425531915" type="line"/>
      <point x="126.47872340425532" y="0.0" type="line"/>
    </contour>
    <contour>
      <point x="928.6672010103954" y="702.3896103896104" type="line"/>
      <point x="928.6672010103954" y="801.5584415584416" type="line"/>
      <point x="1568.083309044982" y="801.5584415584416" type="line"/>
      <point x="1568.083309044982" y="702.3896103896104" type="line"/>
    </contour>
    <contour>
      <point x="277.2868675092517" y="386.1168831168831" type="line"/>
      <point x="336.81179366635496" y="495.6623376623377" type="line"/>
      <point x="930.3586903720975" y="495.6623376623377" type="line"/>
      <point x="930.3586903720975" y="386.1168831168831" type="line"/>
    </contour>
  </outline>
</glyph>
<glyph name="multiply" format="2">
  <advance width="938.0913242009133"/>
  <unicode hex="00D7"/>
  <outline>
    <contour>
      <point x="456.57125813659775" y="274.69969882444383" type="line"/>
      <point x="78.58189643447002" y="661.9231030797629" type="line"/>
      <point x="472.5129660934616" y="1064.8639366559798" type="line"/>
      <point x="850.5023277955892" y="676.6405324006606" type="line"/>
    </contour>
    <contour>
      <point x="468.3219624987856" y="274.4439910618867" type="line"/>
      <point x="79.9537510929758" y="670.8858933255609" type="line"/>
      <point x="464.145240454678" y="1065.3114252404548" type="line"/>
      <point x="852.5134518604876" y="667.8695229767803" type="line"/>
    </contour>
  </outline>
</glyph>
